<?xml version="1.0" standalone="no"?>
<!DOCTYPE svg PUBLIC "-//W3C//DTD SVG 20010904//EN"
 "http://www.w3.org/TR/2001/REC-SVG-20010904/DTD/svg10.dtd">
<svg version="1.0" xmlns="http://www.w3.org/2000/svg"
 width="928.000000pt" height="928.000000pt" viewBox="0 0 928.000000 928.000000"
 preserveAspectRatio="xMidYMid meet">
<metadata>
Created by potrace 1.11, written by Peter Selinger 2001-2013
</metadata>
<g transform="translate(0.000000,928.000000) scale(0.100000,-0.100000)"
fill="#000000" stroke="none">
<path d="M5635 9257 c-28 -12 -64 -33 -82 -46 -42 -32 -83 -110 -90 -172 -5
-48 11 -163 26 -184 7 -9 25 -49 72 -162 8 -18 17 -33 21 -33 5 0 8 -5 8 -10
0 -11 41 -102 49 -110 3 -3 31 -54 61 -115 30 -60 69 -136 87 -168 18 -33 33
-65 33 -72 0 -7 4 -15 9 -17 4 -1 34 -52 66 -113 32 -60 77 -144 101 -185 l43
-75 -107 -22 c-59 -13 -118 -27 -132 -33 -14 -5 -38 -15 -55 -21 -16 -7 -32
-13 -36 -13 -16 -3 -219 -105 -229 -117 -3 -3 -21 -15 -41 -27 l-37 -22 -22
52 c-43 102 -289 588 -311 615 -6 7 -8 13 -5 13 4 0 -2 13 -13 29 -12 16 -21
32 -21 36 0 8 -74 116 -105 154 -57 67 -200 211 -212 211 -7 0 -13 4 -13 9 0
12 -65 25 -112 23 -121 -4 -250 -137 -249 -255 0 -23 2 -54 5 -69 4 -26 71
-157 106 -208 9 -14 20 -32 23 -40 4 -8 25 -42 46 -75 93 -142 273 -450 331
-565 35 -69 80 -156 100 -194 l37 -69 -161 -161 c-89 -89 -177 -180 -196 -204
-19 -24 -46 -56 -60 -71 -14 -16 -50 -62 -80 -104 -53 -74 -70 -90 -70 -66 0
19 -109 275 -178 419 -36 74 -66 137 -67 140 0 3 -9 21 -19 40 -119 225 -149
279 -183 332 -12 21 -23 40 -23 43 0 3 -34 61 -75 130 -41 69 -75 128 -75 131
0 2 -8 17 -19 32 -10 15 -35 53 -56 85 -76 114 -137 157 -224 157 -100 0 -194
-69 -218 -160 -15 -56 14 -216 46 -254 7 -9 10 -16 6 -16 -4 0 -3 -6 3 -12 13
-17 124 -233 352 -688 101 -201 187 -366 192 -368 4 -2 8 -9 8 -15 0 -13 45
-104 72 -147 8 -14 33 -59 55 -100 22 -41 53 -97 68 -123 28 -52 28 -55 -21
-102 -5 -5 -23 -28 -39 -50 -41 -56 -204 -215 -220 -215 -4 0 -27 -14 -53 -32
-63 -44 -129 -78 -136 -71 -3 4 -6 1 -6 -5 0 -26 -36 -11 -49 21 -8 17 -17 34
-21 37 -4 3 -30 48 -57 100 -28 52 -72 132 -97 178 -25 45 -46 86 -46 91 0 5
-3 11 -7 13 -5 2 -21 28 -37 58 -69 135 -129 246 -136 255 -4 6 -42 78 -85
160 -43 83 -82 154 -86 160 -5 5 -9 17 -9 26 0 10 -4 19 -9 21 -10 3 -223 433
-221 444 1 4 -2 10 -7 13 -4 3 -21 32 -38 64 -59 115 -117 163 -206 170 -181
15 -292 -173 -221 -373 3 -8 6 -19 8 -25 11 -40 55 -167 69 -200 28 -65 364
-737 376 -751 6 -8 8 -14 4 -14 -4 0 -2 -6 4 -14 6 -7 31 -51 55 -97 59 -116
94 -177 127 -226 16 -23 29 -46 29 -51 0 -6 3 -12 8 -14 17 -7 102 -130 97
-139 -4 -5 -9 -7 -13 -5 -10 6 -92 14 -317 32 -33 3 -95 6 -137 7 -43 1 -78 5
-78 9 0 4 -11 3 -24 -2 -13 -5 -26 -7 -28 -4 -3 2 -41 4 -86 5 l-82 1 -60 125
c-33 68 -60 126 -60 128 0 2 -23 52 -51 112 -63 134 -73 156 -71 166 1 4 -3 7
-8 7 -6 0 -10 8 -10 18 0 9 -9 31 -20 47 -11 17 -20 36 -20 43 0 7 -7 20 -15
28 -8 9 -15 24 -15 35 0 10 -4 19 -10 19 -5 0 -9 4 -7 8 4 14 -167 375 -192
405 -8 9 -11 17 -7 17 9 0 -42 78 -73 113 -41 45 -74 56 -160 54 -67 -2 -83
-6 -118 -30 -63 -43 -77 -84 -76 -212 1 -138 5 -153 109 -383 13 -29 24 -54
24 -57 0 -2 17 -41 39 -87 21 -46 51 -110 66 -143 15 -33 64 -134 107 -225 44
-91 86 -179 95 -197 16 -35 11 -53 -16 -53 -9 0 -22 -5 -29 -12 -7 -7 -12 -9
-12 -6 0 9 -172 -76 -238 -118 -32 -20 -81 -54 -110 -77 -29 -22 -54 -38 -55
-36 -2 2 -14 29 -26 59 -32 80 -32 80 -125 270 -47 96 -106 211 -131 255 -25
44 -48 88 -52 98 -3 9 -10 17 -15 17 -5 0 -7 4 -4 9 4 5 3 11 -1 13 -11 4
-103 156 -103 168 0 6 -3 10 -7 10 -5 0 -24 27 -43 60 -19 33 -38 60 -42 60
-5 0 -8 5 -8 11 0 15 -52 69 -67 69 -7 0 -13 4 -13 8 0 18 -79 35 -132 29 -94
-10 -126 -24 -183 -81 -46 -46 -81 -132 -77 -186 6 -65 14 -115 20 -124 3 -6
7 -15 8 -21 1 -5 17 -41 34 -80 18 -38 32 -71 32 -72 -1 -4 147 -291 288 -558
125 -236 145 -272 162 -297 10 -14 18 -29 18 -32 0 -3 23 -39 50 -81 l51 -74
-26 -51 c-14 -27 -25 -52 -24 -55 1 -3 -4 -18 -10 -33 -40 -99 -45 -309 -16
-602 3 -30 8 -66 10 -80 7 -44 18 -114 21 -135 1 -11 3 -21 4 -22 2 -2 3 -11
4 -20 1 -10 6 -37 10 -60 4 -24 7 -44 5 -45 -1 -2 3 -13 9 -24 6 -12 14 -36
17 -55 5 -33 51 -199 62 -229 7 -17 12 -34 16 -55 2 -8 6 -18 10 -21 4 -4 7
-14 7 -21 0 -8 9 -33 20 -55 11 -23 20 -48 20 -55 0 -7 4 -21 9 -31 13 -24 62
-139 66 -152 4 -17 115 -236 156 -306 27 -47 49 -90 49 -95 0 -5 5 -9 10 -9 6
0 10 -4 10 -9 0 -5 23 -44 50 -85 28 -42 50 -78 50 -81 0 -3 7 -13 16 -22 8
-10 58 -76 111 -148 53 -71 101 -135 107 -141 6 -7 27 -31 46 -55 19 -24 51
-61 70 -82 19 -22 55 -62 80 -90 67 -75 238 -252 299 -311 29 -28 77 -73 105
-101 78 -74 164 -153 236 -215 35 -30 74 -64 85 -75 12 -11 37 -32 57 -47 20
-15 42 -33 50 -40 24 -23 111 -93 203 -163 50 -38 92 -71 95 -75 3 -3 18 -14
35 -24 16 -11 34 -23 40 -28 23 -20 203 -145 240 -168 22 -13 42 -27 45 -30 3
-3 55 -37 115 -74 144 -90 156 -98 180 -111 11 -6 43 -25 72 -44 29 -18 56
-32 60 -32 4 0 15 -6 23 -12 8 -7 24 -17 35 -23 11 -6 43 -23 70 -39 218 -122
527 -262 680 -308 146 -43 130 -39 249 -61 92 -18 262 -19 331 -3 160 38 281
162 339 347 10 30 20 62 23 70 3 8 8 24 10 35 8 38 11 50 13 50 2 0 7 21 29
147 23 121 30 176 36 268 2 30 4 55 5 55 2 0 10 132 14 245 2 52 5 95 6 95 1
0 6 117 9 221 l1 52 83 22 c45 12 87 23 92 24 6 1 16 5 23 9 6 5 12 6 12 3 0
-7 180 55 275 94 77 33 205 97 215 109 3 3 17 13 31 21 102 58 245 212 310
333 19 36 33 51 46 50 72 -7 104 -18 171 -55 42 -24 81 -45 87 -47 5 -2 18
-10 28 -19 9 -8 17 -11 17 -7 0 4 8 1 18 -8 9 -8 19 -15 22 -15 3 0 31 -12 64
-26 32 -14 61 -26 63 -26 3 0 19 -6 36 -14 37 -17 147 -55 177 -61 11 -3 30
-7 41 -10 12 -2 36 -9 53 -14 52 -17 222 -47 311 -56 28 -3 66 -8 85 -11 19
-4 89 -7 155 -7 93 0 139 4 205 22 83 22 212 76 218 93 2 4 10 8 17 8 21 0
161 141 199 202 56 89 113 229 131 323 7 37 13 59 15 63 2 1 3 5 4 10 6 27 30
89 39 100 5 7 7 15 4 19 -4 3 -3 11 2 17 7 9 18 52 58 226 3 14 7 36 8 50 1
14 6 63 11 110 11 106 11 488 -1 595 -4 44 -9 94 -11 110 -1 17 -3 30 -4 30
-1 0 -3 23 -5 50 -4 61 -9 95 -36 250 -11 66 -23 136 -26 155 -3 19 -10 41
-16 48 -5 6 -7 12 -4 12 4 0 -5 41 -43 200 -18 76 -101 370 -113 400 -8 21
-50 153 -53 165 -1 6 -9 29 -18 53 -8 23 -13 42 -9 42 3 0 1 6 -4 13 -6 6 -25
55 -43 107 -18 52 -37 101 -43 108 -5 7 -7 15 -4 19 4 3 3 11 -1 17 -5 6 -19
38 -32 71 -12 33 -28 74 -35 90 -7 17 -34 84 -61 150 -26 66 -52 123 -57 126
-5 3 -8 8 -7 10 4 12 -99 232 -112 237 -4 2 -8 10 -8 18 0 7 -10 30 -21 51
-41 72 -130 238 -157 293 -15 30 -30 57 -33 60 -3 3 -20 31 -37 63 -47 86
-165 260 -246 362 -79 100 -242 267 -326 336 -30 24 -56 47 -58 52 -2 4 -10 7
-18 7 -8 0 -14 5 -14 10 0 6 -5 10 -10 10 -6 0 -20 8 -31 18 -10 11 -32 25
-47 33 -15 8 -29 16 -32 19 -27 27 -321 163 -379 175 -9 2 -45 13 -80 24 -36
12 -83 24 -105 27 -51 8 -86 29 -86 52 0 25 -57 201 -76 235 -8 15 -13 27 -10
27 5 0 -32 94 -70 178 -13 29 -24 55 -24 58 0 9 -207 417 -230 454 -6 8 -42
71 -81 140 -39 69 -79 139 -89 155 -106 186 -153 226 -265 231 -44 2 -73 -3
-110 -19z m805 -2221 c0 -4 6 -3 13 3 8 6 16 9 19 6 2 -3 24 -7 49 -10 24 -3
65 -10 90 -16 26 -6 53 -12 60 -13 82 -17 339 -144 339 -168 0 -4 5 -8 11 -8
11 0 94 -75 133 -119 12 -13 33 -38 49 -55 50 -57 104 -139 216 -331 45 -77
87 -147 92 -155 10 -17 92 -158 120 -207 52 -91 65 -114 104 -193 63 -123 115
-240 115 -256 0 -8 3 -14 8 -14 8 0 32 -49 32 -67 0 -7 4 -13 9 -13 5 0 11 -8
14 -17 3 -10 18 -45 32 -78 14 -33 39 -94 55 -135 16 -41 34 -88 41 -105 7
-16 13 -35 14 -41 2 -7 13 -39 24 -72 12 -34 24 -69 26 -79 2 -10 17 -65 33
-123 36 -128 82 -325 96 -415 2 -11 6 -36 10 -55 13 -74 26 -163 31 -210 2
-19 4 -35 5 -35 1 0 3 -22 5 -50 8 -110 30 -311 39 -360 6 -31 20 -176 20
-212 1 -18 3 -33 6 -33 12 0 17 -391 6 -475 -4 -33 -9 -82 -12 -109 -11 -117
-116 -226 -242 -253 -42 -9 -121 -7 -187 6 -33 6 -75 13 -93 16 -18 2 -38 7
-45 12 -6 4 -16 8 -22 9 -76 13 -346 137 -460 213 -38 25 -78 49 -87 53 -10 4
-18 12 -18 18 0 5 -5 10 -10 10 -6 0 -33 16 -60 35 -27 19 -54 35 -60 35 -5 0
-10 4 -10 8 0 5 -12 15 -27 23 -16 8 -30 16 -33 19 -10 10 -161 110 -166 110
-3 0 -14 8 -25 18 -10 11 -32 25 -47 33 -15 8 -29 16 -32 19 -24 25 -255 167
-325 199 -47 22 -168 70 -190 76 -5 1 -17 5 -25 8 -19 7 -156 38 -190 43 -14
2 -43 6 -65 9 -59 9 -252 10 -310 1 -65 -9 -173 -47 -228 -79 -120 -71 -238
-241 -262 -379 -3 -17 -8 -34 -10 -38 -7 -11 -18 -80 -30 -185 -29 -243 -24
-706 12 -1005 9 -76 10 -891 1 -967 -8 -72 -47 -143 -77 -143 -6 0 -11 -4 -11
-10 0 -8 -21 -17 -62 -26 -5 -1 -10 -3 -13 -4 -13 -7 -35 -5 -85 8 -30 8 -62
15 -70 17 -32 6 -355 169 -505 255 -205 116 -321 186 -335 200 -3 3 -15 11
-27 18 -13 6 -33 18 -45 25 -13 6 -25 14 -28 17 -14 14 -70 50 -78 50 -5 0
-17 9 -27 20 -10 11 -24 20 -31 20 -7 0 -14 4 -16 8 -1 4 -47 38 -100 75 -53
37 -102 73 -110 79 -7 7 -30 24 -50 38 -21 14 -38 28 -38 33 0 4 -6 7 -14 7
-8 0 -16 3 -18 7 -1 5 -48 44 -103 88 -55 44 -113 92 -130 107 -16 14 -41 36
-55 48 -98 83 -166 147 -329 310 -188 187 -236 238 -326 345 -27 33 -55 65
-61 70 -6 6 -28 33 -50 60 -21 28 -42 52 -45 55 -14 11 -170 241 -201 295 -18
32 -144 287 -158 320 -26 58 -38 95 -33 95 3 0 1 6 -4 13 -8 9 -64 164 -68
187 -1 3 -13 55 -28 115 -32 136 -41 181 -52 270 -4 28 -9 57 -12 65 -2 8 -7
38 -9 65 -2 28 -6 79 -10 115 -21 220 37 396 172 525 62 59 82 73 159 111 111
55 262 82 440 78 79 -2 220 -11 220 -14 0 -1 42 -4 185 -15 85 -6 153 -12 270
-21 125 -10 348 -10 430 0 73 9 81 11 129 25 19 6 38 8 42 5 5 -3 22 2 39 11
17 9 35 13 40 10 6 -3 10 -1 10 4 0 6 3 10 8 9 31 -9 319 125 397 184 6 4 48
36 95 70 113 83 291 261 420 418 19 24 40 48 45 54 6 6 24 29 40 51 17 22 33
42 36 45 3 3 39 55 79 115 40 61 81 122 91 137 11 15 19 32 19 37 0 6 8 15 18
20 9 6 13 11 9 11 -4 0 -3 6 2 13 6 6 46 57 88 112 102 131 124 156 279 310
119 118 191 183 262 240 14 11 34 28 44 38 10 9 20 17 23 17 3 0 19 12 36 27
52 46 185 134 209 138 3 0 14 6 25 12 41 22 138 48 213 58 13 2 25 5 27 7 8 7
155 2 155 -6z m-469 -4177 c24 -7 48 -16 54 -21 5 -4 15 -8 23 -8 20 0 178
-81 265 -136 78 -50 103 -82 108 -139 2 -16 -3 -41 -10 -55 -20 -35 -125 -140
-141 -140 -7 0 -10 -3 -7 -6 9 -10 -103 -81 -189 -120 -88 -40 -155 -61 -257
-79 -37 -7 -81 17 -99 56 -13 26 -15 64 -12 218 6 287 14 341 53 391 45 56
109 68 212 39z"/>
<path d="M6777 5514 c-1 -1 -27 -5 -57 -8 -116 -12 -261 -46 -311 -72 -16 -8
-29 -13 -29 -10 0 4 -28 -10 -115 -58 -73 -40 -206 -157 -250 -220 -11 -16
-27 -36 -35 -45 -34 -36 -157 -251 -144 -251 4 0 2 -6 -3 -12 -13 -17 -51
-119 -59 -160 -8 -40 -9 -134 0 -167 8 -37 51 -96 89 -125 107 -82 245 -75
335 17 52 53 82 88 82 96 0 4 8 16 18 27 9 10 25 35 35 54 27 54 61 108 85
135 12 14 22 27 22 30 0 15 108 104 157 128 74 39 129 51 233 53 58 1 110 -1
115 -4 6 -4 21 -8 35 -9 14 -1 51 -6 82 -11 43 -6 72 -5 120 8 186 49 285 207
220 350 -26 57 -105 139 -162 167 -64 32 -148 63 -176 65 -13 1 -24 5 -24 8 0
3 -17 6 -38 7 -63 4 -223 8 -225 7z"/>
<path d="M4008 3925 c-2 -1 -25 -5 -53 -8 -27 -3 -60 -8 -71 -11 -12 -2 -37
-7 -57 -10 -55 -9 -210 -72 -362 -148 -178 -88 -397 -295 -492 -466 -7 -12
-19 -32 -25 -44 -7 -13 -15 -25 -18 -28 -3 -3 -17 -28 -32 -55 -66 -124 -84
-297 -40 -381 25 -50 84 -98 144 -120 41 -15 57 -19 111 -28 12 -2 47 3 77 11
73 18 143 89 202 202 73 142 117 202 214 296 91 88 90 88 168 130 103 57 217
84 376 91 36 1 65 3 65 4 0 1 7 3 16 5 66 12 136 72 171 144 27 56 33 169 12
231 -46 132 -145 193 -314 189 -49 -1 -91 -3 -92 -4z"/>
</g>
</svg>
