<?xml version="1.0" encoding="utf-8"?>
<!-- Generator: Adobe Illustrator 22.1.0, SVG Export Plug-In . SVG Version: 6.00 Build 0)  -->
<svg version="1.1" id="Layer_1" xmlns="http://www.w3.org/2000/svg" xmlns:xlink="http://www.w3.org/1999/xlink" x="0px" y="0px"
	 viewBox="0 0 768 929" style="enable-background:new 0 0 768 929;" xml:space="preserve">
<style type="text/css">
	.st0{fill:#FFFFFF;}
	.st1{fill:#52C234;}
	.st2{fill:#DD3B4E;}
	.st3{display:none;}
	.st4{display:inline;fill:#DD3B4E;}
	.st5{fill:none;}
	.st6{display:inline;}
	.st7{font-family:'Dosis-ExtraBold';}
	.st8{font-size:75px;}
	.st9{letter-spacing:0.9;}
</style>
<rect class="st0" width="768" height="929"/>
<g>
	<rect x="287.1" y="68.3" width="438.4" height="499.5"/>
	<g>
		<g>
			<g>
				<path class="st1" d="M413.4,510.8c1.1-0.4,2.4-0.4,3.7-0.2c3,0.4,4.9,2.4,5.9,5.3c0.4,1.3,0,2.2-1,2.7c-0.9,0.3-1.8,0-2.4-1.1
					c-0.2-0.2-0.3-0.6-0.6-0.9c-0.9-1.5-2.2-2.3-4.1-2c-0.6,0.1-1,0.2-1.4,0.1c-1.3-0.2-2.5-1.7-1.3-3
					C412.3,511.3,412.9,510.9,413.4,510.8z"/>
				<path class="st1" d="M442.9,526.8c0.3,0.6,0.4,1.2,0.4,1.9c0,0.8-0.6,1.3-1.2,1.5c-0.8,0.3-1.5,0.2-2.1-0.4
					c-0.2-0.2-0.4-0.6-0.6-0.9c-1.1-2.1-2.7-3.5-5.2-3.5c-1.3,0-2-0.9-2-2c0-1.2,0.9-2.1,2.2-2c1,0,1.1,0.1,2,0.2
					c0.6,0.1,2.8,1.1,3.2,1.4C441.5,524.4,442,525.2,442.9,526.8z"/>
				<path class="st1" d="M401.4,530.7c0.6,2.9,2.1,4.5,4.9,4.9c0.1,0,0.3,0,0.6,0c2.9-0.1,5.5-0.8,8-2.2c0.3-0.2,0.3-0.2,0.7-0.3
					c0.1,0,0.4-0.1,0.7-0.1l0,0c1.4,3,4.4,3.9,7.4,4.6c0,0.1,0,0.1,0,0.1c0.1,1.9,0.1,3.5,0.3,5.3c0.1,1,0.3,2.1,0.7,3.1
					c0.7,2,1.8,2.7,4,2.5c1.9-0.2,3.5-0.9,5.2-1.7c5.1-2.5,9.6-5.8,13.7-9.7c3.1-3,5.8-6.2,7.5-10.1c1.4-3.2,2.2-6.5,2.2-10.1
					c0-0.9-0.2-1.8-0.7-2.5l0,0c0.4-0.7,0.9-1.3,1.2-2c0.9-1.7,1.8-3.3,2.7-5.1c0.2-0.6,0.6-1.1,0.7-1.7c0.2-1-0.2-1.9-1-2.2
					c-0.9-0.4-1.8-0.2-2.3,0.7c-1.4,2.2-2.8,4.5-3.8,7.1c-1-0.9-2.1-1.4-3.3-1.9c1-2,2-4.1,2.9-6.2c0.3-0.6,0.3-1.3,0.3-2
					s-0.3-1.2-1.1-1.3s-1.3,0.1-1.7,0.8c-0.4,0.8-0.8,1.4-1.1,2.2c-1,2.1-1.9,4.1-2.9,6.2c-1.8,0-3.5,0.1-5.3,0.3
					c-0.1,0-0.1,0-0.1,0c0.6-0.7,1-1.3,1.4-2.1c1.2-2.2,2.3-4.5,3.4-6.7c0.3-0.8,0.6-1.5,0.8-2.3c0.1-1-0.3-1.8-1.1-2
					c-0.9-0.2-1.4,0.1-1.9,0.9c-0.7,1.2-1.2,2.5-1.9,3.8c-1.3,2.5-2.7,5-4,7.4c-0.1,0.1-0.2,0.3-0.3,0.6c-1.2-0.6-2.3-1.3-3.2-2.5
					c-0.1-0.2-0.3-0.3-0.4-0.6c0.4-0.8,0.8-1.4,1.2-2.2c1.3-2.5,2.5-5.1,3.9-7.6c0.3-0.6,0.6-1.1,0.7-1.8c0.1-0.8-0.2-1.3-1-1.7
					c-0.8-0.2-1.3,0-1.8,0.6c-0.1,0.1-0.2,0.3-0.3,0.4c-1.9,3.1-3.7,6.2-4.9,9.5c-1.1-1.7-2.4-3-3.9-4.3c0.7-1.2,1.2-2.4,1.9-3.5
					c0.7-1.1,1.4-2.3,2.1-3.4c0.1-0.2,0.3-0.6,0.4-0.9c0.2-0.8,0-1.4-0.7-2s-1.5-0.6-2.1,0c-0.8,0.8-1.5,1.5-2,2.4
					c-0.9,1.7-1.8,3.3-2.5,5.1c-1.4-1-2.9-1.5-4.4-1.8c0.2-0.3,0.4-0.8,0.7-1.1c0.9-1.7,1.8-3.3,2.7-5.1c0.2-0.6,0.6-1.1,0.7-1.7
					c0.2-1-0.2-1.9-1-2.2c-0.9-0.4-1.8-0.2-2.3,0.7c-1.8,3-3.4,5.9-4.4,9.2c0,0.2-0.1,0.3-0.1,0.4c-4.5,0.9-7.5,3.5-10,7.7
					c-0.6,1-1.4,2.7-2.1,4c-1.4,3.1-4,9.7-4.5,15C400.3,524.7,400.2,527.7,401.4,530.7z M418.8,530.3c1-0.7,2.1-1.3,3.3-1.5
					c0.7-0.1,1.1,0.3,1.2,0.9c0.1,1.1,0.2,2.3,0.1,3.5c-0.1,0.4-0.4,0.7-0.9,0.6c-1.5-0.3-2.9-1-3.9-2.2
					C418.4,531.2,418.5,530.6,418.8,530.3z M405.5,521.6c0.3-4,1.4-8.2,3.1-11.3l0,0c0.9-2.2,2.1-4,3.4-6.3c1.5-2.8,3.9-4.3,7.2-4.2
					c1.1,0.1,2.1,0.4,3,1.1c2.3,1.8,4.4,3.8,6,6.2c0.8,1.3,1.8,2.5,2.8,3.7c2.4,2.8,5.5,4.4,9.4,4.2c1.5-0.1,3-0.2,4.4-0.3
					c0.9-0.1,1.8-0.1,2.7,0c2.5,0.3,4.1,2.2,3.9,4.8c-0.3,4.2-1.7,8-4.3,11.2c-4.6,5.6-10.4,9.8-16.9,12.9c-0.2,0.1-0.6,0.1-0.8,0.2
					c-0.8,0.2-1.7-0.4-1.7-1.2l0,0c0-2.1-0.1-4.2,0-6.3c0.2-2.7,0.4-5.4,0-8.2c-0.4-2.8-2.1-4.1-4.9-4c-2,0.1-3.8,0.7-5.4,1.8
					c-1.7,1.1-3.3,2.2-5,3.3c-1.4,0.9-3,1.5-4.8,1.8c-1.1,0.1-2.2-0.6-2.4-1.7c0-0.1,0-0.1,0-0.2
					C404.8,526.6,405.3,524.2,405.5,521.6z"/>
			</g>
			<g>
				<path class="st1" d="M355.9,511.7c1.2,1.3,0,2.8-1.3,3c-0.4,0.1-0.9,0-1.4-0.1c-1.9-0.3-3.2,0.4-4.1,2c-0.2,0.3-0.3,0.7-0.6,0.9
					c-0.7,1.1-1.5,1.4-2.4,1.1c-1-0.4-1.4-1.3-1-2.7c1-2.9,2.9-4.9,5.9-5.3c1.2-0.2,2.5-0.2,3.7,0.2
					C355.1,510.9,355.7,511.3,355.9,511.7z"/>
				<path class="st1" d="M328.3,523.1c0.4-0.3,2.7-1.3,3.2-1.4c0.9-0.1,1-0.2,2-0.2c1.3-0.1,2.2,0.8,2.2,2c0,1.1-0.7,2-2,2
					c-2.5,0-4.1,1.4-5.2,3.5c-0.1,0.3-0.3,0.7-0.6,0.9c-0.6,0.7-1.3,0.8-2.1,0.4c-0.7-0.2-1.2-0.8-1.2-1.5c0-0.7,0.1-1.3,0.4-1.9
					C326,525.2,326.5,524.4,328.3,523.1z"/>
				<path class="st1" d="M367.3,521.6c-0.6-5.3-3.1-11.9-4.5-15c-0.7-1.3-1.5-3-2.1-4c-2.4-4.2-5.4-6.9-10-7.7
					c0-0.1-0.1-0.2-0.1-0.4c-1-3.3-2.7-6.2-4.4-9.2c-0.6-0.9-1.4-1.1-2.3-0.7c-0.8,0.3-1.2,1.2-1,2.2c0.1,0.6,0.4,1.1,0.7,1.7
					c0.9,1.8,1.8,3.4,2.7,5.1c0.2,0.3,0.4,0.8,0.7,1.1c-1.5,0.2-3,0.8-4.4,1.8c-0.8-1.8-1.7-3.4-2.5-5.1c-0.4-0.9-1.2-1.7-2-2.4
					c-0.6-0.6-1.4-0.6-2.1,0s-0.9,1.2-0.7,2c0.1,0.3,0.3,0.7,0.4,0.9c0.7,1.1,1.4,2.3,2.1,3.4c0.7,1.1,1.2,2.3,1.9,3.5
					c-1.4,1.3-2.8,2.7-3.9,4.3c-1.2-3.3-3-6.4-4.9-9.5c-0.1-0.1-0.2-0.3-0.3-0.4c-0.4-0.6-1-0.8-1.8-0.6c-0.8,0.3-1.1,0.9-1,1.7
					c0.1,0.7,0.3,1.2,0.7,1.8c1.3,2.5,2.5,5.1,3.9,7.6c0.4,0.8,0.8,1.4,1.2,2.2c-0.1,0.2-0.3,0.3-0.4,0.6c-0.9,1.2-2,2-3.2,2.5
					c-0.1-0.2-0.2-0.4-0.3-0.6c-1.3-2.4-2.7-4.9-4-7.4c-0.7-1.2-1.2-2.5-1.9-3.8c-0.4-0.8-1-1.1-1.9-0.9c-0.8,0.2-1.2,1-1.1,2
					c0.2,0.8,0.4,1.5,0.8,2.3c1.1,2.2,2.2,4.5,3.4,6.7c0.4,0.8,0.9,1.4,1.4,2.1c0,0,0,0-0.1,0c-1.8-0.2-3.5-0.3-5.3-0.3
					c-1-2.1-1.9-4.1-2.9-6.2c-0.3-0.8-0.7-1.4-1.1-2.2c-0.3-0.7-0.9-0.9-1.7-0.8s-1.1,0.7-1.1,1.3s0,1.4,0.3,2
					c0.9,2.1,1.9,4.2,2.9,6.2c-1.2,0.4-2.3,1-3.3,1.9c-1-2.5-2.3-4.9-3.8-7.1c-0.6-0.9-1.4-1.1-2.3-0.7c-0.8,0.3-1.2,1.2-1,2.2
					c0.1,0.6,0.4,1.1,0.7,1.7c0.9,1.8,1.8,3.4,2.7,5.1c0.3,0.7,0.8,1.3,1.2,2l0,0c-0.4,0.8-0.7,1.7-0.7,2.5c0,3.5,0.8,6.9,2.2,10.1
					c1.8,3.9,4.4,7.1,7.5,10.1c4.1,4,8.6,7.2,13.7,9.7c1.7,0.8,3.3,1.4,5.2,1.7c2.2,0.1,3.3-0.6,4-2.5c0.3-1,0.6-2.1,0.7-3.1
					c0.2-1.8,0.2-3.4,0.3-5.3c0,0,0,0,0-0.1c3-0.8,6-1.7,7.4-4.6l0,0c0.2,0,0.6,0.1,0.7,0.1c0.3,0.1,0.3,0.1,0.7,0.3
					c2.4,1.4,5.1,2.1,8,2.2c0.2,0,0.4,0,0.6,0c2.8-0.3,4.3-2,4.9-4.9C367.8,527.7,367.7,524.7,367.3,521.6z M349.3,531.5
					c-1,1.2-2.3,1.9-3.9,2.2c-0.4,0.1-0.8-0.1-0.9-0.6c-0.1-1.2,0-2.4,0.1-3.5c0.1-0.6,0.6-1,1.2-0.9c1.2,0.2,2.3,0.9,3.3,1.5
					C349.5,530.6,349.6,531.2,349.3,531.5z M362.8,529c0,0.1,0,0.1,0,0.2c-0.2,1.1-1.3,1.8-2.4,1.7c-1.8-0.2-3.3-0.9-4.8-1.8
					c-1.7-1.1-3.3-2.2-5-3.3c-1.7-1.1-3.4-1.7-5.4-1.8c-2.8-0.1-4.4,1.2-4.9,4c-0.4,2.8-0.2,5.5,0,8.2c0.1,2.1,0,4.2,0,6.3l0,0
					c0,0.8-0.9,1.4-1.7,1.2c-0.2-0.1-0.6-0.1-0.8-0.2c-6.5-3.1-12.3-7.3-16.9-12.9c-2.7-3.2-4-7-4.3-11.2c-0.2-2.5,1.3-4.4,3.9-4.8
					c0.9-0.1,1.8-0.1,2.7,0c1.4,0.1,2.9,0.2,4.4,0.3c3.9,0.2,7-1.4,9.4-4.2c1-1.1,2-2.3,2.8-3.7c1.5-2.4,3.7-4.4,6-6.2
					c0.9-0.7,1.9-1,3-1.1c3.3-0.1,5.6,1.4,7.2,4.2c1.3,2.3,2.5,4.1,3.4,6.3l0,0c1.7,3.1,2.8,7.3,3.1,11.3
					C362.7,524.2,363.2,526.6,362.8,529z"/>
			</g>
		</g>
		<g>
			<g>
				<path class="st1" d="M413.4,411.6c1.1-0.4,2.4-0.4,3.7-0.2c3,0.4,4.9,2.4,5.9,5.3c0.4,1.3,0,2.2-1,2.7c-0.9,0.3-1.8,0-2.4-1.1
					c-0.2-0.2-0.3-0.6-0.6-0.9c-0.9-1.5-2.2-2.3-4.1-2c-0.6,0.1-1,0.2-1.4,0.1c-1.3-0.2-2.5-1.7-1.3-3
					C412.3,412.1,412.9,411.7,413.4,411.6z"/>
				<path class="st1" d="M442.9,427.6c0.3,0.6,0.4,1.2,0.4,1.9c0,0.8-0.6,1.3-1.2,1.5c-0.8,0.3-1.5,0.2-2.1-0.4
					c-0.2-0.2-0.4-0.6-0.6-0.9c-1.1-2.1-2.7-3.5-5.2-3.5c-1.3,0-2-0.9-2-2c0-1.2,0.9-2.1,2.2-2c1,0,1.1,0.1,2,0.2
					c0.6,0.1,2.8,1.1,3.2,1.4C441.5,425.2,442,425.9,442.9,427.6z"/>
				<path class="st1" d="M401.4,431.5c0.6,2.9,2.1,4.5,4.9,4.9c0.1,0,0.3,0,0.6,0c2.9-0.1,5.5-0.8,8-2.2c0.3-0.2,0.3-0.2,0.7-0.3
					c0.1,0,0.4-0.1,0.7-0.1l0,0c1.4,3,4.4,3.9,7.4,4.6c0,0.1,0,0.1,0,0.1c0.1,1.9,0.1,3.5,0.3,5.3c0.1,1,0.3,2.1,0.7,3.1
					c0.7,2,1.8,2.7,4,2.5c1.9-0.2,3.5-0.9,5.2-1.7c5.1-2.5,9.6-5.8,13.7-9.7c3.1-3,5.8-6.2,7.5-10.1c1.4-3.2,2.2-6.5,2.2-10.1
					c0-0.9-0.2-1.8-0.7-2.5l0,0c0.4-0.7,0.9-1.3,1.2-2c0.9-1.7,1.8-3.3,2.7-5.1c0.2-0.6,0.6-1.1,0.7-1.7c0.2-1-0.2-1.9-1-2.2
					c-0.9-0.4-1.8-0.2-2.3,0.7c-1.4,2.2-2.8,4.5-3.8,7.1c-1-0.9-2.1-1.4-3.3-1.9c1-2,2-4.1,2.9-6.2c0.3-0.6,0.3-1.3,0.3-2
					s-0.3-1.2-1.1-1.3s-1.3,0.1-1.7,0.8c-0.4,0.8-0.8,1.4-1.1,2.2c-1,2.1-1.9,4.1-2.9,6.2c-1.8,0-3.5,0.1-5.3,0.3
					c-0.1,0-0.1,0-0.1,0c0.6-0.7,1-1.3,1.4-2.1c1.2-2.2,2.3-4.5,3.4-6.7c0.3-0.8,0.6-1.5,0.8-2.3c0.1-1-0.3-1.8-1.1-2
					c-0.9-0.2-1.4,0.1-1.9,0.9c-0.7,1.2-1.2,2.5-1.9,3.8c-1.3,2.5-2.7,5-4,7.4c-0.1,0.1-0.2,0.3-0.3,0.6c-1.2-0.6-2.3-1.3-3.2-2.5
					c-0.1-0.2-0.3-0.3-0.4-0.6c0.4-0.8,0.8-1.4,1.2-2.2c1.3-2.5,2.5-5.1,3.9-7.6c0.3-0.6,0.6-1.1,0.7-1.8c0.1-0.8-0.2-1.3-1-1.7
					c-0.8-0.2-1.3,0-1.8,0.6c-0.1,0.1-0.2,0.3-0.3,0.4c-1.9,3.1-3.7,6.2-4.9,9.5c-1.1-1.7-2.4-3-3.9-4.3c0.7-1.2,1.2-2.4,1.9-3.5
					c0.7-1.1,1.4-2.3,2.1-3.4c0.1-0.2,0.3-0.6,0.4-0.9c0.2-0.8,0-1.4-0.7-2s-1.5-0.6-2.1,0c-0.8,0.8-1.5,1.5-2,2.4
					c-0.9,1.7-1.8,3.3-2.5,5.1c-1.4-1-2.9-1.5-4.4-1.8c0.2-0.3,0.4-0.8,0.7-1.1c0.9-1.7,1.8-3.3,2.7-5.1c0.2-0.6,0.6-1.1,0.7-1.7
					c0.2-1-0.2-1.9-1-2.2c-0.9-0.4-1.8-0.2-2.3,0.7c-1.8,3-3.4,5.9-4.4,9.2c0,0.2-0.1,0.3-0.1,0.4c-4.5,0.9-7.5,3.5-10,7.7
					c-0.6,1-1.4,2.7-2.1,4c-1.4,3.1-4,9.7-4.5,15C400.3,425.5,400.2,428.5,401.4,431.5z M418.8,431c1-0.7,2.1-1.3,3.3-1.5
					c0.7-0.1,1.1,0.3,1.2,0.9c0.1,1.1,0.2,2.3,0.1,3.5c-0.1,0.4-0.4,0.7-0.9,0.6c-1.5-0.3-2.9-1-3.9-2.2
					C418.4,431.9,418.5,431.4,418.8,431z M405.5,422.4c0.3-4,1.4-8.2,3.1-11.3l0,0c0.9-2.2,2.1-4,3.4-6.3c1.5-2.8,3.9-4.3,7.2-4.2
					c1.1,0.1,2.1,0.4,3,1.1c2.3,1.8,4.4,3.8,6,6.2c0.8,1.3,1.8,2.5,2.8,3.7c2.4,2.8,5.5,4.4,9.4,4.2c1.5-0.1,3-0.2,4.4-0.3
					c0.9-0.1,1.8-0.1,2.7,0c2.5,0.3,4.1,2.2,3.9,4.8c-0.3,4.2-1.7,8-4.3,11.2c-4.6,5.6-10.4,9.8-16.9,12.9c-0.2,0.1-0.6,0.1-0.8,0.2
					c-0.8,0.2-1.7-0.4-1.7-1.2l0,0c0-2.1-0.1-4.2,0-6.3c0.2-2.7,0.4-5.4,0-8.2c-0.4-2.8-2.1-4.1-4.9-4c-2,0.1-3.8,0.7-5.4,1.8
					c-1.7,1.1-3.3,2.2-5,3.3c-1.4,0.9-3,1.5-4.8,1.8c-1.1,0.1-2.2-0.6-2.4-1.7c0-0.1,0-0.1,0-0.2
					C404.8,427.4,405.3,424.9,405.5,422.4z"/>
			</g>
			<g>
				<path class="st1" d="M355.9,412.4c1.2,1.3,0,2.8-1.3,3c-0.4,0.1-0.9,0-1.4-0.1c-1.9-0.3-3.2,0.4-4.1,2c-0.2,0.3-0.3,0.7-0.6,0.9
					c-0.7,1.1-1.5,1.4-2.4,1.1c-1-0.4-1.4-1.3-1-2.7c1-2.9,2.9-4.9,5.9-5.3c1.2-0.2,2.5-0.2,3.7,0.2
					C355.1,411.7,355.7,412.1,355.9,412.4z"/>
				<path class="st1" d="M328.3,423.8c0.4-0.3,2.7-1.3,3.2-1.4c0.9-0.1,1-0.2,2-0.2c1.3-0.1,2.2,0.8,2.2,2c0,1.1-0.7,2-2,2
					c-2.5,0-4.1,1.4-5.2,3.5c-0.1,0.3-0.3,0.7-0.6,0.9c-0.6,0.7-1.3,0.8-2.1,0.4c-0.7-0.2-1.2-0.8-1.2-1.5c0-0.7,0.1-1.3,0.4-1.9
					C326,425.9,326.5,425.2,328.3,423.8z"/>
				<path class="st1" d="M367.3,422.4c-0.6-5.3-3.1-11.9-4.5-15c-0.7-1.3-1.5-3-2.1-4c-2.4-4.2-5.4-6.9-10-7.7
					c0-0.1-0.1-0.2-0.1-0.4c-1-3.3-2.7-6.2-4.4-9.2c-0.6-0.9-1.4-1.1-2.3-0.7c-0.8,0.3-1.2,1.2-1,2.2c0.1,0.6,0.4,1.1,0.7,1.7
					c0.9,1.8,1.8,3.4,2.7,5.1c0.2,0.3,0.4,0.8,0.7,1.1c-1.5,0.2-3,0.8-4.4,1.8c-0.8-1.8-1.7-3.4-2.5-5.1c-0.4-0.9-1.2-1.7-2-2.4
					c-0.6-0.6-1.4-0.6-2.1,0s-0.9,1.2-0.7,2c0.1,0.3,0.3,0.7,0.4,0.9c0.7,1.1,1.4,2.3,2.1,3.4c0.7,1.1,1.2,2.3,1.9,3.5
					c-1.4,1.3-2.8,2.7-3.9,4.3c-1.2-3.3-3-6.4-4.9-9.5c-0.1-0.1-0.2-0.3-0.3-0.4c-0.4-0.6-1-0.8-1.8-0.6c-0.8,0.3-1.1,0.9-1,1.7
					c0.1,0.7,0.3,1.2,0.7,1.8c1.3,2.5,2.5,5.1,3.9,7.6c0.4,0.8,0.8,1.4,1.2,2.2c-0.1,0.2-0.3,0.3-0.4,0.6c-0.9,1.2-2,2-3.2,2.5
					c-0.1-0.2-0.2-0.4-0.3-0.6c-1.3-2.4-2.7-4.9-4-7.4c-0.7-1.2-1.2-2.5-1.9-3.8c-0.4-0.8-1-1.1-1.9-0.9c-0.8,0.2-1.2,1-1.1,2
					c0.2,0.8,0.4,1.5,0.8,2.3c1.1,2.2,2.2,4.5,3.4,6.7c0.4,0.8,0.9,1.4,1.4,2.1c0,0,0,0-0.1,0c-1.8-0.2-3.5-0.3-5.3-0.3
					c-1-2.1-1.9-4.1-2.9-6.2c-0.3-0.8-0.7-1.4-1.1-2.2c-0.3-0.7-0.9-0.9-1.7-0.8s-1.1,0.7-1.1,1.3s0,1.4,0.3,2
					c0.9,2.1,1.9,4.2,2.9,6.2c-1.2,0.4-2.3,1-3.3,1.9c-1-2.5-2.3-4.9-3.8-7.1c-0.6-0.9-1.4-1.1-2.3-0.7c-0.8,0.3-1.2,1.2-1,2.2
					c0.1,0.6,0.4,1.1,0.7,1.7c0.9,1.8,1.8,3.4,2.7,5.1c0.3,0.7,0.8,1.3,1.2,2l0,0c-0.4,0.8-0.7,1.7-0.7,2.5c0,3.5,0.8,6.9,2.2,10.1
					c1.8,3.9,4.4,7.1,7.5,10.1c4.1,4,8.6,7.2,13.7,9.7c1.7,0.8,3.3,1.4,5.2,1.7c2.2,0.1,3.3-0.6,4-2.5c0.3-1,0.6-2.1,0.7-3.1
					c0.2-1.8,0.2-3.4,0.3-5.3c0,0,0,0,0-0.1c3-0.8,6-1.7,7.4-4.6l0,0c0.2,0,0.6,0.1,0.7,0.1c0.3,0.1,0.3,0.1,0.7,0.3
					c2.4,1.4,5.1,2.1,8,2.2c0.2,0,0.4,0,0.6,0c2.8-0.3,4.3-2,4.9-4.9C367.8,428.5,367.7,425.5,367.3,422.4z M349.3,432.2
					c-1,1.2-2.3,1.9-3.9,2.2c-0.4,0.1-0.8-0.1-0.9-0.6c-0.1-1.2,0-2.4,0.1-3.5c0.1-0.6,0.6-1,1.2-0.9c1.2,0.2,2.3,0.9,3.3,1.5
					C349.5,431.4,349.6,431.9,349.3,432.2z M362.8,429.8c0,0.1,0,0.1,0,0.2c-0.2,1.1-1.3,1.8-2.4,1.7c-1.8-0.2-3.3-0.9-4.8-1.8
					c-1.7-1.1-3.3-2.2-5-3.3c-1.7-1.1-3.4-1.7-5.4-1.8c-2.8-0.1-4.4,1.2-4.9,4c-0.4,2.8-0.2,5.5,0,8.2c0.1,2.1,0,4.2,0,6.3l0,0
					c0,0.8-0.9,1.4-1.7,1.2c-0.2-0.1-0.6-0.1-0.8-0.2c-6.5-3.1-12.3-7.3-16.9-12.9c-2.7-3.2-4-7-4.3-11.2c-0.2-2.5,1.3-4.4,3.9-4.8
					c0.9-0.1,1.8-0.1,2.7,0c1.4,0.1,2.9,0.2,4.4,0.3c3.9,0.2,7-1.4,9.4-4.2c1-1.1,2-2.3,2.8-3.7c1.5-2.4,3.7-4.4,6-6.2
					c0.9-0.7,1.9-1,3-1.1c3.3-0.1,5.6,1.4,7.2,4.2c1.3,2.3,2.5,4.1,3.4,6.3l0,0c1.7,3.1,2.8,7.3,3.1,11.3
					C362.7,424.9,363.2,427.4,362.8,429.8z"/>
			</g>
		</g>
		<g>
			<g>
				<path class="st1" d="M413.4,312.3c1.1-0.4,2.4-0.4,3.7-0.2c3,0.4,4.9,2.4,5.9,5.3c0.4,1.3,0,2.2-1,2.7c-0.9,0.3-1.8,0-2.4-1.1
					c-0.2-0.2-0.3-0.6-0.6-0.9c-0.9-1.5-2.2-2.3-4.1-2c-0.6,0.1-1,0.2-1.4,0.1c-1.3-0.2-2.5-1.7-1.3-3
					C412.3,312.9,412.9,312.4,413.4,312.3z"/>
				<path class="st1" d="M442.9,328.4c0.3,0.6,0.4,1.2,0.4,1.9c0,0.8-0.6,1.3-1.2,1.5c-0.8,0.3-1.5,0.2-2.1-0.4
					c-0.2-0.2-0.4-0.6-0.6-0.9c-1.1-2.1-2.7-3.5-5.2-3.5c-1.3,0-2-0.9-2-2c0-1.2,0.9-2.1,2.2-2c1,0,1.1,0.1,2,0.2
					c0.6,0.1,2.8,1.1,3.2,1.4C441.5,325.9,442,326.7,442.9,328.4z"/>
				<path class="st1" d="M401.4,332.2c0.6,2.9,2.1,4.5,4.9,4.9c0.1,0,0.3,0,0.6,0c2.9-0.1,5.5-0.8,8-2.2c0.3-0.2,0.3-0.2,0.7-0.3
					c0.1,0,0.4-0.1,0.7-0.1l0,0c1.4,3,4.4,3.9,7.4,4.6c0,0.1,0,0.1,0,0.1c0.1,1.9,0.1,3.5,0.3,5.3c0.1,1,0.3,2.1,0.7,3.1
					c0.7,2,1.8,2.7,4,2.5c1.9-0.2,3.5-0.9,5.2-1.7c5.1-2.5,9.6-5.8,13.7-9.7c3.1-3,5.8-6.2,7.5-10.1c1.4-3.2,2.2-6.5,2.2-10.1
					c0-0.9-0.2-1.8-0.7-2.5l0,0c0.4-0.7,0.9-1.3,1.2-2c0.9-1.7,1.8-3.3,2.7-5.1c0.2-0.6,0.6-1.1,0.7-1.7c0.2-1-0.2-1.9-1-2.2
					c-0.9-0.4-1.8-0.2-2.3,0.7c-1.4,2.2-2.8,4.5-3.8,7.1c-1-0.9-2.1-1.4-3.3-1.9c1-2,2-4.1,2.9-6.2c0.3-0.6,0.3-1.3,0.3-2
					s-0.3-1.2-1.1-1.3c-0.8-0.1-1.3,0.1-1.7,0.8c-0.4,0.8-0.8,1.4-1.1,2.2c-1,2.1-1.9,4.1-2.9,6.2c-1.8,0-3.5,0.1-5.3,0.3
					c-0.1,0-0.1,0-0.1,0c0.6-0.7,1-1.3,1.4-2.1c1.2-2.2,2.3-4.5,3.4-6.7c0.3-0.8,0.6-1.5,0.8-2.3c0.1-1-0.3-1.8-1.1-2
					c-0.9-0.2-1.4,0.1-1.9,0.9c-0.7,1.2-1.2,2.5-1.9,3.8c-1.3,2.5-2.7,5-4,7.4c-0.1,0.1-0.2,0.3-0.3,0.6c-1.2-0.6-2.3-1.3-3.2-2.5
					c-0.1-0.2-0.3-0.3-0.4-0.6c0.4-0.8,0.8-1.4,1.2-2.2c1.3-2.5,2.5-5.1,3.9-7.6c0.3-0.6,0.6-1.1,0.7-1.8c0.1-0.8-0.2-1.3-1-1.7
					c-0.8-0.2-1.3,0-1.8,0.6c-0.1,0.1-0.2,0.3-0.3,0.4c-1.9,3.1-3.7,6.2-4.9,9.5c-1.1-1.7-2.4-3-3.9-4.3c0.7-1.2,1.2-2.4,1.9-3.5
					c0.7-1.1,1.4-2.3,2.1-3.4c0.1-0.2,0.3-0.6,0.4-0.9c0.2-0.8,0-1.4-0.7-2c-0.7-0.6-1.5-0.6-2.1,0c-0.8,0.8-1.5,1.5-2,2.4
					c-0.9,1.7-1.8,3.3-2.5,5.1c-1.4-1-2.9-1.5-4.4-1.8c0.2-0.3,0.4-0.8,0.7-1.1c0.9-1.7,1.8-3.3,2.7-5.1c0.2-0.6,0.6-1.1,0.7-1.7
					c0.2-1-0.2-1.9-1-2.2c-0.9-0.4-1.8-0.2-2.3,0.7c-1.8,3-3.4,5.9-4.4,9.2c0,0.2-0.1,0.3-0.1,0.4c-4.5,0.9-7.5,3.5-10,7.7
					c-0.6,1-1.4,2.7-2.1,4c-1.4,3.1-4,9.7-4.5,15C400.3,326.3,400.2,329.2,401.4,332.2z M418.8,331.8c1-0.7,2.1-1.3,3.3-1.5
					c0.7-0.1,1.1,0.3,1.2,0.9c0.1,1.1,0.2,2.3,0.1,3.5c-0.1,0.4-0.4,0.7-0.9,0.6c-1.5-0.3-2.9-1-3.9-2.2
					C418.4,332.7,418.5,332.1,418.8,331.8z M405.5,323.2c0.3-4,1.4-8.2,3.1-11.3l0,0c0.9-2.2,2.1-4,3.4-6.3c1.5-2.8,3.9-4.3,7.2-4.2
					c1.1,0.1,2.1,0.4,3,1.1c2.3,1.8,4.4,3.8,6,6.2c0.8,1.3,1.8,2.5,2.8,3.7c2.4,2.8,5.5,4.4,9.4,4.2c1.5-0.1,3-0.2,4.4-0.3
					c0.9-0.1,1.8-0.1,2.7,0c2.5,0.3,4.1,2.2,3.9,4.8c-0.3,4.2-1.7,8-4.3,11.2c-4.6,5.6-10.4,9.8-16.9,12.9c-0.2,0.1-0.6,0.1-0.8,0.2
					c-0.8,0.2-1.7-0.4-1.7-1.2l0,0c0-2.1-0.1-4.2,0-6.3c0.2-2.7,0.4-5.4,0-8.2c-0.4-2.8-2.1-4.1-4.9-4c-2,0.1-3.8,0.7-5.4,1.8
					c-1.7,1.1-3.3,2.2-5,3.3c-1.4,0.9-3,1.5-4.8,1.8c-1.1,0.1-2.2-0.6-2.4-1.7c0-0.1,0-0.1,0-0.2
					C404.8,328.1,405.3,325.7,405.5,323.2z"/>
			</g>
			<g>
				<path class="st1" d="M355.9,313.2c1.2,1.3,0,2.8-1.3,3c-0.4,0.1-0.9,0-1.4-0.1c-1.9-0.3-3.2,0.4-4.1,2c-0.2,0.3-0.3,0.7-0.6,0.9
					c-0.7,1.1-1.5,1.4-2.4,1.1c-1-0.4-1.4-1.3-1-2.7c1-2.9,2.9-4.9,5.9-5.3c1.2-0.2,2.5-0.2,3.7,0.2
					C355.1,312.4,355.7,312.9,355.9,313.2z"/>
				<path class="st1" d="M328.3,324.6c0.4-0.3,2.7-1.3,3.2-1.4c0.9-0.1,1-0.2,2-0.2c1.3-0.1,2.2,0.8,2.2,2c0,1.1-0.7,2-2,2
					c-2.5,0-4.1,1.4-5.2,3.5c-0.1,0.3-0.3,0.7-0.6,0.9c-0.6,0.7-1.3,0.8-2.1,0.4c-0.7-0.2-1.2-0.8-1.2-1.5c0-0.7,0.1-1.3,0.4-1.9
					C326,326.7,326.5,325.9,328.3,324.6z"/>
				<path class="st1" d="M367.3,323.2c-0.6-5.3-3.1-11.9-4.5-15c-0.7-1.3-1.5-3-2.1-4c-2.4-4.2-5.4-6.9-10-7.7
					c0-0.1-0.1-0.2-0.1-0.4c-1-3.3-2.7-6.2-4.4-9.2c-0.6-0.9-1.4-1.1-2.3-0.7c-0.8,0.3-1.2,1.2-1,2.2c0.1,0.6,0.4,1.1,0.7,1.7
					c0.9,1.8,1.8,3.4,2.7,5.1c0.2,0.3,0.4,0.8,0.7,1.1c-1.5,0.2-3,0.8-4.4,1.8c-0.8-1.8-1.7-3.4-2.5-5.1c-0.4-0.9-1.2-1.7-2-2.4
					c-0.6-0.6-1.4-0.6-2.1,0c-0.7,0.6-0.9,1.2-0.7,2c0.1,0.3,0.3,0.7,0.4,0.9c0.7,1.1,1.4,2.3,2.1,3.4c0.7,1.1,1.2,2.3,1.9,3.5
					c-1.4,1.3-2.8,2.7-3.9,4.3c-1.2-3.3-3-6.4-4.9-9.5c-0.1-0.1-0.2-0.3-0.3-0.4c-0.4-0.6-1-0.8-1.8-0.6c-0.8,0.3-1.1,0.9-1,1.7
					c0.1,0.7,0.3,1.2,0.7,1.8c1.3,2.5,2.5,5.1,3.9,7.6c0.4,0.8,0.8,1.4,1.2,2.2c-0.1,0.2-0.3,0.3-0.4,0.6c-0.9,1.2-2,2-3.2,2.5
					c-0.1-0.2-0.2-0.4-0.3-0.6c-1.3-2.4-2.7-4.9-4-7.4c-0.7-1.2-1.2-2.5-1.9-3.8c-0.4-0.8-1-1.1-1.9-0.9c-0.8,0.2-1.2,1-1.1,2
					c0.2,0.8,0.4,1.5,0.8,2.3c1.1,2.2,2.2,4.5,3.4,6.7c0.4,0.8,0.9,1.4,1.4,2.1c0,0,0,0-0.1,0c-1.8-0.2-3.5-0.3-5.3-0.3
					c-1-2.1-1.9-4.1-2.9-6.2c-0.3-0.8-0.7-1.4-1.1-2.2c-0.3-0.7-0.9-0.9-1.7-0.8c-0.8,0.1-1.1,0.7-1.1,1.3s0,1.4,0.3,2
					c0.9,2.1,1.9,4.2,2.9,6.2c-1.2,0.4-2.3,1-3.3,1.9c-1-2.5-2.3-4.9-3.8-7.1c-0.6-0.9-1.4-1.1-2.3-0.7c-0.8,0.3-1.2,1.2-1,2.2
					c0.1,0.6,0.4,1.1,0.7,1.7c0.9,1.8,1.8,3.4,2.7,5.1c0.3,0.7,0.8,1.3,1.2,2l0,0c-0.4,0.8-0.7,1.7-0.7,2.5c0,3.5,0.8,6.9,2.2,10.1
					c1.8,3.9,4.4,7.1,7.5,10.1c4.1,4,8.6,7.2,13.7,9.7c1.7,0.8,3.3,1.4,5.2,1.7c2.2,0.1,3.3-0.6,4-2.5c0.3-1,0.6-2.1,0.7-3.1
					c0.2-1.8,0.2-3.4,0.3-5.3c0,0,0,0,0-0.1c3-0.8,6-1.7,7.4-4.6l0,0c0.2,0,0.6,0.1,0.7,0.1c0.3,0.1,0.3,0.1,0.7,0.3
					c2.4,1.4,5.1,2.1,8,2.2c0.2,0,0.4,0,0.6,0c2.8-0.3,4.3-2,4.9-4.9C367.8,329.2,367.7,326.3,367.3,323.2z M349.3,333
					c-1,1.2-2.3,1.9-3.9,2.2c-0.4,0.1-0.8-0.1-0.9-0.6c-0.1-1.2,0-2.4,0.1-3.5c0.1-0.6,0.6-1,1.2-0.9c1.2,0.2,2.3,0.9,3.3,1.5
					C349.5,332.1,349.6,332.7,349.3,333z M362.8,330.6c0,0.1,0,0.1,0,0.2c-0.2,1.1-1.3,1.8-2.4,1.7c-1.8-0.2-3.3-0.9-4.8-1.8
					c-1.7-1.1-3.3-2.2-5-3.3c-1.7-1.1-3.4-1.7-5.4-1.8c-2.8-0.1-4.4,1.2-4.9,4c-0.4,2.8-0.2,5.5,0,8.2c0.1,2.1,0,4.2,0,6.3l0,0
					c0,0.8-0.9,1.4-1.7,1.2c-0.2-0.1-0.6-0.1-0.8-0.2c-6.5-3.1-12.3-7.3-16.9-12.9c-2.7-3.2-4-7-4.3-11.2c-0.2-2.5,1.3-4.4,3.9-4.8
					c0.9-0.1,1.8-0.1,2.7,0c1.4,0.1,2.9,0.2,4.4,0.3c3.9,0.2,7-1.4,9.4-4.2c1-1.1,2-2.3,2.8-3.7c1.5-2.4,3.7-4.4,6-6.2
					c0.9-0.7,1.9-1,3-1.1c3.3-0.1,5.6,1.4,7.2,4.2c1.3,2.3,2.5,4.1,3.4,6.3l0,0c1.7,3.1,2.8,7.3,3.1,11.3
					C362.7,325.7,363.2,328.1,362.8,330.6z"/>
			</g>
		</g>
		<g>
			<g>
				<path class="st1" d="M413.4,213.1c1.1-0.4,2.4-0.4,3.7-0.2c3,0.4,4.9,2.4,5.9,5.3c0.4,1.3,0,2.2-1,2.7c-0.9,0.3-1.8,0-2.4-1.1
					c-0.2-0.2-0.3-0.6-0.6-0.9c-0.9-1.5-2.2-2.3-4.1-2c-0.6,0.1-1,0.2-1.4,0.1c-1.3-0.2-2.5-1.7-1.3-3
					C412.3,213.6,412.9,213.2,413.4,213.1z"/>
				<path class="st1" d="M442.9,229.1c0.3,0.6,0.4,1.2,0.4,1.9c0,0.8-0.6,1.3-1.2,1.5c-0.8,0.3-1.5,0.2-2.1-0.4
					c-0.2-0.2-0.4-0.6-0.6-0.9c-1.1-2.1-2.7-3.5-5.2-3.5c-1.3,0-2-0.9-2-2c0-1.2,0.9-2.1,2.2-2c1,0,1.1,0.1,2,0.2
					c0.6,0.1,2.8,1.1,3.2,1.4C441.5,226.7,442,227.5,442.9,229.1z"/>
				<path class="st1" d="M401.4,233c0.6,2.9,2.1,4.5,4.9,4.9c0.1,0,0.3,0,0.6,0c2.9-0.1,5.5-0.8,8-2.2c0.3-0.2,0.3-0.2,0.7-0.3
					c0.1,0,0.4-0.1,0.7-0.1l0,0c1.4,3,4.4,3.9,7.4,4.6c0,0.1,0,0.1,0,0.1c0.1,1.9,0.1,3.5,0.3,5.3c0.1,1,0.3,2.1,0.7,3.1
					c0.7,2,1.8,2.7,4,2.5c1.9-0.2,3.5-0.9,5.2-1.7c5.1-2.5,9.6-5.8,13.7-9.7c3.1-3,5.8-6.2,7.5-10.1c1.4-3.2,2.2-6.5,2.2-10.1
					c0-0.9-0.2-1.8-0.7-2.5l0,0c0.4-0.7,0.9-1.3,1.2-2c0.9-1.7,1.8-3.3,2.7-5.1c0.2-0.6,0.6-1.1,0.7-1.7c0.2-1-0.2-1.9-1-2.2
					c-0.9-0.4-1.8-0.2-2.3,0.7c-1.4,2.2-2.8,4.5-3.8,7.1c-1-0.9-2.1-1.4-3.3-1.9c1-2,2-4.1,2.9-6.2c0.3-0.6,0.3-1.3,0.3-2
					s-0.3-1.2-1.1-1.3c-0.8-0.1-1.3,0.1-1.7,0.8c-0.4,0.8-0.8,1.4-1.1,2.2c-1,2.1-1.9,4.1-2.9,6.2c-1.8,0-3.5,0.1-5.3,0.3
					c-0.1,0-0.1,0-0.1,0c0.6-0.7,1-1.3,1.4-2.1c1.2-2.2,2.3-4.5,3.4-6.7c0.3-0.8,0.6-1.5,0.8-2.3c0.1-1-0.3-1.8-1.1-2
					c-0.9-0.2-1.4,0.1-1.9,0.9c-0.7,1.2-1.2,2.5-1.9,3.8c-1.3,2.5-2.7,5-4,7.4c-0.1,0.1-0.2,0.3-0.3,0.6c-1.2-0.6-2.3-1.3-3.2-2.5
					c-0.1-0.2-0.3-0.3-0.4-0.6c0.4-0.8,0.8-1.4,1.2-2.2c1.3-2.5,2.5-5.1,3.9-7.6c0.3-0.6,0.6-1.1,0.7-1.8c0.1-0.8-0.2-1.3-1-1.7
					c-0.8-0.2-1.3,0-1.8,0.6c-0.1,0.1-0.2,0.3-0.3,0.4c-1.9,3.1-3.7,6.2-4.9,9.5c-1.1-1.7-2.4-3-3.9-4.3c0.7-1.2,1.2-2.4,1.9-3.5
					c0.7-1.1,1.4-2.3,2.1-3.4c0.1-0.2,0.3-0.6,0.4-0.9c0.2-0.8,0-1.4-0.7-2s-1.5-0.6-2.1,0c-0.8,0.8-1.5,1.5-2,2.4
					c-0.9,1.7-1.8,3.3-2.5,5.1c-1.4-1-2.9-1.5-4.4-1.8c0.2-0.3,0.4-0.8,0.7-1.1c0.9-1.7,1.8-3.3,2.7-5.1c0.2-0.6,0.6-1.1,0.7-1.7
					c0.2-1-0.2-1.9-1-2.2c-0.9-0.4-1.8-0.2-2.3,0.7c-1.8,3-3.4,5.9-4.4,9.2c0,0.2-0.1,0.3-0.1,0.4c-4.5,0.9-7.5,3.5-10,7.7
					c-0.6,1-1.4,2.7-2.1,4c-1.4,3.1-4,9.7-4.5,15C400.3,227,400.2,230,401.4,233z M418.8,232.5c1-0.7,2.1-1.3,3.3-1.5
					c0.7-0.1,1.1,0.3,1.2,0.9c0.1,1.1,0.2,2.3,0.1,3.5c-0.1,0.4-0.4,0.7-0.9,0.6c-1.5-0.3-2.9-1-3.9-2.2
					C418.4,233.4,418.5,232.9,418.8,232.5z M405.5,223.9c0.3-4,1.4-8.2,3.1-11.3l0,0c0.9-2.2,2.1-4,3.4-6.3c1.5-2.8,3.9-4.3,7.2-4.2
					c1.1,0.1,2.1,0.4,3,1.1c2.3,1.8,4.4,3.8,6,6.2c0.8,1.3,1.8,2.5,2.8,3.7c2.4,2.8,5.5,4.4,9.4,4.2c1.5-0.1,3-0.2,4.4-0.3
					c0.9-0.1,1.8-0.1,2.7,0c2.5,0.3,4.1,2.2,3.9,4.8c-0.3,4.2-1.7,8-4.3,11.2c-4.6,5.6-10.4,9.8-16.9,12.9c-0.2,0.1-0.6,0.1-0.8,0.2
					c-0.8,0.2-1.7-0.4-1.7-1.2l0,0c0-2.1-0.1-4.2,0-6.3c0.2-2.7,0.4-5.4,0-8.2c-0.4-2.8-2.1-4.1-4.9-4c-2,0.1-3.8,0.7-5.4,1.8
					c-1.7,1.1-3.3,2.2-5,3.3c-1.4,0.9-3,1.5-4.8,1.8c-1.1,0.1-2.2-0.6-2.4-1.7c0-0.1,0-0.1,0-0.2
					C404.8,228.9,405.3,226.5,405.5,223.9z"/>
			</g>
			<g>
				<path class="st1" d="M355.9,214c1.2,1.3,0,2.8-1.3,3c-0.4,0.1-0.9,0-1.4-0.1c-1.9-0.3-3.2,0.4-4.1,2c-0.2,0.3-0.3,0.7-0.6,0.9
					c-0.7,1.1-1.5,1.4-2.4,1.1c-1-0.4-1.4-1.3-1-2.7c1-2.9,2.9-4.9,5.9-5.3c1.2-0.2,2.5-0.2,3.7,0.2
					C355.1,213.2,355.7,213.6,355.9,214z"/>
				<path class="st1" d="M328.3,225.3c0.4-0.3,2.7-1.3,3.2-1.4c0.9-0.1,1-0.2,2-0.2c1.3-0.1,2.2,0.8,2.2,2c0,1.1-0.7,2-2,2
					c-2.5,0-4.1,1.4-5.2,3.5c-0.1,0.3-0.3,0.7-0.6,0.9c-0.6,0.7-1.3,0.8-2.1,0.4c-0.7-0.2-1.2-0.8-1.2-1.5c0-0.7,0.1-1.3,0.4-1.9
					C326,227.5,326.5,226.7,328.3,225.3z"/>
				<path class="st1" d="M367.3,223.9c-0.6-5.3-3.1-11.9-4.5-15c-0.7-1.3-1.5-3-2.1-4c-2.4-4.2-5.4-6.9-10-7.7
					c0-0.1-0.1-0.2-0.1-0.4c-1-3.3-2.7-6.2-4.4-9.2c-0.6-0.9-1.4-1.1-2.3-0.7c-0.8,0.3-1.2,1.2-1,2.2c0.1,0.6,0.4,1.1,0.7,1.7
					c0.9,1.8,1.8,3.4,2.7,5.1c0.2,0.3,0.4,0.8,0.7,1.1c-1.5,0.2-3,0.8-4.4,1.8c-0.8-1.8-1.7-3.4-2.5-5.1c-0.4-0.9-1.2-1.7-2-2.4
					c-0.6-0.6-1.4-0.6-2.1,0s-0.9,1.2-0.7,2c0.1,0.3,0.3,0.7,0.4,0.9c0.7,1.1,1.4,2.3,2.1,3.4c0.7,1.1,1.2,2.3,1.9,3.5
					c-1.4,1.3-2.8,2.7-3.9,4.3c-1.2-3.3-3-6.4-4.9-9.5c-0.1-0.1-0.2-0.3-0.3-0.4c-0.4-0.6-1-0.8-1.8-0.6c-0.8,0.3-1.1,0.9-1,1.7
					c0.1,0.7,0.3,1.2,0.7,1.8c1.3,2.5,2.5,5.1,3.9,7.6c0.4,0.8,0.8,1.4,1.2,2.2c-0.1,0.2-0.3,0.3-0.4,0.6c-0.9,1.2-2,2-3.2,2.5
					c-0.1-0.2-0.2-0.4-0.3-0.6c-1.3-2.4-2.7-4.9-4-7.4c-0.7-1.2-1.2-2.5-1.9-3.8c-0.4-0.8-1-1.1-1.9-0.9c-0.8,0.2-1.2,1-1.1,2
					c0.2,0.8,0.4,1.5,0.8,2.3c1.1,2.2,2.2,4.5,3.4,6.7c0.4,0.8,0.9,1.4,1.4,2.1c0,0,0,0-0.1,0c-1.8-0.2-3.5-0.3-5.3-0.3
					c-1-2.1-1.9-4.1-2.9-6.2c-0.3-0.8-0.7-1.4-1.1-2.2c-0.3-0.7-0.9-0.9-1.7-0.8c-0.8,0.1-1.1,0.7-1.1,1.3s0,1.4,0.3,2
					c0.9,2.1,1.9,4.2,2.9,6.2c-1.2,0.4-2.3,1-3.3,1.9c-1-2.5-2.3-4.9-3.8-7.1c-0.6-0.9-1.4-1.1-2.3-0.7c-0.8,0.3-1.2,1.2-1,2.2
					c0.1,0.6,0.4,1.1,0.7,1.7c0.9,1.8,1.8,3.4,2.7,5.1c0.3,0.7,0.8,1.3,1.2,2l0,0c-0.4,0.8-0.7,1.7-0.7,2.5c0,3.5,0.8,6.9,2.2,10.1
					c1.8,3.9,4.4,7.1,7.5,10.1c4.1,4,8.6,7.2,13.7,9.7c1.7,0.8,3.3,1.4,5.2,1.7c2.2,0.1,3.3-0.6,4-2.5c0.3-1,0.6-2.1,0.7-3.1
					c0.2-1.8,0.2-3.4,0.3-5.3c0,0,0,0,0-0.1c3-0.8,6-1.7,7.4-4.6l0,0c0.2,0,0.6,0.1,0.7,0.1c0.3,0.1,0.3,0.1,0.7,0.3
					c2.4,1.4,5.1,2.1,8,2.2c0.2,0,0.4,0,0.6,0c2.8-0.3,4.3-2,4.9-4.9C367.8,230,367.7,227,367.3,223.9z M349.3,233.8
					c-1,1.2-2.3,1.9-3.9,2.2c-0.4,0.1-0.8-0.1-0.9-0.6c-0.1-1.2,0-2.4,0.1-3.5c0.1-0.6,0.6-1,1.2-0.9c1.2,0.2,2.3,0.9,3.3,1.5
					C349.5,232.9,349.6,233.4,349.3,233.8z M362.8,231.3c0,0.1,0,0.1,0,0.2c-0.2,1.1-1.3,1.8-2.4,1.7c-1.8-0.2-3.3-0.9-4.8-1.8
					c-1.7-1.1-3.3-2.2-5-3.3c-1.7-1.1-3.4-1.7-5.4-1.8c-2.8-0.1-4.4,1.2-4.9,4c-0.4,2.8-0.2,5.5,0,8.2c0.1,2.1,0,4.2,0,6.3l0,0
					c0,0.8-0.9,1.4-1.7,1.2c-0.2-0.1-0.6-0.1-0.8-0.2c-6.5-3.1-12.3-7.3-16.9-12.9c-2.7-3.2-4-7-4.3-11.2c-0.2-2.5,1.3-4.4,3.9-4.8
					c0.9-0.1,1.8-0.1,2.7,0c1.4,0.1,2.9,0.2,4.4,0.3c3.9,0.2,7-1.4,9.4-4.2c1-1.1,2-2.3,2.8-3.7c1.5-2.4,3.7-4.4,6-6.2
					c0.9-0.7,1.9-1,3-1.1c3.3-0.1,5.6,1.4,7.2,4.2c1.3,2.3,2.5,4.1,3.4,6.3l0,0c1.7,3.1,2.8,7.3,3.1,11.3
					C362.7,226.5,363.2,228.9,362.8,231.3z"/>
			</g>
		</g>
		<g>
			<g>
				<path class="st1" d="M413.4,113.8c1.1-0.4,2.4-0.4,3.7-0.2c3,0.4,4.9,2.4,5.9,5.3c0.4,1.3,0,2.2-1,2.7c-0.9,0.3-1.8,0-2.4-1.1
					c-0.2-0.2-0.3-0.6-0.6-0.9c-0.9-1.5-2.2-2.3-4.1-2c-0.6,0.1-1,0.2-1.4,0.1c-1.3-0.2-2.5-1.7-1.3-3
					C412.3,114.4,412.9,113.9,413.4,113.8z"/>
				<path class="st1" d="M442.9,129.9c0.3,0.6,0.4,1.2,0.4,1.9c0,0.8-0.6,1.3-1.2,1.5c-0.8,0.3-1.5,0.2-2.1-0.4
					c-0.2-0.2-0.4-0.6-0.6-0.9c-1.1-2.1-2.7-3.5-5.2-3.5c-1.3,0-2-0.9-2-2c0-1.2,0.9-2.1,2.2-2c1,0,1.1,0.1,2,0.2
					c0.6,0.1,2.8,1.1,3.2,1.4C441.5,127.4,442,128.2,442.9,129.9z"/>
				<path class="st1" d="M401.4,133.7c0.6,2.9,2.1,4.5,4.9,4.9c0.1,0,0.3,0,0.6,0c2.9-0.1,5.5-0.8,8-2.2c0.3-0.2,0.3-0.2,0.7-0.3
					c0.1,0,0.4-0.1,0.7-0.1l0,0c1.4,3,4.4,3.9,7.4,4.6c0,0.1,0,0.1,0,0.1c0.1,1.9,0.1,3.5,0.3,5.3c0.1,1,0.3,2.1,0.7,3.1
					c0.7,2,1.8,2.7,4,2.5c1.9-0.2,3.5-0.9,5.2-1.7c5.1-2.5,9.6-5.8,13.7-9.7c3.1-3,5.8-6.2,7.5-10.1c1.4-3.2,2.2-6.5,2.2-10.1
					c0-0.9-0.2-1.8-0.7-2.5l0,0c0.4-0.7,0.9-1.3,1.2-2c0.9-1.7,1.8-3.3,2.7-5.1c0.2-0.6,0.6-1.1,0.7-1.7c0.2-1-0.2-1.9-1-2.2
					c-0.9-0.4-1.8-0.2-2.3,0.7c-1.4,2.2-2.8,4.5-3.8,7.1c-1-0.9-2.1-1.4-3.3-1.9c1-2,2-4.1,2.9-6.2c0.3-0.6,0.3-1.3,0.3-2
					s-0.3-1.2-1.1-1.3c-0.8-0.1-1.3,0.1-1.7,0.8c-0.4,0.8-0.8,1.4-1.1,2.2c-1,2.1-1.9,4.1-2.9,6.2c-1.8,0-3.5,0.1-5.3,0.3
					c-0.1,0-0.1,0-0.1,0c0.6-0.7,1-1.3,1.4-2.1c1.2-2.2,2.3-4.5,3.4-6.7c0.3-0.8,0.6-1.5,0.8-2.3c0.1-1-0.3-1.8-1.1-2
					c-0.9-0.2-1.4,0.1-1.9,0.9c-0.7,1.2-1.2,2.5-1.9,3.8c-1.3,2.5-2.7,5-4,7.4c-0.1,0.1-0.2,0.3-0.3,0.6c-1.2-0.6-2.3-1.3-3.2-2.5
					c-0.1-0.2-0.3-0.3-0.4-0.6c0.4-0.8,0.8-1.4,1.2-2.2c1.3-2.5,2.5-5.1,3.9-7.6c0.3-0.6,0.6-1.1,0.7-1.8c0.1-0.8-0.2-1.3-1-1.7
					c-0.8-0.2-1.3,0-1.8,0.6c-0.1,0.1-0.2,0.3-0.3,0.4c-1.9,3.1-3.7,6.2-4.9,9.5c-1.1-1.7-2.4-3-3.9-4.3c0.7-1.2,1.2-2.4,1.9-3.5
					c0.7-1.1,1.4-2.3,2.1-3.4c0.1-0.2,0.3-0.6,0.4-0.9c0.2-0.8,0-1.4-0.7-2s-1.5-0.6-2.1,0c-0.8,0.8-1.5,1.5-2,2.4
					c-0.9,1.7-1.8,3.3-2.5,5.1c-1.4-1-2.9-1.5-4.4-1.8c0.2-0.3,0.4-0.8,0.7-1.1c0.9-1.7,1.8-3.3,2.7-5.1c0.2-0.6,0.6-1.1,0.7-1.7
					c0.2-1-0.2-1.9-1-2.2c-0.9-0.4-1.8-0.2-2.3,0.7c-1.8,3-3.4,5.9-4.4,9.2c0,0.2-0.1,0.3-0.1,0.4c-4.5,0.9-7.5,3.5-10,7.7
					c-0.6,1-1.4,2.7-2.1,4c-1.4,3.1-4,9.7-4.5,15C400.3,127.8,400.2,130.8,401.4,133.7z M418.8,133.3c1-0.7,2.1-1.3,3.3-1.5
					c0.7-0.1,1.1,0.3,1.2,0.9c0.1,1.1,0.2,2.3,0.1,3.5c-0.1,0.4-0.4,0.7-0.9,0.6c-1.5-0.3-2.9-1-3.9-2.2
					C418.4,134.2,418.5,133.6,418.8,133.3z M405.5,124.7c0.3-4,1.4-8.2,3.1-11.3l0,0c0.9-2.2,2.1-4,3.4-6.3c1.5-2.8,3.9-4.3,7.2-4.2
					c1.1,0.1,2.1,0.4,3,1.1c2.3,1.8,4.4,3.8,6,6.2c0.8,1.3,1.8,2.5,2.8,3.7c2.4,2.8,5.5,4.4,9.4,4.2c1.5-0.1,3-0.2,4.4-0.3
					c0.9-0.1,1.8-0.1,2.7,0c2.5,0.3,4.1,2.2,3.9,4.8c-0.3,4.2-1.7,8-4.3,11.2c-4.6,5.6-10.4,9.8-16.9,12.9c-0.2,0.1-0.6,0.1-0.8,0.2
					c-0.8,0.2-1.7-0.4-1.7-1.2l0,0c0-2.1-0.1-4.2,0-6.3c0.2-2.7,0.4-5.4,0-8.2c-0.4-2.8-2.1-4.1-4.9-4c-2,0.1-3.8,0.7-5.4,1.8
					c-1.7,1.1-3.3,2.2-5,3.3c-1.4,0.9-3,1.5-4.8,1.8c-1.1,0.1-2.2-0.6-2.4-1.7c0-0.1,0-0.1,0-0.2
					C404.8,129.6,405.3,127.2,405.5,124.7z"/>
			</g>
			<g>
				<path class="st1" d="M355.9,114.7c1.2,1.3,0,2.8-1.3,3c-0.4,0.1-0.9,0-1.4-0.1c-1.9-0.3-3.2,0.4-4.1,2c-0.2,0.3-0.3,0.7-0.6,0.9
					c-0.7,1.1-1.5,1.4-2.4,1.1c-1-0.4-1.4-1.3-1-2.7c1-2.9,2.9-4.9,5.9-5.3c1.2-0.2,2.5-0.2,3.7,0.2
					C355.1,113.9,355.7,114.4,355.9,114.7z"/>
				<path class="st1" d="M328.3,126.1c0.4-0.3,2.7-1.3,3.2-1.4c0.9-0.1,1-0.2,2-0.2c1.3-0.1,2.2,0.8,2.2,2c0,1.1-0.7,2-2,2
					c-2.5,0-4.1,1.4-5.2,3.5c-0.1,0.3-0.3,0.7-0.6,0.9c-0.6,0.7-1.3,0.8-2.1,0.4c-0.7-0.2-1.2-0.8-1.2-1.5c0-0.7,0.1-1.3,0.4-1.9
					C326,128.2,326.5,127.4,328.3,126.1z"/>
				<path class="st1" d="M367.3,124.7c-0.6-5.3-3.1-11.9-4.5-15c-0.7-1.3-1.5-3-2.1-4c-2.4-4.2-5.4-6.9-10-7.7
					c0-0.1-0.1-0.2-0.1-0.4c-1-3.3-2.7-6.2-4.4-9.2c-0.6-0.9-1.4-1.1-2.3-0.7c-0.8,0.3-1.2,1.2-1,2.2c0.1,0.6,0.4,1.1,0.7,1.7
					c0.9,1.8,1.8,3.4,2.7,5.1c0.2,0.3,0.4,0.8,0.7,1.1c-1.5,0.2-3,0.8-4.4,1.8c-0.8-1.8-1.7-3.4-2.5-5.1c-0.4-0.9-1.2-1.7-2-2.4
					c-0.6-0.6-1.4-0.6-2.1,0s-0.9,1.2-0.7,2c0.1,0.3,0.3,0.7,0.4,0.9c0.7,1.1,1.4,2.3,2.1,3.4c0.7,1.1,1.2,2.3,1.9,3.5
					c-1.4,1.3-2.8,2.7-3.9,4.3c-1.2-3.3-3-6.4-4.9-9.5c-0.1-0.1-0.2-0.3-0.3-0.4c-0.4-0.6-1-0.8-1.8-0.6c-0.8,0.3-1.1,0.9-1,1.7
					c0.1,0.7,0.3,1.2,0.7,1.8c1.3,2.5,2.5,5.1,3.9,7.6c0.4,0.8,0.8,1.4,1.2,2.2c-0.1,0.2-0.3,0.3-0.4,0.6c-0.9,1.2-2,2-3.2,2.5
					c-0.1-0.2-0.2-0.4-0.3-0.6c-1.3-2.4-2.7-4.9-4-7.4c-0.7-1.2-1.2-2.5-1.9-3.8c-0.4-0.8-1-1.1-1.9-0.9c-0.8,0.2-1.2,1-1.1,2
					c0.2,0.8,0.4,1.5,0.8,2.3c1.1,2.2,2.2,4.5,3.4,6.7c0.4,0.8,0.9,1.4,1.4,2.1c0,0,0,0-0.1,0c-1.8-0.2-3.5-0.3-5.3-0.3
					c-1-2.1-1.9-4.1-2.9-6.2c-0.3-0.8-0.7-1.4-1.1-2.2c-0.3-0.7-0.9-0.9-1.7-0.8c-0.8,0.1-1.1,0.7-1.1,1.3s0,1.4,0.3,2
					c0.9,2.1,1.9,4.2,2.9,6.2c-1.2,0.4-2.3,1-3.3,1.9c-1-2.5-2.3-4.9-3.8-7.1c-0.6-0.9-1.4-1.1-2.3-0.7c-0.8,0.3-1.2,1.2-1,2.2
					c0.1,0.6,0.4,1.1,0.7,1.7c0.9,1.8,1.8,3.4,2.7,5.1c0.3,0.7,0.8,1.3,1.2,2l0,0c-0.4,0.8-0.7,1.7-0.7,2.5c0,3.5,0.8,6.9,2.2,10.1
					c1.8,3.9,4.4,7.1,7.5,10.1c4.1,4,8.6,7.2,13.7,9.7c1.7,0.8,3.3,1.4,5.2,1.7c2.2,0.1,3.3-0.6,4-2.5c0.3-1,0.6-2.1,0.7-3.1
					c0.2-1.8,0.2-3.4,0.3-5.3c0,0,0,0,0-0.1c3-0.8,6-1.7,7.4-4.6l0,0c0.2,0,0.6,0.1,0.7,0.1c0.3,0.1,0.3,0.1,0.7,0.3
					c2.4,1.4,5.1,2.1,8,2.2c0.2,0,0.4,0,0.6,0c2.8-0.3,4.3-2,4.9-4.9C367.8,130.8,367.7,127.8,367.3,124.7z M349.3,134.5
					c-1,1.2-2.3,1.9-3.9,2.2c-0.4,0.1-0.8-0.1-0.9-0.6c-0.1-1.2,0-2.4,0.1-3.5c0.1-0.6,0.6-1,1.2-0.9c1.2,0.2,2.3,0.9,3.3,1.5
					C349.5,133.6,349.6,134.2,349.3,134.5z M362.8,132.1c0,0.1,0,0.1,0,0.2c-0.2,1.1-1.3,1.8-2.4,1.7c-1.8-0.2-3.3-0.9-4.8-1.8
					c-1.7-1.1-3.3-2.2-5-3.3c-1.7-1.1-3.4-1.7-5.4-1.8c-2.8-0.1-4.4,1.2-4.9,4c-0.4,2.8-0.2,5.5,0,8.2c0.1,2.1,0,4.2,0,6.3l0,0
					c0,0.8-0.9,1.4-1.7,1.2c-0.2-0.1-0.6-0.1-0.8-0.2c-6.5-3.1-12.3-7.3-16.9-12.9c-2.7-3.2-4-7-4.3-11.2c-0.2-2.5,1.3-4.4,3.9-4.8
					c0.9-0.1,1.8-0.1,2.7,0c1.4,0.1,2.9,0.2,4.4,0.3c3.9,0.2,7-1.4,9.4-4.2c1-1.1,2-2.3,2.8-3.7c1.5-2.4,3.7-4.4,6-6.2
					c0.9-0.7,1.9-1,3-1.1c3.3-0.1,5.6,1.4,7.2,4.2c1.3,2.3,2.5,4.1,3.4,6.3l0,0c1.7,3.1,2.8,7.3,3.1,11.3
					C362.7,127.2,363.2,129.6,362.8,132.1z"/>
			</g>
		</g>
		<g>
			<path class="st2" d="M413.4,609.9c1.1-0.4,2.4-0.4,3.7-0.2c3,0.4,4.9,2.4,5.9,5.3c0.4,1.3,0,2.2-1,2.7c-0.9,0.3-1.8,0-2.4-1.1
				c-0.2-0.2-0.3-0.6-0.6-0.9c-0.9-1.5-2.2-2.3-4.1-2c-0.6,0.1-1,0.2-1.4,0.1c-1.3-0.2-2.5-1.7-1.3-3
				C412.3,610.4,412.9,610,413.4,609.9z"/>
			<path class="st2" d="M442.9,625.9c0.3,0.6,0.4,1.2,0.4,1.9c0,0.8-0.6,1.3-1.2,1.5c-0.8,0.3-1.5,0.2-2.1-0.4
				c-0.2-0.2-0.4-0.6-0.6-0.9c-1.1-2.1-2.7-3.5-5.2-3.5c-1.3,0-2-0.9-2-2c0-1.2,0.9-2.1,2.2-2c1,0,1.1,0.1,2,0.2
				c0.6,0.1,2.8,1.1,3.2,1.4C441.5,623.5,442,624.3,442.9,625.9z"/>
			<path class="st2" d="M401.4,629.8c0.6,2.9,2.1,4.5,4.9,4.9c0.1,0,0.3,0,0.6,0c2.9-0.1,5.5-0.8,8-2.2c0.3-0.2,0.3-0.2,0.7-0.3
				c0.1,0,0.4-0.1,0.7-0.1l0,0c1.4,3,4.4,3.9,7.4,4.6c0,0.1,0,0.1,0,0.1c0.1,1.9,0.1,3.5,0.3,5.3c0.1,1,0.3,2.1,0.7,3.1
				c0.7,2,1.8,2.7,4,2.5c1.9-0.2,3.5-0.9,5.2-1.7c5.1-2.5,9.6-5.8,13.7-9.7c3.1-3,5.8-6.2,7.5-10.1c1.4-3.2,2.2-6.5,2.2-10.1
				c0-0.9-0.2-1.8-0.7-2.5l0,0c0.4-0.7,0.9-1.3,1.2-2c0.9-1.7,1.8-3.3,2.7-5.1c0.2-0.6,0.6-1.1,0.7-1.7c0.2-1-0.2-1.9-1-2.2
				c-0.9-0.4-1.8-0.2-2.3,0.7c-1.4,2.2-2.8,4.5-3.8,7.1c-1-0.9-2.1-1.4-3.3-1.9c1-2,2-4.1,2.9-6.2c0.3-0.6,0.3-1.3,0.3-2
				c0-0.7-0.3-1.2-1.1-1.3c-0.8-0.1-1.3,0.1-1.7,0.8c-0.4,0.8-0.8,1.4-1.1,2.2c-1,2.1-1.9,4.1-2.9,6.2c-1.8,0-3.5,0.1-5.3,0.3
				c-0.1,0-0.1,0-0.1,0c0.6-0.7,1-1.3,1.4-2.1c1.2-2.2,2.3-4.5,3.4-6.7c0.3-0.8,0.6-1.5,0.8-2.3c0.1-1-0.3-1.8-1.1-2
				c-0.9-0.2-1.4,0.1-1.9,0.9c-0.7,1.2-1.2,2.5-1.9,3.8c-1.3,2.5-2.7,5-4,7.4c-0.1,0.1-0.2,0.3-0.3,0.6c-1.2-0.6-2.3-1.3-3.2-2.5
				c-0.1-0.2-0.3-0.3-0.4-0.6c0.4-0.8,0.8-1.4,1.2-2.2c1.3-2.5,2.5-5.1,3.9-7.6c0.3-0.6,0.6-1.1,0.7-1.8c0.1-0.8-0.2-1.3-1-1.7
				c-0.8-0.2-1.3,0-1.8,0.6c-0.1,0.1-0.2,0.3-0.3,0.4c-1.9,3.1-3.7,6.2-4.9,9.5c-1.1-1.7-2.4-3-3.9-4.3c0.7-1.2,1.2-2.4,1.9-3.5
				c0.7-1.1,1.4-2.3,2.1-3.4c0.1-0.2,0.3-0.6,0.4-0.9c0.2-0.8,0-1.4-0.7-2c-0.7-0.6-1.5-0.6-2.1,0c-0.8,0.8-1.5,1.5-2,2.4
				c-0.9,1.7-1.8,3.3-2.5,5.1c-1.4-1-2.9-1.5-4.4-1.8c0.2-0.3,0.4-0.8,0.7-1.1c0.9-1.7,1.8-3.3,2.7-5.1c0.2-0.6,0.6-1.1,0.7-1.7
				c0.2-1-0.2-1.9-1-2.2c-0.9-0.4-1.8-0.2-2.3,0.7c-1.8,3-3.4,5.9-4.4,9.2c0,0.2-0.1,0.3-0.1,0.4c-4.5,0.9-7.5,3.5-10,7.7
				c-0.6,1-1.4,2.7-2.1,4c-1.4,3.1-4,9.7-4.5,15C400.3,623.8,400.2,626.8,401.4,629.8z M418.8,629.3c1-0.7,2.1-1.3,3.3-1.5
				c0.7-0.1,1.1,0.3,1.2,0.9c0.1,1.1,0.2,2.3,0.1,3.5c-0.1,0.4-0.4,0.7-0.9,0.6c-1.5-0.3-2.9-1-3.9-2.2
				C418.4,630.2,418.5,629.7,418.8,629.3z M405.5,620.7c0.3-4,1.4-8.2,3.1-11.3l0,0c0.9-2.2,2.1-4,3.4-6.3c1.5-2.8,3.9-4.3,7.2-4.2
				c1.1,0.1,2.1,0.4,3,1.1c2.3,1.8,4.4,3.8,6,6.2c0.8,1.3,1.8,2.5,2.8,3.7c2.4,2.8,5.5,4.4,9.4,4.2c1.5-0.1,3-0.2,4.4-0.3
				c0.9-0.1,1.8-0.1,2.7,0c2.5,0.3,4.1,2.2,3.9,4.8c-0.3,4.2-1.7,8-4.3,11.2c-4.6,5.6-10.4,9.8-16.9,12.9c-0.2,0.1-0.6,0.1-0.8,0.2
				c-0.8,0.2-1.7-0.4-1.7-1.2l0,0c0-2.1-0.1-4.2,0-6.3c0.2-2.7,0.4-5.4,0-8.2c-0.4-2.8-2.1-4.1-4.9-4c-2,0.1-3.8,0.7-5.4,1.8
				c-1.7,1.1-3.3,2.2-5,3.3c-1.4,0.9-3,1.5-4.8,1.8c-1.1,0.1-2.2-0.6-2.4-1.7c0-0.1,0-0.1,0-0.2
				C404.8,625.7,405.3,623.3,405.5,620.7z"/>
		</g>
		<g class="st3">
			<path class="st4" d="M402.7,610.8c1.2,1.3,0,2.8-1.3,3c-0.4,0.1-0.9,0-1.4-0.1c-1.9-0.3-3.2,0.4-4.1,2c-0.2,0.3-0.3,0.7-0.6,0.9
				c-0.7,1.1-1.5,1.4-2.4,1.1c-1-0.4-1.4-1.3-1-2.7c1-2.9,2.9-4.9,5.9-5.3c1.2-0.2,2.5-0.2,3.7,0.2
				C401.8,610,402.5,610.4,402.7,610.8z"/>
			<path class="st4" d="M375.1,622.2c0.4-0.3,2.7-1.3,3.2-1.4c0.9-0.1,1-0.2,2-0.2c1.3-0.1,2.2,0.8,2.2,2c0,1.1-0.7,2-2,2
				c-2.5,0-4.1,1.4-5.2,3.5c-0.1,0.3-0.3,0.7-0.6,0.9c-0.6,0.7-1.3,0.8-2.1,0.4c-0.7-0.2-1.2-0.8-1.2-1.5c0-0.7,0.1-1.3,0.4-1.9
				C372.7,624.3,373.3,623.5,375.1,622.2z"/>
			<path class="st4" d="M414.1,620.7c-0.6-5.3-3.1-11.9-4.5-15c-0.7-1.3-1.5-3-2.1-4c-2.4-4.2-5.4-6.9-10-7.7c0-0.1-0.1-0.2-0.1-0.4
				c-1-3.3-2.7-6.2-4.4-9.2c-0.6-0.9-1.4-1.1-2.3-0.7c-0.8,0.3-1.2,1.2-1,2.2c0.1,0.6,0.4,1.1,0.7,1.7c0.9,1.8,1.8,3.4,2.7,5.1
				c0.2,0.3,0.4,0.8,0.7,1.1c-1.5,0.2-3,0.8-4.4,1.8c-0.8-1.8-1.7-3.4-2.5-5.1c-0.4-0.9-1.2-1.7-2-2.4c-0.6-0.6-1.4-0.6-2.1,0
				c-0.7,0.6-0.9,1.2-0.7,2c0.1,0.3,0.3,0.7,0.4,0.9c0.7,1.1,1.4,2.3,2.1,3.4c0.7,1.1,1.2,2.3,1.9,3.5c-1.4,1.3-2.8,2.7-3.9,4.3
				c-1.2-3.3-3-6.4-4.9-9.5c-0.1-0.1-0.2-0.3-0.3-0.4c-0.4-0.6-1-0.8-1.8-0.6c-0.8,0.3-1.1,0.9-1,1.7c0.1,0.7,0.3,1.2,0.7,1.8
				c1.3,2.5,2.5,5.1,3.9,7.6c0.4,0.8,0.8,1.4,1.2,2.2c-0.1,0.2-0.3,0.3-0.4,0.6c-0.9,1.2-2,2-3.2,2.5c-0.1-0.2-0.2-0.4-0.3-0.6
				c-1.3-2.4-2.7-4.9-4-7.4c-0.7-1.2-1.2-2.5-1.9-3.8c-0.4-0.8-1-1.1-1.9-0.9c-0.8,0.2-1.2,1-1.1,2c0.2,0.8,0.4,1.5,0.8,2.3
				c1.1,2.2,2.2,4.5,3.4,6.7c0.4,0.8,0.9,1.4,1.4,2.1c0,0,0,0-0.1,0c-1.8-0.2-3.5-0.3-5.3-0.3c-1-2.1-1.9-4.1-2.9-6.2
				c-0.3-0.8-0.7-1.4-1.1-2.2c-0.3-0.7-0.9-0.9-1.7-0.8c-0.8,0.1-1.1,0.7-1.1,1.3c0,0.7,0,1.4,0.3,2c0.9,2.1,1.9,4.2,2.9,6.2
				c-1.2,0.4-2.3,1-3.3,1.9c-1-2.5-2.3-4.9-3.8-7.1c-0.6-0.9-1.4-1.1-2.3-0.7c-0.8,0.3-1.2,1.2-1,2.2c0.1,0.6,0.4,1.1,0.7,1.7
				c0.9,1.8,1.8,3.4,2.7,5.1c0.3,0.7,0.8,1.3,1.2,2l0,0c-0.4,0.8-0.7,1.7-0.7,2.5c0,3.5,0.8,6.9,2.2,10.1c1.8,3.9,4.4,7.1,7.5,10.1
				c4.1,4,8.6,7.2,13.7,9.7c1.7,0.8,3.3,1.4,5.2,1.7c2.2,0.1,3.3-0.6,4-2.5c0.3-1,0.6-2.1,0.7-3.1c0.2-1.8,0.2-3.4,0.3-5.3
				c0,0,0,0,0-0.1c3-0.8,6-1.7,7.4-4.6l0,0c0.2,0,0.6,0.1,0.7,0.1c0.3,0.1,0.3,0.1,0.7,0.3c2.4,1.4,5.1,2.1,8,2.2c0.2,0,0.4,0,0.6,0
				c2.8-0.3,4.3-2,4.9-4.9C414.6,626.8,414.4,623.8,414.1,620.7z M396.1,630.6c-1,1.2-2.3,1.9-3.9,2.2c-0.4,0.1-0.8-0.1-0.9-0.6
				c-0.1-1.2,0-2.4,0.1-3.5c0.1-0.6,0.6-1,1.2-0.9c1.2,0.2,2.3,0.9,3.3,1.5C396.3,629.7,396.4,630.2,396.1,630.6z M409.6,628.1
				c0,0.1,0,0.1,0,0.2c-0.2,1.1-1.3,1.8-2.4,1.7c-1.8-0.2-3.3-0.9-4.8-1.8c-1.7-1.1-3.3-2.2-5-3.3c-1.7-1.1-3.4-1.7-5.4-1.8
				c-2.8-0.1-4.4,1.2-4.9,4c-0.4,2.8-0.2,5.5,0,8.2c0.1,2.1,0,4.2,0,6.3l0,0c0,0.8-0.9,1.4-1.7,1.2c-0.2-0.1-0.6-0.1-0.8-0.2
				c-6.5-3.1-12.3-7.3-16.9-12.9c-2.7-3.2-4-7-4.3-11.2c-0.2-2.5,1.3-4.4,3.9-4.8c0.9-0.1,1.8-0.1,2.7,0c1.4,0.1,2.9,0.2,4.4,0.3
				c3.9,0.2,7-1.4,9.4-4.2c1-1.1,2-2.3,2.8-3.7c1.5-2.4,3.7-4.4,6-6.2c0.9-0.7,1.9-1,3-1.1c3.3-0.1,5.6,1.4,7.2,4.2
				c1.3,2.3,2.5,4.1,3.4,6.3l0,0c1.7,3.1,2.8,7.3,3.1,11.3C409.5,623.3,410,625.7,409.6,628.1z"/>
		</g>
	</g>
</g>
<g>
	<path d="M230.7,615.6c0-1.3,0.3-2.3,1-3.2c0.6-0.9,1.5-1.3,2.5-1.3h7.3v-7.5c0-1,0.5-1.9,1.4-2.6c0.9-0.8,2.1-1.1,3.4-1.1
		c1.4,0,2.5,0.4,3.4,1.1c0.9,0.8,1.4,1.6,1.4,2.6v7.5h7.2c0.9,0,1.8,0.4,2.5,1.3c0.7,0.9,1.1,2,1.1,3.2c0,1.3-0.4,2.3-1.1,3.2
		c-0.7,0.9-1.6,1.3-2.5,1.3h-7.2v7.6c0,1.1-0.4,2-1.3,2.7c-0.9,0.7-2,1-3.4,1c-1.4,0-2.5-0.3-3.4-1c-0.9-0.7-1.4-1.6-1.4-2.7v-7.6
		h-7.3c-1,0-1.9-0.4-2.5-1.2C231.1,618,230.7,616.9,230.7,615.6z"/>
</g>
<rect x="225.6" y="87.4" class="st5" width="395" height="461.2"/>
<text transform="matrix(1 0 0 1 225.5708 143.4138)" class="st3"><tspan x="0" y="0" class="st6 st7 st8">D</tspan><tspan x="0" y="101.3" class="st6 st7 st8">E</tspan><tspan x="0" y="202.5" class="st6 st7 st8">S</tspan><tspan x="0" y="303.8" class="st6 st7 st8">E</tspan><tspan x="0" y="405" class="st6 st7 st8">T</tspan></text>
<g>
	<path d="M229.6,139.9V92.1c0-0.9,0.5-1.8,1.4-2.5c0.9-0.7,2.2-1.1,3.7-1.1H248c5.6,0,10.1,1.4,13.4,4.3c3.3,2.8,5,7.3,5,13.4v19.4
		c0,6.1-1.7,10.6-5,13.4c-3.3,2.9-7.8,4.3-13.4,4.3h-13.3c-1.5,0-2.7-0.3-3.7-1C230.1,141.7,229.6,140.8,229.6,139.9z M241.3,133.2
		h6.7c4.5,0,6.8-2.5,6.8-7.5v-19.4c0-5-2.3-7.5-6.8-7.5h-6.7V133.2z"/>
	<path d="M229.6,241.1v-47.6c0-1.2,0.5-2,1.5-2.7c1-0.6,2.2-0.9,3.6-0.9h26.7c1.2,0,2,0.5,2.6,1.5c0.6,1,0.9,2.2,0.9,3.5
		c0,1.5-0.3,2.7-0.9,3.7c-0.6,1-1.5,1.5-2.6,1.5h-20.1v12.7h11.3c1.1,0,2,0.5,2.6,1.4c0.6,0.9,0.9,2,0.9,3.2c0,1.2-0.3,2.2-0.9,3.1
		c-0.6,0.9-1.5,1.3-2.6,1.3h-11.3v12.8h20.1c1.1,0,2,0.5,2.6,1.5c0.6,1,0.9,2.2,0.9,3.7c0,1.4-0.3,2.5-0.9,3.5
		c-0.6,1-1.5,1.5-2.6,1.5h-26.7c-1.4,0-2.6-0.3-3.6-0.9C230.1,243.1,229.6,242.2,229.6,241.1z"/>
	<path d="M227,336.9c0-1.4,0.5-2.8,1.5-4.2c1-1.4,2.2-2.1,3.6-2.1c0.8,0,1.6,0.3,2.5,0.9c0.9,0.6,1.8,1.3,2.6,2
		c0.8,0.7,1.9,1.4,3.3,2c1.4,0.6,2.9,0.9,4.4,0.9c1.9,0,3.6-0.4,5.1-1.2c1.4-0.8,2.2-2.1,2.2-3.7c0-1.6-0.8-3.1-2.4-4.3
		c-1.6-1.2-3.6-2.4-5.9-3.4c-2.3-1-4.7-2.2-7-3.5c-2.4-1.3-4.3-3.1-6-5.4c-1.6-2.3-2.4-5.1-2.4-8.4c0-5.3,1.9-9.3,5.6-11.9
		s8.3-3.9,13.6-3.9c1.3,0,2.7,0.1,4.1,0.2s3,0.5,4.8,0.9c1.8,0.4,3.2,1.1,4.4,2.1c1.1,1,1.7,2.2,1.7,3.6c0,1.3-0.4,2.7-1.2,4.1
		c-0.8,1.4-2,2.1-3.4,2.1c-0.6,0-1.9-0.5-3.8-1.4c-2-0.9-4.1-1.4-6.5-1.4c-2.5,0-4.4,0.4-5.6,1.3c-1.3,0.9-1.9,1.9-1.9,3.2
		c0,1.2,0.6,2.2,1.8,3.2c1.2,1,2.6,1.8,4.4,2.4c1.8,0.7,3.7,1.5,5.7,2.6c2.1,1.1,4,2.3,5.7,3.5c1.8,1.3,3.2,3.1,4.4,5.4
		s1.8,4.9,1.8,7.9c0,5.2-1.7,9.2-5.2,12s-8,4.3-13.6,4.3c-4.9,0-9.1-1-12.7-3C228.8,341.7,227,339.4,227,336.9z"/>
	<path d="M229.6,443.6v-47.6c0-1.2,0.5-2,1.5-2.7c1-0.6,2.2-0.9,3.6-0.9h26.7c1.2,0,2,0.5,2.6,1.5c0.6,1,0.9,2.2,0.9,3.5
		c0,1.5-0.3,2.7-0.9,3.7c-0.6,1-1.5,1.5-2.6,1.5h-20.1v12.7h11.3c1.1,0,2,0.5,2.6,1.4c0.6,0.9,0.9,2,0.9,3.2c0,1.2-0.3,2.2-0.9,3.1
		c-0.6,0.9-1.5,1.3-2.6,1.3h-11.3V437h20.1c1.1,0,2,0.5,2.6,1.5c0.6,1,0.9,2.2,0.9,3.7c0,1.4-0.3,2.5-0.9,3.5
		c-0.6,1-1.5,1.5-2.6,1.5h-26.7c-1.4,0-2.6-0.3-3.6-0.9C230.1,445.6,229.6,444.7,229.6,443.6z"/>
	<path d="M226.2,498.6c0-1.4,0.3-2.5,0.9-3.5s1.5-1.5,2.6-1.5h32.4c1.1,0,2,0.5,2.6,1.5c0.6,1,0.9,2.2,0.9,3.5
		c0,1.5-0.3,2.7-0.9,3.7c-0.6,1-1.5,1.5-2.6,1.5h-10.4v41c0,1.2-0.6,2.1-1.7,2.7c-1.2,0.6-2.5,0.9-4.1,0.9c-1.6,0-3-0.3-4.1-0.9
		c-1.2-0.6-1.7-1.5-1.7-2.7v-41h-10.3c-1.1,0-2-0.5-2.6-1.5S226.2,500.1,226.2,498.6z"/>
</g>
<g>
	<path d="M229.1,722.3c0-2.1,0.5-3.6,1.5-4.4c1-0.8,2.6-1.2,4.9-1.2c3.9,0,6,1.2,6.2,3.5c0.1,1,0.2,1.9,0.4,2.5
		c0.1,0.6,0.4,1.4,0.8,2.3c0.4,0.9,1.1,1.6,2.1,2.1c1,0.5,2.3,0.7,3.8,0.7c4.9,0,7.4-2.5,7.4-7.5v-27.4h-7c-1.2,0-2.1-0.5-2.8-1.5
		c-0.7-1-1-2.2-1-3.7c0-1.3,0.3-2.5,1-3.5c0.6-1,1.6-1.5,2.8-1.5h14.2c1.5,0,2.8,0.3,3.9,0.9c1.1,0.6,1.6,1.5,1.6,2.7v34
		c0,6.1-1.8,10.6-5.4,13.4c-3.6,2.9-8.3,4.3-14,4.3c-5.9,0-10.8-1.4-14.6-4.2C231,731,229.1,727.2,229.1,722.3z"/>
	<path d="M278.5,734v-47.6c0-1.1,0.5-2,1.6-2.7c1.1-0.6,2.4-0.9,3.9-0.9h28.8c1.2,0,2.2,0.5,2.8,1.5c0.6,1,1,2.2,1,3.5
		c0,1.5-0.3,2.7-1,3.7c-0.7,1-1.6,1.5-2.8,1.5h-21.7v12.7h12.1c1.2,0,2.1,0.5,2.8,1.4c0.7,0.9,1,2,1,3.2c0,1.2-0.3,2.2-1,3.1
		c-0.6,0.9-1.6,1.3-2.8,1.3h-12.1v12.8h21.7c1.2,0,2.1,0.5,2.8,1.5c0.7,1,1,2.2,1,3.7c0,1.4-0.3,2.5-1,3.5c-0.6,1-1.6,1.5-2.8,1.5
		H284c-1.5,0-2.8-0.3-3.9-0.9C279,736,278.5,735.1,278.5,734z"/>
	<path d="M323.2,734v-47.8c0-0.9,0.5-1.8,1.5-2.5c1-0.7,2.3-1.1,4-1.1H343c6,0,10.9,1.4,14.5,4.3c3.6,2.8,5.4,7.3,5.4,13.4v19.4
		c0,6.1-1.8,10.6-5.4,13.4c-3.6,2.9-8.4,4.3-14.5,4.3h-14.3c-1.6,0-2.9-0.3-4-1C323.7,735.8,323.2,735,323.2,734z M335.8,727.4h7.2
		c4.9,0,7.3-2.5,7.3-7.5v-19.4c0-5-2.4-7.5-7.3-7.5h-7.2V727.4z"/>
	<path d="M372.1,734v-47.6c0-1.1,0.5-2,1.6-2.7c1.1-0.6,2.4-0.9,3.9-0.9h28.8c1.2,0,2.2,0.5,2.8,1.5c0.6,1,1,2.2,1,3.5
		c0,1.5-0.3,2.7-1,3.7c-0.7,1-1.6,1.5-2.8,1.5h-21.7v12.7h12.1c1.2,0,2.1,0.5,2.8,1.4c0.7,0.9,1,2,1,3.2c0,1.2-0.3,2.2-1,3.1
		c-0.6,0.9-1.6,1.3-2.8,1.3h-12.1v12.8h21.7c1.2,0,2.1,0.5,2.8,1.5c0.7,1,1,2.2,1,3.7c0,1.4-0.3,2.5-1,3.5c-0.6,1-1.6,1.5-2.8,1.5
		h-28.8c-1.5,0-2.8-0.3-3.9-0.9C372.6,736,372.1,735.1,372.1,734z"/>
	<path d="M416.8,734v-47.6c0-1.1,0.6-2,1.9-2.7c1.2-0.6,2.7-0.9,4.4-0.9c2.4,0,4.2,0.3,5.4,1c1.2,0.7,2.5,2.3,3.9,4.9l13.1,23.2
		v-25.5c0-1.1,0.6-2,1.9-2.6c1.2-0.6,2.7-0.9,4.4-0.9c1.7,0,3.2,0.3,4.4,0.9c1.2,0.6,1.9,1.5,1.9,2.6V734c0,1.2-0.6,2-1.9,2.7
		c-1.2,0.6-2.7,0.9-4.4,0.9c-3.5,0-5.8-1-7-3.2l-15.4-25.9V734c0,1.2-0.6,2-1.9,2.7c-1.2,0.6-2.7,0.9-4.4,0.9
		c-1.7,0-3.2-0.3-4.4-0.9C417.4,736,416.8,735.1,416.8,734z"/>
</g>
<rect x="226.2" y="682.7" class="st5" width="235" height="203.7"/>
<text transform="matrix(1.0786 0 0 1 226.1704 738.7601)" class="st3 st7 st8 st9">JEDEN</text>
<g>
	<path class="st2" d="M230.4,809.8c0-0.4,0.1-0.7,0.3-0.9l21.6-30.7h-19.7c-0.4,0-0.7-0.1-1-0.4c-0.3-0.2-0.4-0.5-0.4-0.9
		c0-0.4,0.1-0.7,0.4-1c0.3-0.2,0.6-0.4,1.1-0.4h22.4c0.4,0,0.7,0.1,1,0.4c0.3,0.3,0.4,0.6,0.4,1c0,0.3-0.1,0.6-0.2,0.8l-21.7,30.7
		h21.3c0.4,0,0.7,0.1,1,0.4c0.3,0.3,0.4,0.6,0.4,0.9c0,0.4-0.1,0.7-0.4,0.9c-0.3,0.3-0.6,0.4-1,0.4h-24
		C230.9,811,230.4,810.6,230.4,809.8z"/>
	<path class="st2" d="M264.7,797.8v-9.1c0-3.7,1.4-6.9,4.3-9.5c2.9-2.6,6.3-4,10.3-4c4.9,0,8.5,1.9,10.8,5.7v-26.2
		c0-0.8,0.5-1.3,1.5-1.3c0.9,0,1.4,0.4,1.4,1.3v55c0,0.3-0.1,0.7-0.4,0.9c-0.3,0.3-0.6,0.4-1,0.4c-0.4,0-0.7-0.1-1-0.4
		c-0.3-0.3-0.4-0.6-0.4-0.9v-3.9c-0.9,1.6-2.4,3-4.4,4c-2,1.1-4.2,1.7-6.6,1.7c-3.8,0-7.2-1.4-10.1-4.1
		C266.2,804.6,264.7,801.4,264.7,797.8z M267.6,797.8c0,2.9,1.1,5.4,3.4,7.7c2.3,2.3,4.9,3.4,8,3.4c2.9,0,5.5-1,7.8-3
		c2.3-2,3.4-3.7,3.4-5.3v-11.9c0-3.3-1.1-5.9-3.4-7.9c-2.2-2-4.8-3-7.7-3c-3.1,0-5.8,1.1-8,3.3c-2.3,2.2-3.4,4.7-3.4,7.5V797.8z"/>
	<path class="st2" d="M303.4,801.6c0-3.8,1.6-6.3,4.8-7.8c3.2-1.4,7.9-2.1,14-2.1h4.5v-2.1c0-3.2-0.9-6-2.7-8.3s-4.4-3.5-8-3.5
		c-1.5,0-2.8,0.2-4.1,0.5c-1.3,0.3-2.3,0.7-3,1c-0.7,0.3-1.2,0.5-1.4,0.5c-0.4,0-0.8-0.2-1.1-0.5c-0.3-0.3-0.4-0.7-0.4-1
		c0-0.8,1.1-1.5,3.2-2.1c2.1-0.7,4.4-1,6.8-1c4.6,0,8,1.4,10.2,4.1c2.1,2.7,3.2,6.2,3.2,10.3v20.1c0,0.9-0.5,1.3-1.4,1.3
		c-0.4,0-0.8-0.1-1.1-0.4c-0.3-0.3-0.4-0.6-0.4-1v-3.9c-3.6,3.8-7.6,5.7-12.1,5.7c-3.3,0-6.1-0.8-8.1-2.5
		C304.4,807.3,303.4,804.8,303.4,801.6z M306.2,801.6c0,2.4,0.8,4.2,2.3,5.4c1.5,1.2,3.5,1.8,6,1.8c2.9,0,5.7-0.9,8.3-2.9
		c2.6-1.9,3.9-3.7,3.9-5.4v-6.3h-4.4c-2.4,0-4.5,0.1-6.1,0.2c-1.6,0.2-3.3,0.5-5,0.9c-1.7,0.5-2.9,1.2-3.8,2.3
		C306.7,798.7,306.2,800,306.2,801.6z"/>
	<path class="st2" d="M342.3,809.7v-32.8c0-0.8,0.5-1.3,1.4-1.3c1,0,1.5,0.4,1.5,1.3v4c2.4-3.8,6.2-5.7,11.2-5.7h3
		c0.4,0,0.7,0.1,1,0.4c0.3,0.3,0.4,0.6,0.4,0.9c0,0.4-0.1,0.7-0.4,0.9c-0.3,0.3-0.6,0.4-1,0.4h-3c-3,0-5.6,1-7.9,3
		c-2.2,2-3.4,4.6-3.4,7.9v21c0,0.3-0.1,0.7-0.4,0.9c-0.3,0.3-0.6,0.4-1,0.4c-0.4,0-0.7-0.1-1-0.4C342.4,810.3,342.3,810,342.3,809.7
		z"/>
	<path class="st2" d="M369.2,809.7v-32.8c0-0.8,0.5-1.3,1.4-1.3c1,0,1.5,0.4,1.5,1.3v4c2.3-3.8,5.9-5.7,10.8-5.7
		c2.8,0,5.2,0.7,7.3,2.1c2.1,1.4,3.7,3.2,4.8,5.4c1.3-2.4,3.1-4.3,5.3-5.6c2.2-1.3,4.5-1.9,7-1.9c3.6,0,6.7,1.2,9.3,3.7
		c2.6,2.5,3.9,5.7,3.9,9.8v21c0,0.3-0.1,0.7-0.4,0.9c-0.3,0.3-0.6,0.4-1,0.4s-0.7-0.1-1-0.4c-0.3-0.3-0.4-0.6-0.4-0.9v-21
		c0-3.4-1.1-6.1-3.2-8c-2.1-1.9-4.6-2.9-7.3-2.9c-2.9,0-5.4,1-7.6,3c-2.2,2-3.3,4.5-3.3,7.5v21.5c0,0.9-0.5,1.3-1.5,1.3
		c-0.9,0-1.4-0.4-1.4-1.3v-21.4c0-3-1-5.4-3-7.5c-2-2-4.5-3-7.4-3s-5.5,1-7.7,3c-2.2,2-3.3,4.6-3.3,7.9v21c0,0.3-0.1,0.7-0.4,0.9
		c-0.3,0.3-0.6,0.4-1,0.4c-0.4,0-0.7-0.1-1-0.4C369.4,810.3,369.2,810,369.2,809.7z"/>
	<path class="st2" d="M430.6,801.6c0-3.8,1.6-6.3,4.8-7.8c3.2-1.4,7.9-2.1,14-2.1h4.5v-2.1c0-3.2-0.9-6-2.7-8.3s-4.4-3.5-8-3.5
		c-1.5,0-2.8,0.2-4.1,0.5c-1.3,0.3-2.3,0.7-3,1c-0.7,0.3-1.2,0.5-1.4,0.5c-0.4,0-0.8-0.2-1.1-0.5s-0.4-0.7-0.4-1
		c0-0.8,1.1-1.5,3.2-2.1c2.1-0.7,4.4-1,6.8-1c4.6,0,8,1.4,10.2,4.1c2.1,2.7,3.2,6.2,3.2,10.3v20.1c0,0.9-0.5,1.3-1.4,1.3
		c-0.4,0-0.8-0.1-1.1-0.4c-0.3-0.3-0.4-0.6-0.4-1v-3.9c-3.6,3.8-7.6,5.7-12.1,5.7c-3.3,0-6.1-0.8-8.1-2.5
		C431.7,807.3,430.6,804.8,430.6,801.6z M433.5,801.6c0,2.4,0.8,4.2,2.3,5.4c1.5,1.2,3.5,1.8,6,1.8c2.9,0,5.7-0.9,8.3-2.9
		c2.6-1.9,3.9-3.7,3.9-5.4v-6.3h-4.4c-2.4,0-4.5,0.1-6.1,0.2s-3.3,0.5-5,0.9c-1.7,0.5-2.9,1.2-3.8,2.3
		C433.9,798.7,433.5,800,433.5,801.6z"/>
</g>
<g>
	<path d="M484.8,684.1c0-0.3,0.2-0.4,0.5-0.4c0.3,0,0.4,0.1,0.5,0.3l5.4,16.2l5.4-16.2c0.1-0.2,0.2-0.3,0.4-0.3c0.1,0,0.3,0,0.4,0.1
		c0.1,0.1,0.2,0.2,0.2,0.3c0,0,0,0,0,0.1c0,0,0,0,0,0.1l-5.8,17.5c-0.1,0.2-0.3,0.4-0.5,0.4s-0.4-0.1-0.5-0.4l-5.8-17.5
		C484.8,684.2,484.8,684.1,484.8,684.1z"/>
	<path d="M498.2,701.5c0-0.1,0-0.2,0.1-0.3l7.2-10.2h-6.6c-0.1,0-0.2,0-0.3-0.1s-0.1-0.2-0.1-0.3c0-0.1,0-0.2,0.1-0.3
		s0.2-0.1,0.4-0.1h7.5c0.1,0,0.2,0,0.3,0.1c0.1,0.1,0.1,0.2,0.1,0.3c0,0.1,0,0.2-0.1,0.3l-7.2,10.2h7.1c0.1,0,0.2,0,0.3,0.1
		c0.1,0.1,0.1,0.2,0.1,0.3s0,0.2-0.1,0.3c-0.1,0.1-0.2,0.1-0.3,0.1h-8C498.3,701.9,498.2,701.8,498.2,701.5z"/>
	<path d="M509.6,698.5v-13.7c0-0.1,0-0.2,0.1-0.3c0.1-0.1,0.2-0.1,0.3-0.1c0.1,0,0.2,0,0.3,0.1c0.1,0.1,0.1,0.2,0.1,0.3v5.4h3.6
		c0.1,0,0.2,0,0.3,0.1c0.1,0.1,0.1,0.2,0.1,0.3c0,0.1,0,0.2-0.1,0.3c-0.1,0.1-0.2,0.1-0.3,0.1h-3.6v7.5c0,0.9,0.2,1.6,0.7,2
		c0.4,0.4,1.2,0.6,2.3,0.6h0.6c0.1,0,0.2,0,0.3,0.1c0.1,0.1,0.1,0.2,0.1,0.3c0,0.1,0,0.2-0.1,0.3c-0.1,0.1-0.2,0.1-0.3,0.1h-0.6
		C510.9,701.9,509.6,700.8,509.6,698.5z"/>
	<path d="M516.1,698.8c0-1.3,0.5-2.1,1.6-2.6c1.1-0.5,2.6-0.7,4.7-0.7h1.5v-0.7c0-1.1-0.3-2-0.9-2.8c-0.6-0.8-1.5-1.2-2.7-1.2
		c-0.5,0-0.9,0.1-1.4,0.2c-0.4,0.1-0.8,0.2-1,0.3c-0.2,0.1-0.4,0.2-0.5,0.2c-0.1,0-0.3-0.1-0.4-0.2c-0.1-0.1-0.1-0.2-0.1-0.3
		c0-0.3,0.4-0.5,1.1-0.7c0.7-0.2,1.5-0.3,2.3-0.3c1.5,0,2.7,0.5,3.4,1.4c0.7,0.9,1.1,2.1,1.1,3.4v6.7c0,0.3-0.2,0.5-0.5,0.5
		c-0.1,0-0.3,0-0.4-0.1c-0.1-0.1-0.1-0.2-0.1-0.3v-1.3c-1.2,1.3-2.5,1.9-4,1.9c-1.1,0-2-0.3-2.7-0.8
		C516.5,700.7,516.1,699.9,516.1,698.8z M517.1,698.8c0,0.8,0.3,1.4,0.8,1.8c0.5,0.4,1.2,0.6,2,0.6c1,0,1.9-0.3,2.8-1
		s1.3-1.2,1.3-1.8v-2.1h-1.5c-0.8,0-1.5,0-2,0.1c-0.5,0-1.1,0.2-1.7,0.3c-0.6,0.2-1,0.4-1.3,0.8
		C517.2,697.8,517.1,698.3,517.1,698.8z"/>
	<path d="M528.5,701.5v-18.3c0-0.3,0.2-0.4,0.5-0.4c0.3,0,0.5,0.1,0.5,0.4v8.7c0.8-1.3,2-1.9,3.6-1.9c1.3,0,2.5,0.4,3.4,1.3
		c1,0.9,1.4,1.9,1.4,3.2v7c0,0.3-0.2,0.5-0.5,0.5c-0.3,0-0.5-0.2-0.5-0.5v-7c0-0.9-0.4-1.8-1.1-2.5c-0.8-0.7-1.7-1.1-2.7-1.1
		c-1,0-1.8,0.3-2.6,1c-0.7,0.7-1.1,1.5-1.1,2.6v7c0,0.1,0,0.2-0.1,0.3c-0.1,0.1-0.2,0.1-0.3,0.1c-0.1,0-0.2,0-0.3-0.1
		C528.5,701.7,528.5,701.6,528.5,701.5z"/>
	<path d="M541.3,697.6v-7c0-0.1,0-0.2,0.1-0.3s0.2-0.1,0.3-0.1s0.2,0,0.3,0.1c0.1,0.1,0.1,0.2,0.1,0.3v7c0,0.9,0.4,1.8,1.1,2.5
		s1.7,1.1,2.7,1.1c1,0,1.9-0.4,2.7-1.1s1.1-1.6,1.1-2.5v-7c0-0.1,0-0.2,0.1-0.3c0.1-0.1,0.2-0.1,0.3-0.1s0.2,0,0.3,0.1
		s0.1,0.2,0.1,0.3v7c0,1.2-0.5,2.3-1.4,3.1c-0.9,0.9-2.1,1.4-3.4,1.4c-1.3,0-2.4-0.5-3.4-1.4C541.8,699.8,541.3,698.8,541.3,697.6z"
		/>
	<path d="M551.6,707.4c0-0.3,0.2-0.4,0.5-0.4c1,0,1.6-0.3,1.9-1c0.3-0.6,0.5-1.6,0.5-2.9v-12.6c0-0.3,0.2-0.4,0.5-0.4
		c0.3,0,0.5,0.1,0.5,0.4v12.6c0,3.1-1.1,4.7-3.3,4.7c-0.1,0-0.2,0-0.3-0.1S551.6,707.5,551.6,707.4z M554.3,686
		c-0.2-0.2-0.3-0.3-0.3-0.6s0.1-0.4,0.3-0.5c0.2-0.2,0.4-0.2,0.6-0.2c0.2,0,0.4,0.1,0.6,0.2c0.2,0.1,0.2,0.3,0.2,0.5
		s-0.1,0.4-0.2,0.6s-0.4,0.2-0.6,0.2C554.7,686.2,554.5,686.2,554.3,686z"/>
	<path d="M558.7,697.5v-3.1c0-1.2,0.5-2.2,1.4-3.1c0.9-0.9,2.1-1.3,3.4-1.3c1.3,0,2.4,0.4,3.4,1.3c0.9,0.9,1.4,1.9,1.4,3.2
		c0,0.4-0.1,0.8-0.2,1c-0.1,0.3-0.3,0.5-0.5,0.6c-0.3,0.1-0.5,0.2-0.7,0.2c-0.2,0-0.5,0-0.8,0h-6.4v1.2c0,1.1,0.4,2,1.3,2.7
		c0.8,0.7,1.9,1,3.3,1c0.7,0,1.2-0.1,1.7-0.3s0.8-0.3,1-0.5c0.2-0.2,0.4-0.3,0.5-0.3c0.1,0,0.2,0,0.3,0.2c0.1,0.1,0.1,0.2,0.1,0.3
		c0,0.2-0.1,0.4-0.4,0.6c-0.3,0.2-0.7,0.4-1.3,0.6c-0.6,0.2-1.2,0.3-2,0.3c-1.6,0-2.9-0.4-3.9-1.3S558.7,698.9,558.7,697.5z
		 M559.6,695.5h6.1c0.7,0,1.1-0.1,1.3-0.2c0.2-0.1,0.3-0.4,0.3-0.8c0-1-0.4-1.8-1.1-2.6c-0.7-0.8-1.6-1.1-2.8-1.1
		c-1.1,0-2,0.4-2.7,1.1c-0.7,0.7-1.1,1.5-1.1,2.5V695.5z"/>
	<path d="M575.7,700.5c0-0.1,0-0.2,0.1-0.3c0.1-0.1,0.2-0.1,0.3-0.1c0.1,0,0.2,0.1,0.4,0.2l0.6,0.4c0.2,0.1,0.6,0.3,1,0.4
		c0.5,0.1,1,0.2,1.6,0.2c1.1,0,1.9-0.2,2.4-0.6c0.5-0.4,0.8-0.9,0.8-1.5c0-0.7-0.2-1.3-0.7-1.7c-0.5-0.4-1-0.7-1.7-0.9l-2-0.6
		c-0.7-0.2-1.2-0.5-1.7-1s-0.7-1-0.7-1.8c0-0.8,0.3-1.6,1-2.3c0.7-0.7,1.7-1,3-1c0.8,0,1.5,0.1,2.2,0.4s1.1,0.5,1.1,0.7
		c0,0.1,0,0.2-0.1,0.3c-0.1,0.1-0.2,0.2-0.3,0.2c0,0-0.3-0.1-0.9-0.3c-0.6-0.2-1.2-0.3-1.9-0.3c-1,0-1.8,0.2-2.3,0.7
		c-0.5,0.5-0.8,1-0.8,1.6c0,0.6,0.2,1.1,0.7,1.4s1,0.6,1.7,0.8c0.7,0.2,1.3,0.4,2,0.5c0.7,0.2,1.2,0.5,1.7,1.1
		c0.5,0.5,0.7,1.2,0.7,2.1c0,0.9-0.4,1.7-1.1,2.2c-0.7,0.5-1.7,0.8-3,0.8c-1.1,0-2-0.2-2.8-0.6C576.1,701.2,575.7,700.8,575.7,700.5
		z"/>
	<path d="M586.1,697.5v-3.1c0-1.2,0.5-2.2,1.4-3.1c0.9-0.9,2.1-1.3,3.4-1.3c1.3,0,2.4,0.4,3.4,1.3c0.9,0.9,1.4,1.9,1.4,3.2
		c0,0.4-0.1,0.8-0.2,1c-0.1,0.3-0.3,0.5-0.5,0.6c-0.3,0.1-0.5,0.2-0.7,0.2c-0.2,0-0.5,0-0.8,0H587v1.2c0,1.1,0.4,2,1.3,2.7
		c0.8,0.7,1.9,1,3.3,1c0.7,0,1.2-0.1,1.7-0.3s0.8-0.3,1-0.5c0.2-0.2,0.4-0.3,0.5-0.3c0.1,0,0.2,0,0.3,0.2c0.1,0.1,0.1,0.2,0.1,0.3
		c0,0.2-0.1,0.4-0.4,0.6c-0.3,0.2-0.7,0.4-1.3,0.6c-0.6,0.2-1.2,0.3-2,0.3c-1.6,0-2.9-0.4-3.9-1.3S586.1,698.9,586.1,697.5z
		 M587,695.5h6.1c0.7,0,1.1-0.1,1.3-0.2c0.2-0.1,0.3-0.4,0.3-0.8c0-1-0.4-1.8-1.1-2.6c-0.7-0.8-1.6-1.1-2.8-1.1
		c-1.1,0-2,0.4-2.7,1.1c-0.7,0.7-1.1,1.5-1.1,2.5V695.5z"/>
	<path d="M604,701.5v-10.9c0-0.3,0.2-0.4,0.5-0.4c0.3,0,0.5,0.1,0.5,0.4v1.3c0.8-1.3,2-1.9,3.6-1.9c1.3,0,2.5,0.4,3.4,1.3
		c1,0.9,1.4,1.9,1.4,3.2v7c0,0.3-0.2,0.5-0.5,0.5c-0.3,0-0.5-0.2-0.5-0.5v-7c0-0.9-0.4-1.8-1.1-2.5c-0.8-0.7-1.7-1.1-2.7-1.1
		c-1,0-1.8,0.3-2.6,1c-0.7,0.7-1.1,1.5-1.1,2.6v7c0,0.1,0,0.2-0.1,0.3c-0.1,0.1-0.2,0.1-0.3,0.1s-0.2,0-0.3-0.1
		C604,701.7,604,701.6,604,701.5z"/>
	<path d="M616,698.8c0-1.3,0.5-2.1,1.6-2.6c1.1-0.5,2.6-0.7,4.7-0.7h1.5v-0.7c0-1.1-0.3-2-0.9-2.8c-0.6-0.8-1.5-1.2-2.7-1.2
		c-0.5,0-0.9,0.1-1.4,0.2c-0.4,0.1-0.8,0.2-1,0.3c-0.2,0.1-0.4,0.2-0.5,0.2c-0.1,0-0.3-0.1-0.4-0.2c-0.1-0.1-0.1-0.2-0.1-0.3
		c0-0.3,0.4-0.5,1.1-0.7c0.7-0.2,1.5-0.3,2.3-0.3c1.5,0,2.7,0.5,3.4,1.4c0.7,0.9,1.1,2.1,1.1,3.4v6.7c0,0.3-0.2,0.5-0.5,0.5
		c-0.1,0-0.3,0-0.4-0.1c-0.1-0.1-0.1-0.2-0.1-0.3v-1.3c-1.2,1.3-2.5,1.9-4,1.9c-1.1,0-2-0.3-2.7-0.8
		C616.4,700.7,616,699.9,616,698.8z M617,698.8c0,0.8,0.3,1.4,0.8,1.8c0.5,0.4,1.2,0.6,2,0.6c1,0,1.9-0.3,2.8-1s1.3-1.2,1.3-1.8
		v-2.1h-1.5c-0.8,0-1.5,0-2,0.1c-0.5,0-1.1,0.2-1.7,0.3c-0.6,0.2-1,0.4-1.3,0.8C617.1,697.8,617,698.3,617,698.8z"/>
	<path d="M632.4,690.6c0-0.1,0-0.2,0.1-0.3s0.2-0.1,0.3-0.1c0.2,0,0.4,0.1,0.5,0.3l3.8,9.8l3.8-9.7l0-0.1c0-0.1,0.1-0.1,0.1-0.1
		c0,0,0,0,0.1-0.1s0.1-0.1,0.1-0.1c0,0,0.1,0,0.2,0c0.1,0,0.2,0,0.4,0.1c0.1,0.1,0.2,0.2,0.2,0.3c0,0,0,0.2-0.1,0.4l-4.2,10.8
		c-0.1,0.2-0.2,0.3-0.5,0.3s-0.4-0.1-0.5-0.3l-4.2-10.8C632.4,690.7,632.4,690.6,632.4,690.6z"/>
	<path d="M643.5,700.5c0-0.1,0-0.2,0.1-0.3c0.1-0.1,0.2-0.1,0.3-0.1c0.1,0,0.2,0.1,0.4,0.2l0.6,0.4c0.2,0.1,0.6,0.3,1,0.4
		c0.5,0.1,1,0.2,1.6,0.2c1.1,0,1.9-0.2,2.4-0.6c0.5-0.4,0.8-0.9,0.8-1.5c0-0.7-0.2-1.3-0.7-1.7c-0.5-0.4-1-0.7-1.7-0.9l-2-0.6
		c-0.7-0.2-1.2-0.5-1.7-1c-0.5-0.4-0.7-1-0.7-1.8c0-0.8,0.3-1.6,1-2.3c0.7-0.7,1.7-1,3-1c0.8,0,1.5,0.1,2.2,0.4s1.1,0.5,1.1,0.7
		c0,0.1,0,0.2-0.1,0.3c-0.1,0.1-0.2,0.2-0.3,0.2c0,0-0.3-0.1-0.9-0.3c-0.6-0.2-1.2-0.3-1.9-0.3c-1,0-1.8,0.2-2.3,0.7
		c-0.5,0.5-0.8,1-0.8,1.6c0,0.6,0.2,1.1,0.7,1.4c0.5,0.3,1,0.6,1.7,0.8c0.7,0.2,1.3,0.4,2,0.5c0.7,0.2,1.2,0.5,1.7,1.1
		s0.7,1.2,0.7,2.1c0,0.9-0.4,1.7-1.1,2.2c-0.7,0.5-1.7,0.8-3,0.8c-1.1,0-2-0.2-2.8-0.6C643.9,701.2,643.5,700.8,643.5,700.5z
		 M643.8,684c0-0.1,0-0.2,0.1-0.3c0.1-0.1,0.2-0.1,0.3-0.1c0.2,0,0.3,0.1,0.4,0.2l2.6,2.6l2.6-2.6c0.1-0.1,0.3-0.2,0.4-0.2
		c0.1,0,0.2,0,0.3,0.1c0.1,0.1,0.1,0.2,0.1,0.3c0,0.1-0.1,0.2-0.2,0.4l-2.7,2.5c-0.2,0.2-0.4,0.3-0.6,0.3c-0.2,0-0.4-0.1-0.6-0.3
		l-2.7-2.5C643.9,684.3,643.8,684.1,643.8,684z"/>
	<path d="M653.9,697.5v-3.1c0-1.2,0.5-2.2,1.4-3.1c0.9-0.9,2.1-1.3,3.4-1.3c1.3,0,2.4,0.4,3.4,1.3c0.9,0.9,1.4,1.9,1.4,3.2
		c0,0.4-0.1,0.8-0.2,1c-0.1,0.3-0.3,0.5-0.5,0.6c-0.3,0.1-0.5,0.2-0.7,0.2c-0.2,0-0.5,0-0.8,0h-6.4v1.2c0,1.1,0.4,2,1.3,2.7
		c0.8,0.7,1.9,1,3.3,1c0.7,0,1.2-0.1,1.7-0.3s0.8-0.3,1-0.5c0.2-0.2,0.4-0.3,0.5-0.3c0.1,0,0.2,0,0.3,0.2c0.1,0.1,0.1,0.2,0.1,0.3
		c0,0.2-0.1,0.4-0.4,0.6c-0.3,0.2-0.7,0.4-1.3,0.6c-0.6,0.2-1.2,0.3-2,0.3c-1.6,0-2.9-0.4-3.9-1.3S653.9,698.9,653.9,697.5z
		 M654.8,695.5h6.1c0.7,0,1.1-0.1,1.3-0.2c0.2-0.1,0.3-0.4,0.3-0.8c0-1-0.4-1.8-1.1-2.6c-0.7-0.8-1.6-1.1-2.8-1.1
		c-1.1,0-2,0.4-2.7,1.1c-0.7,0.7-1.1,1.5-1.1,2.5V695.5z"/>
	<path d="M665.9,697.5v-3c0-1.3,0.4-2.4,1.3-3.3s2.1-1.3,3.7-1.3c1,0,1.8,0.2,2.5,0.5c0.7,0.3,1,0.7,1,1c0,0.1,0,0.2-0.1,0.3
		s-0.2,0.1-0.3,0.1c-0.1,0-0.2-0.1-0.5-0.3c-0.2-0.2-0.6-0.3-1-0.5s-1-0.3-1.6-0.3c-1.3,0-2.3,0.3-3,1c-0.7,0.6-1,1.5-1,2.7v3
		c0,1.2,0.3,2.1,1,2.7c0.7,0.7,1.7,1,3,1c0.7,0,1.2-0.1,1.7-0.3c0.5-0.2,0.8-0.3,1-0.5c0.2-0.2,0.4-0.3,0.5-0.3c0.1,0,0.2,0,0.3,0.1
		c0.1,0.1,0.1,0.2,0.1,0.3c0,0.3-0.4,0.6-1.1,1c-0.7,0.3-1.6,0.5-2.6,0.5c-1.6,0-2.8-0.4-3.7-1.3C666.3,700,665.9,698.9,665.9,697.5
		z"/>
	<path d="M677.2,701.5v-18.3c0-0.3,0.2-0.4,0.5-0.4c0.3,0,0.5,0.1,0.5,0.4v8.7c0.8-1.3,2-1.9,3.6-1.9c1.3,0,2.5,0.4,3.4,1.3
		c1,0.9,1.4,1.9,1.4,3.2v7c0,0.3-0.2,0.5-0.5,0.5c-0.3,0-0.5-0.2-0.5-0.5v-7c0-0.9-0.4-1.8-1.1-2.5c-0.8-0.7-1.7-1.1-2.7-1.1
		c-1,0-1.8,0.3-2.6,1c-0.7,0.7-1.1,1.5-1.1,2.6v7c0,0.1,0,0.2-0.1,0.3c-0.1,0.1-0.2,0.1-0.3,0.1c-0.1,0-0.2,0-0.3-0.1
		C677.3,701.7,677.2,701.6,677.2,701.5z"/>
	<path d="M690.2,701.5v-10.9c0-0.3,0.2-0.4,0.5-0.4c0.3,0,0.5,0.1,0.5,0.4v1.3c0.8-1.3,2-1.9,3.6-1.9c1.3,0,2.5,0.4,3.4,1.3
		c1,0.9,1.4,1.9,1.4,3.2v7c0,0.3-0.2,0.5-0.5,0.5c-0.3,0-0.5-0.2-0.5-0.5v-7c0-0.9-0.4-1.8-1.1-2.5c-0.8-0.7-1.7-1.1-2.7-1.1
		c-1,0-1.8,0.3-2.6,1c-0.7,0.7-1.1,1.5-1.1,2.6v7c0,0.1,0,0.2-0.1,0.3c-0.1,0.1-0.2,0.1-0.3,0.1s-0.2,0-0.3-0.1
		C690.2,701.7,690.2,701.6,690.2,701.5z"/>
	<path d="M701.6,690.4c0-0.1,0-0.2,0.1-0.3c0.1-0.1,0.2-0.1,0.4-0.1c0.2,0,0.4,0.1,0.4,0.3l3.9,10l3.9-10c0.1-0.2,0.2-0.3,0.4-0.3
		c0.3,0,0.5,0.1,0.5,0.4c0,0.1,0,0.1,0,0.2l-4.3,11l-0.5,1.4c-0.1,0.3-0.3,0.7-0.6,1.3c-0.3,0.6-0.5,1.1-0.8,1.4
		c-0.2,0.3-0.5,0.7-0.8,1c-0.3,0.4-0.7,0.7-1,0.8c-0.4,0.2-0.7,0.3-1.1,0.3c-0.1,0-0.2,0-0.3-0.1c-0.1-0.1-0.1-0.2-0.1-0.3
		c0-0.3,0.1-0.5,0.4-0.5c0.3,0,0.6-0.1,0.9-0.2c0.3-0.1,0.6-0.4,0.8-0.7c0.3-0.3,0.5-0.6,0.6-0.9s0.4-0.6,0.6-1.2
		c0.2-0.5,0.4-0.9,0.5-1.1l0.5-1.3l-4.3-11C701.6,690.5,701.6,690.4,701.6,690.4z"/>
	<path d="M484.8,731.5c0-0.1,0-0.2,0.1-0.3l7.2-10.2h-6.6c-0.1,0-0.2,0-0.3-0.1s-0.1-0.2-0.1-0.3c0-0.1,0-0.2,0.1-0.3
		s0.2-0.1,0.4-0.1h7.5c0.1,0,0.2,0,0.3,0.1c0.1,0.1,0.1,0.2,0.1,0.3c0,0.1,0,0.2-0.1,0.3l-7.2,10.2h7.1c0.1,0,0.2,0,0.3,0.1
		c0.1,0.1,0.1,0.2,0.1,0.3s0,0.2-0.1,0.3c-0.1,0.1-0.2,0.1-0.3,0.1h-8C485,731.9,484.8,731.8,484.8,731.5z"/>
	<path d="M496.2,727.6v-7c0-0.1,0-0.2,0.1-0.3s0.2-0.1,0.3-0.1s0.2,0,0.3,0.1c0.1,0.1,0.1,0.2,0.1,0.3v7c0,0.9,0.4,1.8,1.1,2.5
		s1.7,1.1,2.7,1.1c1,0,1.9-0.4,2.7-1.1s1.1-1.6,1.1-2.5v-7c0-0.1,0-0.2,0.1-0.3c0.1-0.1,0.2-0.1,0.3-0.1s0.2,0,0.3,0.1
		s0.1,0.2,0.1,0.3v7c0,1.2-0.5,2.3-1.4,3.1c-0.9,0.9-2.1,1.4-3.4,1.4c-1.3,0-2.4-0.5-3.4-1.4C496.7,729.8,496.2,728.8,496.2,727.6z"
		/>
	<path d="M509.4,731.5v-18.3c0-0.3,0.2-0.4,0.5-0.4c0.3,0,0.5,0.1,0.5,0.4v8.7c0.8-1.3,2-1.9,3.6-1.9c1.3,0,2.5,0.4,3.4,1.3
		c1,0.9,1.4,1.9,1.4,3.2v3c0,1.2-0.5,2.3-1.4,3.2c-1,0.9-2.1,1.4-3.4,1.4c-0.8,0-1.5-0.2-2.2-0.6c-0.7-0.4-1.2-0.8-1.5-1.3v1.3
		c0,0.1,0,0.2-0.1,0.3c-0.1,0.1-0.2,0.1-0.3,0.1c-0.1,0-0.2,0-0.3-0.1C509.4,731.7,509.4,731.6,509.4,731.5z M510.3,728.5
		c0,0.5,0.4,1.1,1.1,1.8c0.8,0.7,1.6,1,2.6,1c1,0,1.9-0.4,2.7-1.1c0.8-0.8,1.1-1.6,1.1-2.6v-3c0-0.9-0.4-1.8-1.1-2.5
		c-0.8-0.7-1.7-1.1-2.7-1.1c-1,0-1.8,0.3-2.6,1c-0.7,0.7-1.1,1.5-1.1,2.6V728.5z"/>
	<path d="M522,731.5v-10.9c0-0.3,0.2-0.4,0.5-0.4c0.3,0,0.5,0.1,0.5,0.4v1.3c0.8-1.3,2-1.9,3.6-1.9c1.3,0,2.5,0.4,3.4,1.3
		c1,0.9,1.4,1.9,1.4,3.2v7c0,0.3-0.2,0.5-0.5,0.5c-0.3,0-0.5-0.2-0.5-0.5v-7c0-0.9-0.4-1.8-1.1-2.5c-0.8-0.7-1.7-1.1-2.7-1.1
		c-1,0-1.8,0.3-2.6,1c-0.7,0.7-1.1,1.5-1.1,2.6v7c0,0.1,0,0.2-0.1,0.3c-0.1,0.1-0.2,0.1-0.3,0.1s-0.2,0-0.3-0.1
		C522,731.7,522,731.6,522,731.5z"/>
	<path d="M533.6,716.5c0-0.2,0.1-0.3,0.2-0.3l2.8-1.5c0.1,0,0.1,0,0.2,0c0.3,0,0.4,0.1,0.4,0.4c0,0.2-0.1,0.4-0.3,0.5l-2.6,1.4
		c-0.1,0-0.2,0.1-0.2,0.1c-0.1,0-0.3,0-0.4-0.1C533.7,716.7,533.6,716.6,533.6,716.5z M535,731.5v-10.9c0-0.1,0-0.2,0.1-0.3
		c0.1-0.1,0.2-0.1,0.3-0.1c0.3,0,0.5,0.1,0.5,0.4v10.9c0,0.1,0,0.2-0.1,0.3c-0.1,0.1-0.2,0.1-0.3,0.1s-0.2,0-0.3-0.1
		C535,731.7,535,731.6,535,731.5z"/>
	<path d="M545,731.5v-18.3c0-0.3,0.2-0.4,0.5-0.4c0.3,0,0.5,0.1,0.5,0.4v13l7.3-5.9c0.1-0.1,0.2-0.1,0.3-0.1c0.3,0,0.5,0.1,0.5,0.4
		c0,0.2-0.1,0.3-0.2,0.4l-4.3,3.5l5,6.8c0.1,0.1,0.1,0.2,0.1,0.3c0,0.1,0,0.2-0.1,0.3c-0.1,0.1-0.2,0.1-0.3,0.1
		c-0.1,0-0.3-0.1-0.4-0.2l-5-6.7l-2.8,2.3v4.2c0,0.1,0,0.2-0.1,0.3c-0.1,0.1-0.2,0.1-0.3,0.1c-0.1,0-0.2,0-0.3-0.1
		C545,731.7,545,731.6,545,731.5z"/>
	<path d="M555.8,728.8c0-1.3,0.5-2.1,1.6-2.6c1.1-0.5,2.6-0.7,4.7-0.7h1.5v-0.7c0-1.1-0.3-2-0.9-2.8c-0.6-0.8-1.5-1.2-2.7-1.2
		c-0.5,0-0.9,0.1-1.4,0.2c-0.4,0.1-0.8,0.2-1,0.3c-0.2,0.1-0.4,0.2-0.5,0.2c-0.1,0-0.3-0.1-0.4-0.2c-0.1-0.1-0.1-0.2-0.1-0.3
		c0-0.3,0.4-0.5,1.1-0.7c0.7-0.2,1.5-0.3,2.3-0.3c1.5,0,2.7,0.5,3.4,1.4c0.7,0.9,1.1,2.1,1.1,3.4v6.7c0,0.3-0.2,0.5-0.5,0.5
		c-0.1,0-0.3,0-0.4-0.1c-0.1-0.1-0.1-0.2-0.1-0.3v-1.3c-1.2,1.3-2.5,1.9-4,1.9c-1.1,0-2-0.3-2.7-0.8
		C556.2,730.7,555.8,729.9,555.8,728.8z M556.8,728.8c0,0.8,0.3,1.4,0.8,1.8c0.5,0.4,1.2,0.6,2,0.6c1,0,1.9-0.3,2.8-1
		s1.3-1.2,1.3-1.8v-2.1h-1.5c-0.8,0-1.5,0-2,0.1c-0.5,0-1.1,0.2-1.7,0.3c-0.6,0.2-1,0.4-1.3,0.8
		C556.9,727.8,556.8,728.3,556.8,728.8z"/>
	<path d="M568.1,731.5v-10.9c0-0.3,0.2-0.4,0.5-0.4c0.3,0,0.5,0.1,0.5,0.4v1.3c0.8-1.3,2.1-1.9,3.7-1.9h1c0.1,0,0.2,0,0.3,0.1
		s0.1,0.2,0.1,0.3c0,0.1,0,0.2-0.1,0.3c-0.1,0.1-0.2,0.1-0.3,0.1h-1c-1,0-1.9,0.3-2.6,1c-0.7,0.7-1.1,1.5-1.1,2.6v7
		c0,0.1,0,0.2-0.1,0.3c-0.1,0.1-0.2,0.1-0.3,0.1s-0.2,0-0.3-0.1C568.2,731.7,568.1,731.6,568.1,731.5z"/>
	<path d="M576.4,728.5v-13.7c0-0.1,0-0.2,0.1-0.3c0.1-0.1,0.2-0.1,0.3-0.1c0.1,0,0.2,0,0.3,0.1c0.1,0.1,0.1,0.2,0.1,0.3v5.4h3.6
		c0.1,0,0.2,0,0.3,0.1c0.1,0.1,0.1,0.2,0.1,0.3c0,0.1,0,0.2-0.1,0.3c-0.1,0.1-0.2,0.1-0.3,0.1h-3.6v7.5c0,0.9,0.2,1.6,0.7,2
		c0.4,0.4,1.2,0.6,2.3,0.6h0.6c0.1,0,0.2,0,0.3,0.1c0.1,0.1,0.1,0.2,0.1,0.3c0,0.1,0,0.2-0.1,0.3c-0.1,0.1-0.2,0.1-0.3,0.1h-0.6
		C577.7,731.9,576.4,730.8,576.4,728.5z"/>
	<path d="M582.9,728.8c0-1.3,0.5-2.1,1.6-2.6c1.1-0.5,2.6-0.7,4.7-0.7h1.5v-0.7c0-1.1-0.3-2-0.9-2.8c-0.6-0.8-1.5-1.2-2.7-1.2
		c-0.5,0-0.9,0.1-1.4,0.2c-0.4,0.1-0.8,0.2-1,0.3c-0.2,0.1-0.4,0.2-0.5,0.2c-0.1,0-0.3-0.1-0.4-0.2c-0.1-0.1-0.1-0.2-0.1-0.3
		c0-0.3,0.4-0.5,1.1-0.7c0.7-0.2,1.5-0.3,2.3-0.3c1.5,0,2.7,0.5,3.4,1.4c0.7,0.9,1.1,2.1,1.1,3.4v6.7c0,0.3-0.2,0.5-0.5,0.5
		c-0.1,0-0.3,0-0.4-0.1c-0.1-0.1-0.1-0.2-0.1-0.3v-1.3c-1.2,1.3-2.5,1.9-4,1.9c-1.1,0-2-0.3-2.7-0.8
		C583.2,730.7,582.9,729.9,582.9,728.8z M583.8,728.8c0,0.8,0.3,1.4,0.8,1.8c0.5,0.4,1.2,0.6,2,0.6c1,0,1.9-0.3,2.8-1
		s1.3-1.2,1.3-1.8v-2.1h-1.5c-0.8,0-1.5,0-2,0.1c-0.5,0-1.1,0.2-1.7,0.3c-0.6,0.2-1,0.4-1.3,0.8C584,727.8,583.8,728.3,583.8,728.8z
		 M585.5,716.5c0-0.2,0.1-0.3,0.2-0.3l2.8-1.5c0.1,0,0.1,0,0.2,0c0.3,0,0.4,0.1,0.4,0.4c0,0.2-0.1,0.4-0.3,0.5l-2.6,1.4
		c-0.1,0-0.2,0.1-0.2,0.1c-0.1,0-0.3,0-0.4-0.1S585.5,716.6,585.5,716.5z"/>
	<path d="M594.8,727.5v-3c0-1.3,0.4-2.4,1.3-3.3s2.1-1.3,3.7-1.3c1,0,1.8,0.2,2.5,0.5c0.7,0.3,1,0.7,1,1c0,0.1,0,0.2-0.1,0.3
		s-0.2,0.1-0.3,0.1c-0.1,0-0.2-0.1-0.5-0.3c-0.2-0.2-0.6-0.3-1-0.5s-1-0.3-1.6-0.3c-1.3,0-2.3,0.3-3,1c-0.7,0.6-1,1.5-1,2.7v3
		c0,1.2,0.3,2.1,1,2.7c0.7,0.7,1.7,1,3,1c0.7,0,1.2-0.1,1.7-0.3c0.5-0.2,0.8-0.3,1-0.5c0.2-0.2,0.4-0.3,0.5-0.3c0.1,0,0.2,0,0.3,0.1
		c0.1,0.1,0.1,0.2,0.1,0.3c0,0.3-0.4,0.6-1.1,1c-0.7,0.3-1.6,0.5-2.6,0.5c-1.6,0-2.8-0.4-3.7-1.3C595.2,730,594.8,728.9,594.8,727.5
		z M595.6,714c0-0.1,0-0.2,0.1-0.3c0.1-0.1,0.2-0.1,0.3-0.1c0.2,0,0.3,0.1,0.4,0.2l2.6,2.6l2.6-2.6c0.1-0.1,0.3-0.2,0.4-0.2
		c0.1,0,0.2,0,0.3,0.1c0.1,0.1,0.1,0.2,0.1,0.3c0,0.1-0.1,0.2-0.2,0.4l-2.7,2.5c-0.2,0.2-0.4,0.3-0.6,0.3c-0.2,0-0.4-0.1-0.6-0.3
		l-2.7-2.5C595.6,714.3,595.6,714.1,595.6,714z"/>
	<path d="M606.1,731.5v-18.3c0-0.3,0.2-0.4,0.5-0.4c0.3,0,0.5,0.1,0.5,0.4v13l7.3-5.9c0.1-0.1,0.2-0.1,0.3-0.1
		c0.3,0,0.5,0.1,0.5,0.4c0,0.2-0.1,0.3-0.2,0.4l-4.3,3.5l5,6.8c0.1,0.1,0.1,0.2,0.1,0.3c0,0.1,0,0.2-0.1,0.3
		c-0.1,0.1-0.2,0.1-0.3,0.1c-0.1,0-0.3-0.1-0.4-0.2l-5-6.7l-2.8,2.3v4.2c0,0.1,0,0.2-0.1,0.3c-0.1,0.1-0.2,0.1-0.3,0.1
		c-0.1,0-0.2,0-0.3-0.1C606.1,731.7,606.1,731.6,606.1,731.5z"/>
	<path d="M616.5,720.4c0-0.1,0-0.2,0.1-0.3c0.1-0.1,0.2-0.1,0.4-0.1c0.2,0,0.4,0.1,0.4,0.3l3.9,10l3.9-10c0.1-0.2,0.2-0.3,0.4-0.3
		c0.3,0,0.5,0.1,0.5,0.4c0,0.1,0,0.1,0,0.2l-4.3,11l-0.5,1.4c-0.1,0.3-0.3,0.7-0.6,1.3c-0.3,0.6-0.5,1.1-0.8,1.4
		c-0.2,0.3-0.5,0.7-0.8,1c-0.3,0.4-0.7,0.7-1,0.8c-0.4,0.2-0.7,0.3-1.1,0.3c-0.1,0-0.2,0-0.3-0.1c-0.1-0.1-0.1-0.2-0.1-0.3
		c0-0.3,0.1-0.5,0.4-0.5c0.3,0,0.6-0.1,0.9-0.2c0.3-0.1,0.6-0.4,0.8-0.7c0.3-0.3,0.5-0.6,0.6-0.9s0.4-0.6,0.6-1.2
		c0.2-0.5,0.4-0.9,0.5-1.1l0.5-1.3l-4.3-11C616.5,720.5,616.5,720.4,616.5,720.4z"/>
	<path d="M632.7,731.5c0-0.1,0-0.2,0.1-0.3L640,721h-6.6c-0.1,0-0.2,0-0.3-0.1s-0.1-0.2-0.1-0.3c0-0.1,0-0.2,0.1-0.3
		s0.2-0.1,0.4-0.1h7.5c0.1,0,0.2,0,0.3,0.1c0.1,0.1,0.1,0.2,0.1,0.3c0,0.1,0,0.2-0.1,0.3l-7.2,10.2h7.1c0.1,0,0.2,0,0.3,0.1
		c0.1,0.1,0.1,0.2,0.1,0.3s0,0.2-0.1,0.3c-0.1,0.1-0.2,0.1-0.3,0.1h-8C632.9,731.9,632.7,731.8,632.7,731.5z"/>
	<path d="M649.6,731.5v-10.9c0-0.3,0.2-0.4,0.5-0.4c0.3,0,0.5,0.1,0.5,0.4v1.3c0.8-1.3,2-1.9,3.6-1.9c1.3,0,2.5,0.4,3.4,1.3
		c1,0.9,1.4,1.9,1.4,3.2v7c0,0.3-0.2,0.5-0.5,0.5c-0.3,0-0.5-0.2-0.5-0.5v-7c0-0.9-0.4-1.8-1.1-2.5c-0.8-0.7-1.7-1.1-2.7-1.1
		c-1,0-1.8,0.3-2.6,1c-0.7,0.7-1.1,1.5-1.1,2.6v7c0,0.1,0,0.2-0.1,0.3c-0.1,0.1-0.2,0.1-0.3,0.1s-0.2,0-0.3-0.1
		C649.7,731.7,649.6,731.6,649.6,731.5z"/>
	<path d="M661.7,728.8c0-1.3,0.5-2.1,1.6-2.6c1.1-0.5,2.6-0.7,4.7-0.7h1.5v-0.7c0-1.1-0.3-2-0.9-2.8c-0.6-0.8-1.5-1.2-2.7-1.2
		c-0.5,0-0.9,0.1-1.4,0.2c-0.4,0.1-0.8,0.2-1,0.3c-0.2,0.1-0.4,0.2-0.5,0.2c-0.1,0-0.3-0.1-0.4-0.2c-0.1-0.1-0.1-0.2-0.1-0.3
		c0-0.3,0.4-0.5,1.1-0.7c0.7-0.2,1.5-0.3,2.3-0.3c1.5,0,2.7,0.5,3.4,1.4c0.7,0.9,1.1,2.1,1.1,3.4v6.7c0,0.3-0.2,0.5-0.5,0.5
		c-0.1,0-0.3,0-0.4-0.1c-0.1-0.1-0.1-0.2-0.1-0.3v-1.3c-1.2,1.3-2.5,1.9-4,1.9c-1.1,0-2-0.3-2.7-0.8
		C662.1,730.7,661.7,729.9,661.7,728.8z M662.6,728.8c0,0.8,0.3,1.4,0.8,1.8c0.5,0.4,1.2,0.6,2,0.6c1,0,1.9-0.3,2.8-1
		s1.3-1.2,1.3-1.8v-2.1H668c-0.8,0-1.5,0-2,0.1c-0.5,0-1.1,0.2-1.7,0.3c-0.6,0.2-1,0.4-1.3,0.8C662.8,727.8,662.6,728.3,662.6,728.8
		z"/>
	<path d="M673.2,730.5c0-0.1,0-0.2,0.1-0.3c0.1-0.1,0.2-0.1,0.3-0.1c0.1,0,0.2,0.1,0.4,0.2l0.6,0.4c0.2,0.1,0.6,0.3,1,0.4
		c0.5,0.1,1,0.2,1.6,0.2c1.1,0,1.9-0.2,2.4-0.6c0.5-0.4,0.8-0.9,0.8-1.5c0-0.7-0.2-1.3-0.7-1.7c-0.5-0.4-1-0.7-1.7-0.9l-2-0.6
		c-0.7-0.2-1.2-0.5-1.7-1c-0.5-0.4-0.7-1-0.7-1.8c0-0.8,0.3-1.6,1-2.3c0.7-0.7,1.7-1,3-1c0.8,0,1.5,0.1,2.2,0.4s1.1,0.5,1.1,0.7
		c0,0.1,0,0.2-0.1,0.3c-0.1,0.1-0.2,0.2-0.3,0.2c0,0-0.3-0.1-0.9-0.3c-0.6-0.2-1.2-0.3-1.9-0.3c-1,0-1.8,0.2-2.3,0.7
		c-0.5,0.5-0.8,1-0.8,1.6c0,0.6,0.2,1.1,0.7,1.4c0.5,0.3,1,0.6,1.7,0.8c0.7,0.2,1.3,0.4,2,0.5c0.7,0.2,1.2,0.5,1.7,1.1
		s0.7,1.2,0.7,2.1c0,0.9-0.4,1.7-1.1,2.2c-0.7,0.5-1.7,0.8-3,0.8c-1.1,0-2-0.2-2.8-0.6C673.6,731.2,673.2,730.8,673.2,730.5z
		 M673.5,714c0-0.1,0-0.2,0.1-0.3c0.1-0.1,0.2-0.1,0.3-0.1c0.2,0,0.3,0.1,0.4,0.2l2.6,2.6l2.6-2.6c0.1-0.1,0.3-0.2,0.4-0.2
		c0.1,0,0.2,0,0.3,0.1c0.1,0.1,0.1,0.2,0.1,0.3c0,0.1-0.1,0.2-0.2,0.4l-2.7,2.5c-0.2,0.2-0.4,0.3-0.6,0.3c-0.2,0-0.4-0.1-0.6-0.3
		l-2.7-2.5C673.6,714.3,673.5,714.1,673.5,714z"/>
	<path d="M683.6,727.5v-3.1c0-1.2,0.5-2.2,1.4-3.1c0.9-0.9,2.1-1.3,3.4-1.3c1.3,0,2.4,0.4,3.4,1.3c0.9,0.9,1.4,1.9,1.4,3.2
		c0,0.4-0.1,0.8-0.2,1c-0.1,0.3-0.3,0.5-0.5,0.6c-0.3,0.1-0.5,0.2-0.7,0.2c-0.2,0-0.5,0-0.8,0h-6.4v1.2c0,1.1,0.4,2,1.3,2.7
		c0.8,0.7,1.9,1,3.3,1c0.7,0,1.2-0.1,1.7-0.3s0.8-0.3,1-0.5c0.2-0.2,0.4-0.3,0.5-0.3c0.1,0,0.2,0,0.3,0.2c0.1,0.1,0.1,0.2,0.1,0.3
		c0,0.2-0.1,0.4-0.4,0.6c-0.3,0.2-0.7,0.4-1.3,0.6c-0.6,0.2-1.2,0.3-2,0.3c-1.6,0-2.9-0.4-3.9-1.3S683.6,728.9,683.6,727.5z
		 M684.5,725.5h6.1c0.7,0,1.1-0.1,1.3-0.2c0.2-0.1,0.3-0.4,0.3-0.8c0-1-0.4-1.8-1.1-2.6c-0.7-0.8-1.6-1.1-2.8-1.1
		c-1.1,0-2,0.4-2.7,1.1c-0.7,0.7-1.1,1.5-1.1,2.5V725.5z"/>
	<path d="M696.1,731.5v-18.3c0-0.3,0.2-0.4,0.5-0.4c0.3,0,0.5,0.1,0.5,0.4v8.7c0.8-1.3,2-1.9,3.6-1.9c1.3,0,2.5,0.4,3.4,1.3
		c1,0.9,1.4,1.9,1.4,3.2v7c0,0.3-0.2,0.5-0.5,0.5c-0.3,0-0.5-0.2-0.5-0.5v-7c0-0.9-0.4-1.8-1.1-2.5c-0.8-0.7-1.7-1.1-2.7-1.1
		c-1,0-1.8,0.3-2.6,1c-0.7,0.7-1.1,1.5-1.1,2.6v7c0,0.1,0,0.2-0.1,0.3c-0.1,0.1-0.2,0.1-0.3,0.1c-0.1,0-0.2,0-0.3-0.1
		C696.1,731.7,696.1,731.6,696.1,731.5z"/>
	<path d="M708.6,727.5v-3c0-1.2,0.5-2.3,1.4-3.1c0.9-0.9,2.1-1.4,3.4-1.4s2.4,0.4,3.4,1.3c1,0.9,1.4,1.9,1.4,3.2v3
		c0,1.2-0.5,2.3-1.4,3.2c-1,0.9-2.1,1.4-3.4,1.4s-2.4-0.5-3.3-1.4C709,729.8,708.6,728.7,708.6,727.5z M709.5,727.5
		c0,1,0.4,1.8,1.1,2.6s1.7,1.1,2.7,1.1c1,0,1.9-0.4,2.7-1.1c0.8-0.8,1.1-1.6,1.1-2.6v-3c0-0.9-0.4-1.8-1.1-2.5
		c-0.8-0.7-1.7-1.1-2.7-1.1s-2,0.4-2.7,1.1c-0.7,0.7-1.1,1.6-1.1,2.5V727.5z"/>
	<path d="M485.5,757.5v-3.1c0-1.2,0.5-2.2,1.4-3.1c0.9-0.9,2.1-1.3,3.4-1.3c1.3,0,2.4,0.4,3.4,1.3c0.9,0.9,1.4,1.9,1.4,3.2
		c0,0.4-0.1,0.8-0.2,1c-0.1,0.3-0.3,0.5-0.5,0.6c-0.3,0.1-0.5,0.2-0.7,0.2c-0.2,0-0.5,0-0.8,0h-6.4v1.2c0,1.1,0.4,2,1.3,2.7
		c0.8,0.7,1.9,1,3.3,1c0.7,0,1.2-0.1,1.7-0.3s0.8-0.3,1-0.5c0.2-0.2,0.4-0.3,0.5-0.3c0.1,0,0.2,0,0.3,0.2c0.1,0.1,0.1,0.2,0.1,0.3
		c0,0.2-0.1,0.4-0.4,0.6c-0.3,0.2-0.7,0.4-1.3,0.6c-0.6,0.2-1.2,0.3-2,0.3c-1.6,0-2.9-0.4-3.9-1.3S485.5,758.9,485.5,757.5z
		 M486.4,755.5h6.1c0.7,0,1.1-0.1,1.3-0.2c0.2-0.1,0.3-0.4,0.3-0.8c0-1-0.4-1.8-1.1-2.6c-0.7-0.8-1.6-1.1-2.8-1.1
		c-1.1,0-2,0.4-2.7,1.1c-0.7,0.7-1.1,1.5-1.1,2.5V755.5z"/>
	<path d="M497.5,755.9c0-0.3,0.2-0.5,0.5-0.5h7c0.1,0,0.2,0,0.3,0.1s0.1,0.2,0.1,0.3c0,0.1,0,0.2-0.1,0.3c-0.1,0.1-0.2,0.1-0.3,0.1
		h-7C497.6,756.4,497.5,756.2,497.5,755.9z"/>
	<path d="M507.4,760.5c0-0.1,0-0.2,0.1-0.3c0.1-0.1,0.2-0.1,0.3-0.1c0.1,0,0.2,0.1,0.4,0.2l0.6,0.4c0.2,0.1,0.6,0.3,1,0.4
		c0.5,0.1,1,0.2,1.6,0.2c1.1,0,1.9-0.2,2.4-0.6c0.5-0.4,0.8-0.9,0.8-1.5c0-0.7-0.2-1.3-0.7-1.7c-0.5-0.4-1-0.7-1.7-0.9l-2-0.6
		c-0.7-0.2-1.2-0.5-1.7-1s-0.7-1-0.7-1.8c0-0.8,0.3-1.6,1-2.3c0.7-0.7,1.7-1,3-1c0.8,0,1.5,0.1,2.2,0.4s1.1,0.5,1.1,0.7
		c0,0.1,0,0.2-0.1,0.3c-0.1,0.1-0.2,0.2-0.3,0.2c0,0-0.3-0.1-0.9-0.3c-0.6-0.2-1.2-0.3-1.9-0.3c-1,0-1.8,0.2-2.3,0.7
		c-0.5,0.5-0.8,1-0.8,1.6c0,0.6,0.2,1.1,0.7,1.4s1,0.6,1.7,0.8c0.7,0.2,1.3,0.4,2,0.5c0.7,0.2,1.2,0.5,1.7,1.1
		c0.5,0.5,0.7,1.2,0.7,2.1c0,0.9-0.4,1.7-1.1,2.2c-0.7,0.5-1.7,0.8-3,0.8c-1.1,0-2-0.2-2.8-0.6C507.8,761.2,507.4,760.8,507.4,760.5
		z"/>
	<path d="M518.3,761.5v-18.3c0-0.3,0.2-0.4,0.5-0.4c0.3,0,0.5,0.1,0.5,0.4v8.7c0.8-1.3,2-1.9,3.6-1.9c1.3,0,2.5,0.4,3.4,1.3
		c1,0.9,1.4,1.9,1.4,3.2v7c0,0.3-0.2,0.5-0.5,0.5c-0.3,0-0.5-0.2-0.5-0.5v-7c0-0.9-0.4-1.8-1.1-2.5c-0.8-0.7-1.7-1.1-2.7-1.1
		c-1,0-1.8,0.3-2.6,1c-0.7,0.7-1.1,1.5-1.1,2.6v7c0,0.1,0,0.2-0.1,0.3c-0.1,0.1-0.2,0.1-0.3,0.1c-0.1,0-0.2,0-0.3-0.1
		C518.4,761.7,518.3,761.6,518.3,761.5z"/>
	<path d="M530.8,757.5v-3c0-1.2,0.5-2.3,1.4-3.1c0.9-0.9,2.1-1.4,3.4-1.4s2.4,0.4,3.4,1.3c1,0.9,1.4,1.9,1.4,3.2v3
		c0,1.2-0.5,2.3-1.4,3.2c-1,0.9-2.1,1.4-3.4,1.4s-2.4-0.5-3.3-1.4C531.3,759.8,530.8,758.7,530.8,757.5z M531.7,757.5
		c0,1,0.4,1.8,1.1,2.6s1.7,1.1,2.7,1.1c1,0,1.9-0.4,2.7-1.1c0.8-0.8,1.1-1.6,1.1-2.6v-3c0-0.9-0.4-1.8-1.1-2.5
		c-0.8-0.7-1.7-1.1-2.7-1.1s-2,0.4-2.7,1.1c-0.7,0.7-1.1,1.6-1.1,2.5V757.5z"/>
	<path d="M543.6,767.4v-16.8c0-0.3,0.2-0.4,0.5-0.4c0.3,0,0.5,0.1,0.5,0.4v1.3c0.8-1.3,2-1.9,3.6-1.9c1.3,0,2.5,0.4,3.4,1.3
		c1,0.9,1.4,1.9,1.4,3.2v3c0,1.2-0.5,2.3-1.4,3.2c-1,0.9-2.1,1.4-3.4,1.4c-0.8,0-1.5-0.2-2.2-0.6c-0.7-0.4-1.2-0.8-1.5-1.3v7.2
		c0,0.1,0,0.2-0.1,0.3c-0.1,0.1-0.2,0.1-0.3,0.1c-0.1,0-0.2,0-0.3-0.1S543.6,767.5,543.6,767.4z M544.5,758.5c0,0.5,0.4,1.1,1.1,1.8
		c0.8,0.7,1.6,1,2.6,1c1,0,1.9-0.4,2.7-1.1c0.8-0.8,1.1-1.6,1.1-2.6v-3c0-0.9-0.4-1.8-1.1-2.5c-0.8-0.7-1.7-1.1-2.7-1.1
		c-1,0-1.8,0.3-2.6,1c-0.7,0.7-1.1,1.5-1.1,2.6V758.5z"/>
	<path d="M556.1,757.6v-7c0-0.1,0-0.2,0.1-0.3s0.2-0.1,0.3-0.1s0.2,0,0.3,0.1c0.1,0.1,0.1,0.2,0.1,0.3v7c0,0.9,0.4,1.8,1.1,2.5
		s1.7,1.1,2.7,1.1c1,0,1.9-0.4,2.7-1.1s1.1-1.6,1.1-2.5v-7c0-0.1,0-0.2,0.1-0.3c0.1-0.1,0.2-0.1,0.3-0.1s0.2,0,0.3,0.1
		s0.1,0.2,0.1,0.3v7c0,1.2-0.5,2.3-1.4,3.1c-0.9,0.9-2.1,1.4-3.4,1.4c-1.3,0-2.4-0.5-3.4-1.4C556.5,759.8,556.1,758.8,556.1,757.6z"
		/>
	<path d="M568.6,761.8c-0.2-0.2-0.3-0.3-0.3-0.6c0-0.2,0.1-0.4,0.3-0.6c0.2-0.2,0.4-0.2,0.7-0.2c0.3,0,0.5,0.1,0.7,0.2
		c0.2,0.2,0.3,0.3,0.3,0.6c0,0.2-0.1,0.4-0.3,0.6c-0.2,0.2-0.4,0.2-0.7,0.2C569,762.1,568.8,762,568.6,761.8z"/>
</g>
<path d="M469.7,682.7h-0.3c-0.2,0-0.4,0.2-0.4,0.4v128c0,0.2,0.2,0.4,0.4,0.4h0.3c0.2,0,0.4-0.2,0.4-0.4v-128
	C470.1,682.9,469.9,682.7,469.7,682.7z"/>
</svg>
