<?xml version="1.0" encoding="utf-8"?>
<!-- Generator: Adobe Illustrator 22.1.0, SVG Export Plug-In . SVG Version: 6.00 Build 0)  -->
<svg version="1.1" xmlns="http://www.w3.org/2000/svg" xmlns:xlink="http://www.w3.org/1999/xlink" x="0px" y="0px"
	 viewBox="0 0 169.9 282.5" width="32" height="32" fill="#EAEAEA" style="enable-background:new 0 0 169.9 282.5;" xml:space="preserve">
<path d="M4,187.9c-5.3,5.3-5.3,13.8,0,19.1l71.5,71.5c2.5,2.5,6,4,9.5,4s7-1.4,9.5-4L166,207c5.3-5.3,5.3-13.8,0-19.1
	c-2.6-2.6-6.1-4-9.5-4s-6.9,1.3-9.5,4l-48.5,48.5V13.5C98.5,6,92.5,0,85,0c-7.5,0-13.5,6-13.5,13.5v222.9L23,187.9
	C17.8,182.6,9.3,182.6,4,187.9z"/>
</svg>
