<?xml version="1.0" encoding="utf-8"?>
<!-- Generator: Adobe Illustrator 22.1.0, SVG Export Plug-In . SVG Version: 6.00 Build 0)  -->
<svg version="1.1" id="Layer_1" xmlns="http://www.w3.org/2000/svg" xmlns:xlink="http://www.w3.org/1999/xlink" x="0px" y="0px"
	 viewBox="0 0 32 19.3" style="enable-background:new 0 0 32 19.3;" xml:space="preserve">
<style type="text/css">
	.st0{fill:#EAEAEA;}
</style>
<path class="st0" d="M10.7,0.5c-0.6-0.6-1.6-0.6-2.2,0L0.5,8.5C0.2,8.8,0,9.2,0,9.6c0,0.4,0.2,0.8,0.5,1.1l8.1,8.1
	c0.6,0.6,1.6,0.6,2.2,0c0.3-0.3,0.5-0.7,0.5-1.1c0-0.4-0.1-0.8-0.5-1.1l-5.5-5.5h25.2c0.8,0,1.5-0.7,1.5-1.5c0-0.8-0.7-1.5-1.5-1.5
	H5.2l5.5-5.5C11.3,2,11.3,1.1,10.7,0.5z"/>
</svg>
