<?xml version="1.0" encoding="utf-8"?>
<!-- Generator: Adobe Illustrator 22.1.0, SVG Export Plug-In . SVG Version: 6.00 Build 0)  -->
<svg version="1.1" xmlns="http://www.w3.org/2000/svg" xmlns:xlink="http://www.w3.org/1999/xlink" x="0px" y="0px"
	 viewBox="0 0 169.9 282.5" width="32"  height="32" fill="#EAEAEA" style="enable-background:new 0 0 169.9 282.5;" xml:space="preserve">
<path d="M166,94.6c5.3-5.3,5.3-13.8,0-19.1L94.5,4c-2.5-2.5-6-4-9.5-4s-7,1.4-9.5,4L4,75.5c-5.3,5.3-5.3,13.8,0,19.1
	c2.6,2.6,6.1,4,9.5,4s6.9-1.3,9.5-4l48.5-48.5V269c0,7.5,6,13.5,13.5,13.5s13.5-6,13.5-13.5V46.1L147,94.6
	C152.2,99.9,160.7,99.9,166,94.6z"/>
</svg>
