<?xml version="1.0" encoding="utf-8"?>
<!-- Generator: Adobe Illustrator 22.1.0, SVG Export Plug-In . SVG Version: 6.00 Build 0)  -->
<svg version="1.1" id="Layer_1" xmlns="http://www.w3.org/2000/svg" xmlns:xlink="http://www.w3.org/1999/xlink" x="0px" y="0px"
	 viewBox="0 0 32 19.3" style="enable-background:new 0 0 32 19.3;" xml:space="preserve">
<style type="text/css">
	.st0{fill:#EAEAEA;}
</style>
<path class="st0" d="M21.3,18.8c0.6,0.6,1.6,0.6,2.2,0l8.1-8.1C31.8,10.4,32,10,32,9.6c0-0.4-0.2-0.8-0.5-1.1l-8.1-8.1
	c-0.6-0.6-1.6-0.6-2.2,0c-0.3,0.3-0.5,0.7-0.5,1.1s0.1,0.8,0.5,1.1l5.5,5.5H1.5C0.7,8.1,0,8.8,0,9.6c0,0.8,0.7,1.5,1.5,1.5h25.2
	l-5.5,5.5C20.7,17.2,20.7,18.2,21.3,18.8z"/>
</svg>
