<?xml version="1.0" encoding="utf-8"?>
<!-- Generator: Adobe Illustrator 22.1.0, SVG Export Plug-In . SVG Version: 6.00 Build 0)  -->
<svg version="1.1" id="Capa_1" xmlns="http://www.w3.org/2000/svg" xmlns:xlink="http://www.w3.org/1999/xlink" x="0px" y="0px"
	 viewBox="0 0 343 343" style="enable-background:new 0 0 343 343;" xml:space="preserve">
<style type="text/css">
	.st0{fill:;}
</style>
<g>
	<g>
		<g>
			<path id="L1_2_2_" class="st0" d="M255.3,254.4l1.3,7.4c0.5,0.5,0.9,1.1,1.1,1.9l0.7,4.1c0.3,1.7-0.9,3.4-2.6,3.7l-21.8,3.8
				c-0.8,0.1-1.6,0-2.2-0.4l-12.9,0.5l-49.3,8.5c-1.8,0.3-3.5-0.9-3.8-2.7l-0.2-1.4c-0.3-1.8,0.9-3.5,2.7-3.8l49-8.4
				c0.1,0,0.1,0,0.2,0l12.3-0.5c0.3-0.9,0.9-1.6,1.8-1.9l-1.1-6.3c-0.1-0.7,0.4-1.4,1.1-1.6l22.2-3.8
				C254.5,253.2,255.2,253.7,255.3,254.4z M253.7,261.2l-0.9-4.9l-1.7,0.3l0.4,2.5c0.1,0.7-0.4,1.4-1.1,1.6s-1.4-0.4-1.6-1.1
				l-0.4-2.5l-1.6,0.3l0.4,2.5c0.1,0.7-0.4,1.4-1.1,1.6c-0.7,0.1-1.4-0.4-1.6-1.1l-0.4-2.5l-1.6,0.3l0.4,2.5
				c0.1,0.7-0.4,1.4-1.1,1.6c-0.7,0.1-1.4-0.4-1.6-1.1l-0.4-2.5l-1.6,0.3l0.4,2.5c0.1,0.7-0.4,1.4-1.1,1.6c-0.7,0.1-1.4-0.4-1.6-1.1
				l-0.4-2.5l-2.3,0.4l0.9,4.9L253.7,261.2z M168.2,279.3l0.2,1.4c0.1,0.3,0.3,0.5,0.6,0.5l49.4-8.5c0.1,0,0.1,0,0.2,0l11.6-0.5
				c0.1-0.5,0.5-1,1.1-1.1c0.7-0.1,1.4,0.4,1.6,1.1c0,0.3,0.3,0.4,0.5,0.4l21.8-3.8c0.3,0,0.4-0.3,0.4-0.5l-0.7-4.1
				c0-0.3-0.3-0.4-0.5-0.4l-21.8,3.8c-0.3,0-0.4,0.3-0.4,0.5c0,0,0,0,0,0c0,0,0,0,0,0.1c0,0,0,0,0,0.1c0,0,0,0,0,0c0,0,0,0,0,0
				c0,0,0,0.1,0,0.1c0,0,0,0,0,0.1c0,0,0,0,0,0.1c0,0,0,0,0,0.1c0,0,0,0,0,0.1c0,0,0,0,0,0.1c0,0,0,0,0,0.1c0,0,0,0,0,0.1
				c0,0,0,0,0,0.1c0,0,0,0,0,0.1c0,0,0,0,0,0c0,0,0,0,0,0.1c0,0,0,0,0,0c0,0,0,0,0,0.1c0,0,0,0,0,0c0,0,0,0,0,0c0,0,0,0,0,0
				c0,0,0,0,0,0c0,0,0,0-0.1,0c0,0,0,0-0.1,0c0,0,0,0-0.1,0c0,0,0,0-0.1,0c0,0,0,0-0.1,0c0,0,0,0-0.1,0c0,0,0,0,0,0c0,0-0.1,0-0.1,0
				c0,0,0,0,0,0c0,0-0.1,0-0.1,0c0,0,0,0,0,0c0,0,0,0,0,0c0,0-0.1,0-0.1,0c0,0,0,0-0.1,0c0,0,0,0,0,0l-13.3,0.5l-48.9,8.4
				C168.4,278.7,168.2,279,168.2,279.3z"/>
		</g>
		<g>
			
				<g id="L1_3_2_" transform="matrix(6.3726626939216995e-18 0.10407347977161407 -0.10407347977161407 6.3726626939216995e-18 186.60642050243575 285.4126708782808)">
				<path class="st0" d="M-682.8-691.9c-0.1-0.1-0.1-0.2-0.2-0.2c-12.6-12.2-28.9-20-46.3-22.2c-2.3,0-4.6,0.6-6.5,1.8l-47.3,30.2
					c-37.9-16.9-75.9-15.9-101.8,2.6c-1.5,0.5-2.9,1.2-4.1,2.3l-468,409.6c-2.4,2.1-3.9,5.2-4,8.4c-0.1,3.2,1.1,6.4,3.4,8.6
					l233.5,233.5c2.2,2.2,5.2,3.4,8.3,3.4h0.4c3.2-0.1,6.3-1.6,8.4-4l409.6-468c1-1.2,1.8-2.6,2.3-4.1c18.6-25.9,19.5-64,2.6-101.8
					l30.2-47.3c1.2-1.9,1.9-4.2,1.8-6.5c-2.2-17.4-9.9-33.7-22.2-46.3C-682.6-691.8-682.7-691.8-682.8-691.9z M-726.6-690.6
					c6.5,1.4,12.6,4.2,18,8l-29.4,29.4c-6.8-6-14-11.4-21.6-16.3L-726.6-690.6z M-787.2-658.6c30.7,15.5,55.7,40.5,71.1,71.2
					c13.2,22.7,15.8,50,7.3,74.8l-153.3-153.4C-837.3-674.5-809.9-671.8-787.2-658.6z M-1081.4-82.3l-211-210.9l178.3-156
					c-5.3,19.7-4.5,40.5,2.3,59.8c12.8,39.1,46.5,76.2,77.6,107.4c36.8,36.8,43.8,72.4,42.7,96.9L-1081.4-82.3z M-1163.5-89.6
					l20.9-20.8l18.5,18.5l-20.8,20.9L-1163.5-89.6z M-1221.9-148l20.9-20.8l41.8,41.9l-20.8,20.9L-1221.9-148z M-1280.3-206.4
					l20.9-20.8l41.9,41.9l-20.8,20.9L-1280.3-206.4z M-969.7-210.8c-6.2-33.7-23-64.4-48-87.8c-29.2-29.2-60.6-63.7-72-98.2
					c-10.1-30.8-3.3-58.6,21.3-86.8c-3.8,51.5,42.2,97.5,90.2,145.5C-931.3-291.2-955-235.5-969.7-210.8z M-1310-277.8l34.1,34.1
					l-20.8,20.9l-33.9-33.9c-0.4-0.4-0.7-0.8-1.2-1.2l-0.4-0.4L-1310-277.8z M-1116.4-42.5l-12.1-12.1l20.9-20.8l10.7,10.7
					L-1116.4-42.5z M-928.7-256.9c5.9-36-6.4-72.7-33-97.7c-72.4-72.4-110.9-116.2-60.9-174.7l140.7-123.2l159.7,159.7L-928.7-256.9
					z M-705.1-615.1c-4.9-7.6-10.4-14.8-16.3-21.6l29.4-29.4c3.8,5.4,6.6,11.5,8,18L-705.1-615.1z"/>
				<path class="st0" d="M-893.9-362.4c4.8,4.2,12.2,3.8,16.5-1.1l85-97.1c3-3.1,4.1-7.6,2.8-11.7c-1.3-4.1-4.8-7.2-9.1-8
					c-4.3-0.8-8.6,0.9-11.3,4.3l-85,97.1C-899.3-374.1-898.8-366.7-893.9-362.4z"/>
				<path class="st0" d="M-1065-184.7l-21.3,24.3c-4.2,4.9-3.8,12.2,1.1,16.5c4.9,4.2,12.2,3.8,16.5-1.1l21.2-24.3
					c4.2-4.9,3.6-12.2-1.2-16.4C-1053.4-189.9-1060.7-189.5-1065-184.7z"/>
			</g>
		</g>
		<g>
			
				<g id="L1_5_2_" transform="matrix(0.08158990820118539 -0.08158990820118539 0.08158990820118539 0.08158990820118539 233.26678721806718 75.9821768935272)">
				<path class="st0" d="M-369,1350.5c2.5,0.7,5.3,0.4,7.5-0.9l92.3-51.2c3.7-2.1,5.8-6.5,4.9-10.7l-17-91.2l12.8-7.1l5.4,9.8
					c2.8,5,9.6,6.6,14.3,3.3l87.2-60.4c4.2-2.9,5.5-8.5,3-12.9l-61.4-110.8c-2.5-4.4-7.9-6.3-12.6-4.3l-97.4,42
					c-5.3,2.3-7.5,8.8-4.7,13.9l5.4,9.8l-12.8,7.1l-68.4-62.7c-3.1-3-7.9-3.6-11.6-1.5l-92.3,51.2c-2.3,1.3-4,3.4-4.7,5.9
					l-11.2,39.1l-140.5,78l-39.1-11.2c-2.5-0.7-5.3-0.4-7.5,0.9l-92.3,51.2c-1.9,1-3.4,2.7-4.2,4.6l-21.6,48.2
					c-1.3,2.8-1.1,6.1,0.4,8.8l112.7,203.1c1.5,2.7,4.2,4.6,7.3,5l52.3,7.2c2.1,0.3,4.3-0.1,6.2-1.1l92.3-51.2
					c2.3-1.3,4-3.4,4.7-5.9l11.2-39.1l140.5-78L-369,1350.5z M-180.3,1131l-70.8,49.1l-10.4-18.7c0.5-0.2,70.5-49.8,70.5-49.8
					S-180.3,1131-180.3,1131z M-212.6,1072.8l11.8,21.3l-70.4,49.9l-20.6-37.2L-212.6,1072.8z M-312.2,1070l79.2-34.1l10.8,19.5
					l-79.2,34.1L-312.2,1070z M-350.3,1106.3c3.1,2.9,7.8,3.4,11.5,1.4l19-10.6l41.6,75l-19,10.6c-3.7,2.1-5.7,6.3-4.9,10.5
					l7.2,38.5l-84.2-151.8L-350.3,1106.3z M-707.7,1488.5l-107.9-194.4l11.5-25.6l124.2,223.8L-707.7,1488.5z M-582.8,1449.8
					l-75,41.6l-133.8-241.1l75-41.6l90.1,162.5c2.7,4.8,8.7,6.5,13.5,3.9c4.8-2.7,6.5-8.7,3.9-13.5l-83.4-150.3l20.1,5.8
					c2.5,0.7,5.2,0.4,7.5-0.9l147.7-81.9c2.3-1.3,4-3.4,4.7-5.9l5.8-20.1l120.2,216.7l-20.1-5.8c-2.5-0.7-5.2-0.4-7.5,0.9
					l-147.7,81.9c-2.3,1.3-4,3.4-4.7,5.9l-5.8,20.1l-14-25.3c-2.7-4.8-8.7-6.5-13.5-3.9c-4.8,2.7-6.5,8.7-3.9,13.5L-582.8,1449.8z
					 M-496.2,1086.4l75-41.6l133.8,241.1l-75,41.6L-496.2,1086.4z"/>
				<path class="st0" d="M-513.5,1317.1c9.1,2,22.8,5,44.5-7c20.8-11.5,26.7-37.7,13.8-60.9c-4.2-7.6-11-13.5-19.2-17.2
					c1.3-9-0.2-17.9-4.5-25.5c-12.9-23.2-38.2-32-59-20.5c-21.6,12-26.4,25.3-29.5,34c-2,5.5-2,5.5-5.2,5.8
					c-26.8,2.1-51.8,23.2-59.5,37.5c-4.5,8.4-3.2,14.2-1.3,17.6c5.5,9.9,17.4,6.8,30,3.5c15.4-4,29.5-7,33.5,0.3s-6,17.7-17.5,28.6
					c-9.5,8.9-18.4,17.4-12.9,27.3c1.9,3.4,6.1,7.6,15.7,8.2c16.3,1.1,47.3-9,63.3-30.6C-519.2,1315.8-519.2,1315.8-513.5,1317.1z
					 M-509.3,1297.7c-7.7-1.7-18.2-4-27.8,8.9c-9.3,12.6-26,19.5-37.3,21.8c0.2-0.2,0.4-0.4,0.7-0.6c12.4-11.7,33.1-31.2,21.2-52.6
					c-11.9-21.4-39.4-14.2-55.9-9.9c-0.3,0.1-0.6,0.2-0.9,0.2c8-8.3,22.7-18.8,38.2-20.1c16-1.3,19.6-11.4,22.2-18.8
					c2.5-7,5.3-15,20.4-23.4c11.1-6.1,24.6-0.8,32.1,12.8c2.9,5.3,3.2,12.4,0.6,19c-2.2,5.7,1.4,12.2,7.4,13.3
					c7,1.3,12.7,5.1,15.7,10.4c7.5,13.5,4.9,27.8-6.1,34C-493.7,1301.1-502,1299.3-509.3,1297.7z"/>
			</g>
		</g>
		<path class="st0" d="M215.9,243.5L215.9,243.5c-0.5,0-1-0.3-1.2-0.8l-3.2-7.2l-7.2-3.1c-0.5-0.2-0.8-0.7-0.8-1.2
			c0-0.5,0.3-1,0.8-1.2l7.2-3.1l3.2-7.2c0.4-1,2-1,2.5,0l3.2,7.2l7.2,3.2c0.5,0.2,0.8,0.7,0.8,1.2c0,0.5-0.3,1-0.8,1.2l-7.2,3.2
			l-3.2,7.2C216.9,243.2,216.4,243.5,215.9,243.5z M208.1,231.1l4.9,2.1c0.3,0.1,0.6,0.4,0.7,0.7l2.1,4.9l2.1-4.9
			c0.1-0.3,0.4-0.6,0.7-0.7l4.9-2.1l-4.9-2.1c-0.3-0.1-0.6-0.4-0.7-0.7l-2.1-4.9l-2.1,4.9c-0.1,0.3-0.4,0.6-0.7,0.7L208.1,231.1z"/>
		<path class="st0" d="M287.2,291.4L287.2,291.4c-0.6,0-1.1-0.3-1.3-0.9l-3.4-7.9l-7.9-3.4c-0.5-0.2-0.9-0.8-0.9-1.3
			c0-0.6,0.3-1.1,0.9-1.3l7.9-3.4l3.4-7.9c0.5-1.1,2.2-1.1,2.7,0l3.4,7.9l7.9,3.4c0.5,0.2,0.9,0.8,0.9,1.3c0,0.6-0.3,1.1-0.9,1.3
			l-7.9,3.4l-3.4,7.9C288.3,291,287.8,291.4,287.2,291.4z M278.8,277.8l5.4,2.3c0.3,0.1,0.6,0.4,0.8,0.8l2.3,5.3l2.3-5.3
			c0.2-0.3,0.4-0.6,0.8-0.8l5.3-2.3l-5.3-2.3c-0.3-0.1-0.6-0.4-0.8-0.8l-2.3-5.3l-2.3,5.3c-0.1,0.3-0.4,0.6-0.8,0.8L278.8,277.8z"/>
		<path class="st0" d="M273.7,178.3L273.7,178.3c-0.4,0-0.8-0.3-1-0.6l-2.5-5.7l-5.7-2.5c-0.4-0.2-0.6-0.6-0.6-1
			c0-0.4,0.3-0.8,0.6-1l5.7-2.5l2.5-5.7c0.3-0.8,1.6-0.8,1.9,0l2.5,5.7l5.7,2.5c0.4,0.2,0.6,0.6,0.6,1c0,0.4-0.3,0.8-0.6,1l-5.7,2.5
			l-2.5,5.7C274.5,178.1,274.1,178.3,273.7,178.3z M267.6,168.5l3.9,1.7c0.2,0.1,0.4,0.3,0.5,0.6l1.7,3.9l1.7-3.9
			c0.1-0.2,0.3-0.4,0.6-0.6l3.9-1.7l-3.9-1.7c-0.2-0.1-0.4-0.3-0.6-0.6l-1.7-3.9l-1.7,3.9c-0.1,0.2-0.3,0.4-0.5,0.6L267.6,168.5z"/>
		<g>
			<path class="st0" d="M334.8,258c3.3-1.1,6-1.8,8.2-2.2v-2c-2.4,0.4-5.3,1.1-8.8,2.3c-0.5,0.2-0.8,0.7-0.6,1.3
				C333.7,257.9,334.3,258.1,334.8,258z"/>
			<path class="st0" d="M343,283.5c-0.3-0.1-0.6-0.2-1-0.3c-7.6-2.2-12.2-3.5-15.1-12c-1.2-3.4-3.1-6.8-4.6-9.2
				c3.8,1.7,10.4,4.3,18.6,5.8c0.6,0.1,1.3,0.4,2,0.8v-2.2c-0.6-0.2-1.1-0.4-1.7-0.5c-7.6-1.4-13.8-3.8-17.5-5.4
				c1.7-0.1,3.9-0.4,6.5-1.1c0.5-0.1,0.9-0.7,0.7-1.2c-0.1-0.5-0.7-0.9-1.2-0.7c-5.1,1.3-8.5,1.2-9.8,1.1l-0.5-0.1c0,0,0,0,0,0
				c0,0,0,0-0.1,0c-0.4,0-0.7,0.2-0.9,0.5c-0.2,0.3-0.2,0.7,0,1c0,0.1,0.1,0.1,0.1,0.2c0,0,0,0,0,0c1.1,1.5,4.7,6.6,6.4,11.8
				c1.5,4.5,3.5,7.4,6.5,9.4c1.4,0.9,2.9,1.7,4.6,2.3c1.6,0.6,3.4,1.1,5.3,1.6c0.5,0.1,1,0.3,1.5,0.4V283.5z"/>
		</g>
	</g>
	<g>
		<g>
			<path id="L1_2_3_" class="st0" d="M96.8,306l1.3,7.4c0.5,0.5,0.9,1.1,1.1,1.9l0.7,4.1c0.3,1.7-0.9,3.4-2.6,3.7l-21.8,3.8
				c-0.8,0.1-1.6,0-2.2-0.4l-12.9,0.5l-49.3,8.5c-1.8,0.3-3.5-0.9-3.8-2.7l-0.2-1.4c-0.3-1.8,0.9-3.5,2.7-3.8l49-8.4
				c0.1,0,0.1,0,0.2,0l12.3-0.5c0.3-0.9,0.9-1.6,1.8-1.9l-1.1-6.3c-0.1-0.7,0.4-1.4,1.1-1.6l22.2-3.8
				C95.9,304.8,96.6,305.3,96.8,306z M95.2,312.8l-0.9-4.9l-1.7,0.3l0.4,2.5c0.1,0.7-0.4,1.4-1.1,1.6c-0.7,0.1-1.4-0.4-1.6-1.1
				l-0.4-2.5l-1.6,0.3l0.4,2.5c0.1,0.7-0.4,1.4-1.1,1.6c-0.7,0.1-1.4-0.4-1.6-1.1l-0.4-2.5l-1.6,0.3l0.4,2.5
				c0.1,0.7-0.4,1.4-1.1,1.6c-0.7,0.1-1.4-0.4-1.6-1.1l-0.4-2.5l-1.6,0.3l0.4,2.5c0.1,0.7-0.4,1.4-1.1,1.6c-0.7,0.1-1.4-0.4-1.6-1.1
				l-0.4-2.5l-2.3,0.4l0.9,4.9L95.2,312.8z M9.7,330.9l0.2,1.4c0.1,0.3,0.3,0.5,0.6,0.5l49.4-8.5c0.1,0,0.1,0,0.2,0l11.6-0.5
				c0.1-0.5,0.5-1,1.1-1.1c0.7-0.1,1.4,0.4,1.6,1.1c0,0.3,0.3,0.4,0.5,0.4l21.8-3.8c0.3,0,0.4-0.3,0.4-0.5l-0.7-4.1
				c0-0.3-0.3-0.4-0.5-0.4l-21.8,3.8c-0.3,0-0.4,0.3-0.4,0.5c0,0,0,0,0,0c0,0,0,0,0,0.1c0,0,0,0,0,0.1c0,0,0,0,0,0c0,0,0,0,0,0
				c0,0,0,0.1,0,0.1c0,0,0,0,0,0.1c0,0,0,0,0,0.1c0,0,0,0,0,0.1c0,0,0,0,0,0.1c0,0,0,0,0,0.1c0,0,0,0,0,0.1c0,0,0,0,0,0.1
				c0,0,0,0,0,0.1c0,0,0,0,0,0.1c0,0,0,0,0,0c0,0,0,0,0,0.1c0,0,0,0,0,0c0,0,0,0,0,0.1c0,0,0,0,0,0c0,0,0,0,0,0c0,0,0,0,0,0
				c0,0,0,0,0,0c0,0,0,0-0.1,0c0,0,0,0-0.1,0c0,0,0,0-0.1,0c0,0,0,0-0.1,0c0,0,0,0-0.1,0c0,0,0,0-0.1,0c0,0,0,0,0,0c0,0-0.1,0-0.1,0
				c0,0,0,0,0,0c0,0-0.1,0-0.1,0c0,0,0,0,0,0c0,0,0,0,0,0c0,0-0.1,0-0.1,0c0,0,0,0-0.1,0c0,0,0,0,0,0l-13.3,0.5l-48.9,8.4
				C9.9,330.3,9.7,330.6,9.7,330.9z"/>
		</g>
		<g>
			
				<g id="L1_3_3_" transform="matrix(6.3726626939216995e-18 0.10407347977161407 -0.10407347977161407 6.3726626939216995e-18 186.60642050243575 285.4126708782808)">
				<path class="st0" d="M-186.9,831.2c-0.1-0.1-0.1-0.2-0.2-0.2c-12.6-12.2-28.9-20-46.3-22.2c-2.3,0-4.6,0.6-6.5,1.8l-47.3,30.2
					c-37.9-16.9-75.9-15.9-101.8,2.6c-1.5,0.5-2.9,1.2-4.1,2.3l-468,409.6c-2.4,2.1-3.9,5.2-4,8.4c-0.1,3.2,1.1,6.4,3.4,8.6
					l233.5,233.5c2.2,2.2,5.2,3.4,8.3,3.4h0.4c3.2-0.1,6.3-1.6,8.4-4l409.6-468c1-1.2,1.8-2.6,2.3-4.1c18.6-25.9,19.5-64,2.6-101.8
					l30.2-47.3c1.2-1.9,1.9-4.2,1.8-6.5c-2.2-17.4-9.9-33.7-22.2-46.3C-186.7,831.3-186.8,831.3-186.9,831.2z M-230.7,832.5
					c6.5,1.4,12.6,4.2,18,8l-29.4,29.4c-6.8-6-14-11.4-21.6-16.3L-230.7,832.5z M-291.3,864.5c30.7,15.5,55.7,40.5,71.1,71.2
					c13.2,22.7,15.8,50,7.3,74.8l-153.3-153.4C-341.4,848.7-314,851.3-291.3,864.5z M-585.6,1440.8l-211-210.9l178.3-156
					c-5.3,19.7-4.5,40.5,2.3,59.8c12.8,39.1,46.5,76.2,77.6,107.4c36.8,36.8,43.8,72.4,42.7,96.9L-585.6,1440.8z M-667.6,1433.5
					l20.9-20.8l18.5,18.5l-20.8,20.9L-667.6,1433.5z M-726,1375.1l20.9-20.8l41.8,41.9l-20.8,20.9L-726,1375.1z M-784.4,1316.7
					l20.9-20.8l41.9,41.9l-20.8,20.9L-784.4,1316.7z M-473.8,1312.3c-6.2-33.7-23-64.4-48-87.8c-29.2-29.2-60.6-63.7-72-98.2
					c-10.1-30.8-3.3-58.6,21.3-86.8c-3.8,51.5,42.2,97.5,90.2,145.5C-435.4,1231.9-459.1,1287.6-473.8,1312.3z M-814.1,1245.3
					l34.1,34.1l-20.8,20.9l-33.9-33.9c-0.4-0.4-0.7-0.8-1.2-1.2l-0.4-0.4L-814.1,1245.3z M-620.5,1480.7l-12.1-12.1l20.9-20.8
					l10.7,10.7L-620.5,1480.7z M-432.8,1266.2c5.9-36-6.4-72.7-33-97.7c-72.4-72.4-110.9-116.2-60.9-174.7l140.7-123.2l159.7,159.7
					L-432.8,1266.2z M-209.2,908c-4.9-7.6-10.4-14.8-16.3-21.6l29.4-29.4c3.8,5.4,6.6,11.5,8,18L-209.2,908z"/>
				<path class="st0" d="M-398.1,1160.7c4.8,4.2,12.2,3.8,16.5-1.1l85-97.1c3-3.1,4.1-7.6,2.8-11.7c-1.3-4.1-4.8-7.2-9.1-8
					c-4.3-0.8-8.6,0.9-11.3,4.3l-85,97.1C-403.4,1149-402.9,1156.4-398.1,1160.7z"/>
				<path class="st0" d="M-569.1,1338.4l-21.3,24.3c-4.2,4.9-3.8,12.2,1.1,16.5c4.9,4.2,12.2,3.8,16.5-1.1l21.2-24.3
					c4.2-4.9,3.6-12.2-1.2-16.4C-557.5,1333.2-564.8,1333.6-569.1,1338.4z"/>
			</g>
		</g>
		<g>
			
				<g id="L1_5_3_" transform="matrix(0.08158990820118539 -0.08158990820118539 0.08158990820118539 0.08158990820118539 233.26678721806718 75.9821768935272)">
				<path class="st0" d="M-1656.7,695.4c2.5,0.7,5.3,0.4,7.5-0.9l92.3-51.2c3.7-2.1,5.8-6.5,4.9-10.7l-17-91.2l12.8-7.1l5.4,9.8
					c2.8,5,9.6,6.6,14.3,3.3l87.2-60.4c4.2-2.9,5.5-8.5,3-12.9l-61.4-110.8c-2.5-4.4-7.9-6.3-12.6-4.3l-97.4,42
					c-5.3,2.3-7.5,8.8-4.7,13.9l5.4,9.8l-12.8,7.1l-68.4-62.7c-3.1-3-7.9-3.6-11.6-1.5l-92.3,51.2c-2.3,1.3-4,3.4-4.7,5.9
					l-11.2,39.1l-140.5,78l-39.1-11.2c-2.5-0.7-5.3-0.4-7.5,0.9l-92.3,51.2c-1.9,1-3.4,2.7-4.2,4.6l-21.6,48.2
					c-1.3,2.8-1.1,6.1,0.4,8.8l112.7,203.1c1.5,2.7,4.2,4.6,7.3,5l52.3,7.2c2.1,0.3,4.3-0.1,6.2-1.1l92.3-51.2
					c2.3-1.3,4-3.4,4.7-5.9l11.2-39.1l140.5-78L-1656.7,695.4z M-1468,475.8l-70.8,49.1l-10.4-18.7c0.5-0.2,70.5-49.8,70.5-49.8
					S-1468,475.8-1468,475.8z M-1500.3,417.7l11.8,21.3l-70.4,49.9l-20.6-37.2L-1500.3,417.7z M-1599.9,414.8l79.2-34.1l10.8,19.5
					l-79.2,34.1L-1599.9,414.8z M-1638,451.2c3.1,2.9,7.8,3.4,11.5,1.4l19-10.6l41.6,75l-19,10.6c-3.7,2.1-5.7,6.3-4.9,10.5
					l7.2,38.5l-84.2-151.8L-1638,451.2z M-1995.4,833.4L-2103.2,639l11.5-25.6l124.2,223.8L-1995.4,833.4z M-1870.5,794.6l-75,41.6
					l-133.8-241.1l75-41.6l90.1,162.5c2.7,4.8,8.7,6.5,13.5,3.9c4.8-2.7,6.5-8.7,3.9-13.5l-83.4-150.3l20.1,5.8
					c2.5,0.7,5.2,0.4,7.5-0.9l147.7-81.9c2.3-1.3,4-3.4,4.7-5.9l5.8-20.1l120.2,216.7l-20.1-5.8c-2.5-0.7-5.2-0.4-7.5,0.9
					l-147.7,81.9c-2.3,1.3-4,3.4-4.7,5.9l-5.8,20.1l-14-25.3c-2.7-4.8-8.7-6.5-13.5-3.9c-4.8,2.7-6.5,8.7-3.9,13.5L-1870.5,794.6z
					 M-1783.9,431.3l75-41.6l133.8,241.1l-75,41.6L-1783.9,431.3z"/>
				<path class="st0" d="M-1801.2,661.9c9.1,2,22.8,5,44.5-7c20.8-11.5,26.7-37.7,13.8-60.9c-4.2-7.6-11-13.5-19.2-17.2
					c1.3-9-0.2-17.9-4.5-25.5c-12.9-23.2-38.2-32-59-20.5c-21.6,12-26.4,25.3-29.5,34c-2,5.5-2,5.5-5.2,5.8
					c-26.8,2.1-51.8,23.2-59.5,37.5c-4.5,8.4-3.2,14.2-1.3,17.6c5.5,9.9,17.4,6.8,30,3.5c15.4-4,29.5-7,33.5,0.3
					c4.1,7.3-6,17.7-17.5,28.6c-9.5,8.9-18.4,17.4-12.9,27.3c1.9,3.4,6.1,7.6,15.7,8.2c16.3,1.1,47.3-9,63.3-30.6
					C-1806.9,660.7-1806.9,660.7-1801.2,661.9z M-1796.9,642.6c-7.7-1.7-18.2-4-27.8,8.9c-9.3,12.6-26,19.5-37.3,21.8
					c0.2-0.2,0.4-0.4,0.7-0.6c12.4-11.7,33.1-31.2,21.2-52.6c-11.9-21.4-39.4-14.2-55.9-9.9c-0.3,0.1-0.6,0.2-0.9,0.2
					c8-8.3,22.7-18.8,38.2-20.1c16-1.3,19.6-11.4,22.2-18.8c2.5-7,5.3-15,20.4-23.4c11.1-6.1,24.6-0.8,32.1,12.8
					c2.9,5.3,3.2,12.4,0.6,19c-2.2,5.7,1.4,12.2,7.4,13.3c7,1.3,12.7,5.1,15.7,10.4c7.5,13.5,4.9,27.8-6.1,34
					C-1781.4,646-1789.7,644.2-1796.9,642.6z"/>
			</g>
		</g>
		<path class="st0" d="M57.3,295.1L57.3,295.1c-0.5,0-1-0.3-1.2-0.8L53,287l-7.2-3.1c-0.5-0.2-0.8-0.7-0.8-1.2c0-0.5,0.3-1,0.8-1.2
			l7.2-3.1l3.2-7.2c0.4-1,2-1,2.5,0l3.2,7.2l7.2,3.2c0.5,0.2,0.8,0.7,0.8,1.2c0,0.5-0.3,1-0.8,1.2l-7.2,3.2l-3.2,7.2
			C58.4,294.8,57.9,295.1,57.3,295.1z M49.6,282.7l4.9,2.1c0.3,0.1,0.6,0.4,0.7,0.7l2.1,4.9l2.1-4.9c0.1-0.3,0.4-0.6,0.7-0.7
			l4.9-2.1l-4.9-2.1c-0.3-0.1-0.6-0.4-0.7-0.7l-2.1-4.9l-2.1,4.9c-0.1,0.3-0.4,0.6-0.7,0.7L49.6,282.7z"/>
		<path class="st0" d="M128.7,343L128.7,343c-0.6,0-1.1-0.3-1.3-0.9l-3.4-7.9l-7.9-3.4c-0.5-0.2-0.9-0.8-0.9-1.3
			c0-0.6,0.3-1.1,0.9-1.3l7.9-3.4l3.4-7.9c0.5-1.1,2.2-1.1,2.7,0l3.4,7.9l7.9,3.4c0.5,0.2,0.9,0.8,0.9,1.3c0,0.6-0.3,1.1-0.9,1.3
			l-7.9,3.4l-3.4,7.9C129.8,342.7,129.3,343,128.7,343z M120.3,329.4l5.4,2.3c0.3,0.1,0.6,0.4,0.8,0.8l2.3,5.3l2.3-5.3
			c0.2-0.3,0.4-0.6,0.8-0.8l5.3-2.3l-5.3-2.3c-0.3-0.1-0.6-0.4-0.8-0.8l-2.3-5.3l-2.3,5.3c-0.1,0.3-0.4,0.6-0.8,0.8L120.3,329.4z"/>
		<path class="st0" d="M115.2,230L115.2,230c-0.4,0-0.8-0.3-1-0.6l-2.5-5.7l-5.7-2.5c-0.4-0.2-0.6-0.6-0.6-1c0-0.4,0.3-0.8,0.6-1
			l5.7-2.5l2.5-5.7c0.3-0.8,1.6-0.8,1.9,0l2.5,5.7l5.7,2.5c0.4,0.2,0.6,0.6,0.6,1c0,0.4-0.3,0.8-0.6,1l-5.7,2.5l-2.5,5.7
			C116,229.7,115.6,230,115.2,230z M109,220.1l3.9,1.7c0.2,0.1,0.4,0.3,0.5,0.6l1.7,3.9l1.7-3.9c0.1-0.2,0.3-0.4,0.6-0.6l3.9-1.7
			l-3.9-1.7c-0.2-0.1-0.4-0.3-0.6-0.6l-1.7-3.9l-1.7,3.9c-0.1,0.2-0.3,0.4-0.5,0.6L109,220.1z"/>
		<g>
			<g>
				<path class="st0" d="M224,333.5c0.1-0.4-0.1-0.7-0.4-0.9c0,0,0,0-0.1,0c0,0,0,0,0,0l-0.4-0.3c-4-2.7-7.3-7.6-8.6-9.7
					c-0.1-0.2-0.3-0.4-0.3-0.6c-4.8-7.9-8.1-11.4-11.6-12.2c-0.4-0.1-0.7-0.1-1.1-0.2c-1.6-0.1-3.2,0.4-4.8,1.5
					c-0.1,0.1-0.3,0.2-0.4,0.3c-0.2,0.1-0.4,0.1-0.5,0.1c-0.1,0-0.3-0.1-0.3-0.3c0-0.2-0.1-0.3-0.1-0.5c0,0,0,0,0,0
					c-0.7-2.3-1.9-3.9-3.7-4.8c-3-1.6-7.8-1-16,1.7c-0.5,0.2-0.8,0.7-0.6,1.3c0.2,0.5,0.7,0.8,1.3,0.6c7.5-2.5,11.9-3.1,14.4-1.8
					c1.3,0.6,2.1,1.8,2.7,3.6c0,0.1,0.1,0.2,0.1,0.4c0.2,0.8,0.7,1.4,1.4,1.7c0,0,0.1,0,0.1,0.1c0,0,0,0,0,0
					c0.1,0.1,0.3,0.1,0.4,0.1c0.1,0,0.2,0,0.3,0c0.1,0,0.1,0,0.2,0c0.5,0,1-0.2,1.4-0.5c0.1-0.1,0.2-0.1,0.3-0.2
					c1.6-1.1,3-1.4,4.4-1.1c2.8,0.6,5.9,4,10.3,11.3c0.1,0.2,0.3,0.4,0.4,0.6c0,0.1,0.1,0.1,0.1,0.2c0.1,0.2,0.2,0.4,0.3,0.5
					c0,0,0,0,0,0.1c0.1,0.2,0.3,0.4,0.4,0.6c0,0,0.1,0.1,0.1,0.1c0.1,0.2,0.2,0.3,0.3,0.5c0,0,0,0.1,0.1,0.1
					c0.1,0.2,0.3,0.4,0.4,0.5c0,0,0.1,0.1,0.1,0.1c0.1,0.1,0.2,0.3,0.3,0.4c0,0,0.1,0.1,0.1,0.1c0.1,0.2,0.2,0.3,0.4,0.5
					c0,0,0.1,0.1,0.1,0.1c0.1,0.1,0.2,0.3,0.3,0.4c0,0,0.1,0.1,0.1,0.1c0.1,0.1,0.2,0.3,0.4,0.4c0,0,0,0.1,0.1,0.1
					c0.1,0.1,0.2,0.2,0.3,0.4c0,0,0.1,0.1,0.1,0.1c0.1,0.1,0.2,0.3,0.3,0.4c0,0,0,0,0,0.1c0.1,0.1,0.2,0.2,0.3,0.3
					c0,0,0.1,0.1,0.1,0.1c0.1,0.1,0.2,0.2,0.3,0.4c0,0,0,0,0,0c0.1,0.1,0.2,0.2,0.3,0.3c0,0,0.1,0.1,0.1,0.1
					c0.1,0.1,0.2,0.2,0.3,0.3c0,0,0,0,0,0c0.1,0.1,0.2,0.2,0.3,0.3c0,0,0,0,0,0c-4-1.1-10.3-3.3-17-7c-2.4-1.3-5.8-1.4-8.3-1.2
					c0,0,0,0,0,0c-1.3,0.1-2.7-0.4-3.6-1.3l0,0c-1.8-1.7-4.4-3.9-7.1-4.4c-7.6-1.4-13.8-3.8-17.5-5.4c1.7-0.1,3.9-0.4,6.5-1.1
					c0.5-0.1,0.9-0.7,0.7-1.2c-0.1-0.5-0.7-0.9-1.2-0.7c-5.1,1.3-8.5,1.2-9.8,1.1L161,310c0,0,0,0,0,0c0,0,0,0-0.1,0
					c-0.4,0-0.7,0.2-0.9,0.5c-0.2,0.3-0.2,0.7,0,1c0,0.1,0.1,0.1,0.1,0.2c0,0,0,0,0,0c1.1,1.5,4.7,6.6,6.4,11.8
					c1.5,4.5,3.5,7.4,6.5,9.4c1.4,0.9,2.9,1.7,4.6,2.3c1.6,0.6,3.4,1.1,5.3,1.6c1.1,0.3,2.2,0.6,3.3,1c1.1,0.5,2.2,0.9,3.2,1.4
					c7.1,3.1,12.2,5.4,20.3,0.8c0.5-0.3,0.6-0.9,0.4-1.4c-0.3-0.5-0.9-0.6-1.4-0.4c-7.2,4.1-11.4,2.2-18.5-0.9
					c-1-0.5-2.1-0.9-3.3-1.4c0,0-0.1,0-0.1,0c-1.2-0.4-2.3-0.7-3.4-1c-7.6-2.2-12.2-3.5-15.1-12c-1.2-3.4-3.1-6.8-4.6-9.2
					c3.8,1.7,10.4,4.3,18.6,5.8c1.7,0.3,3.9,1.7,6.1,3.9l0,0c0,0,0,0,0,0c0.7,0.7,1.5,1.2,2.4,1.5c0.9,0.3,1.8,0.4,2.8,0.4
					c0,0,0,0,0,0c0,0,0,0,0,0c3.1-0.3,5.6,0,7.2,0.9c7.3,4.1,14.1,6.3,18.1,7.4c-1.8,0.6-3.9,1.3-6,2.3c-0.5,0.2-0.7,0.8-0.5,1.3
					c0.1,0.3,0.3,0.4,0.6,0.5c0.2,0.1,0.5,0.1,0.8,0c3.9-1.8,7.8-2.9,9.3-3.2c0,0,0,0,0,0c0.2,0,0.4-0.1,0.5-0.3
					C223.8,334,223.9,333.8,224,333.5z"/>
			</g>
		</g>
	</g>
	<g>
		<g>
			<path id="L1_2_1_" class="st0" d="M214.7,110.7l1.3,7.4c0.5,0.5,0.9,1.1,1.1,1.9l0.7,4.1c0.3,1.7-0.9,3.4-2.6,3.7l-21.8,3.8
				c-0.8,0.1-1.6,0-2.2-0.4l-12.9,0.5L129,140c-1.8,0.3-3.5-0.9-3.8-2.7l-0.2-1.4c-0.3-1.8,0.9-3.5,2.7-3.8l49-8.4
				c0.1,0,0.1,0,0.2,0l12.3-0.5c0.3-0.9,0.9-1.6,1.8-1.9l-1.1-6.3c-0.1-0.7,0.4-1.4,1.1-1.6l22.2-3.8
				C213.9,109.4,214.6,109.9,214.7,110.7z M213.2,117.4l-0.9-4.9l-1.7,0.3l0.4,2.5c0.1,0.7-0.4,1.4-1.1,1.6
				c-0.7,0.1-1.4-0.4-1.6-1.1l-0.4-2.5l-1.6,0.3l0.4,2.5c0.1,0.7-0.4,1.4-1.1,1.6c-0.7,0.1-1.4-0.4-1.6-1.1l-0.4-2.5l-1.6,0.3
				l0.4,2.5c0.1,0.7-0.4,1.4-1.1,1.6c-0.7,0.1-1.4-0.4-1.6-1.1l-0.4-2.5l-1.6,0.3l0.4,2.5c0.1,0.7-0.4,1.4-1.1,1.6
				c-0.7,0.1-1.4-0.4-1.6-1.1l-0.4-2.5l-2.3,0.4l0.9,4.9L213.2,117.4z M127.7,135.5l0.2,1.4c0.1,0.3,0.3,0.5,0.6,0.5l49.4-8.5
				c0.1,0,0.1,0,0.2,0l11.6-0.5c0.1-0.5,0.5-1,1.1-1.1c0.7-0.1,1.4,0.4,1.6,1.1c0,0.3,0.3,0.4,0.5,0.4l21.8-3.8
				c0.3,0,0.4-0.3,0.4-0.5l-0.7-4.1c0-0.3-0.3-0.4-0.5-0.4l-21.8,3.8c-0.3,0-0.4,0.3-0.4,0.5c0,0,0,0,0,0c0,0,0,0,0,0.1
				c0,0,0,0,0,0.1c0,0,0,0,0,0c0,0,0,0,0,0c0,0,0,0.1,0,0.1c0,0,0,0,0,0.1c0,0,0,0,0,0.1c0,0,0,0,0,0.1c0,0,0,0,0,0.1c0,0,0,0,0,0.1
				c0,0,0,0,0,0.1c0,0,0,0,0,0.1c0,0,0,0,0,0.1c0,0,0,0,0,0.1c0,0,0,0,0,0c0,0,0,0,0,0.1c0,0,0,0,0,0c0,0,0,0,0,0.1c0,0,0,0,0,0
				c0,0,0,0,0,0c0,0,0,0,0,0c0,0,0,0,0,0c0,0,0,0-0.1,0c0,0,0,0-0.1,0c0,0,0,0-0.1,0c0,0,0,0-0.1,0c0,0,0,0-0.1,0c0,0,0,0-0.1,0
				c0,0,0,0,0,0c0,0-0.1,0-0.1,0c0,0,0,0,0,0c0,0-0.1,0-0.1,0c0,0,0,0,0,0c0,0,0,0,0,0c0,0-0.1,0-0.1,0c0,0,0,0-0.1,0c0,0,0,0,0,0
				l-13.3,0.5l-48.9,8.4C127.8,134.9,127.6,135.2,127.7,135.5z"/>
		</g>
		<g>
			
				<g id="L1_3_1_" transform="matrix(6.3726626939216995e-18 0.10407347977161407 -0.10407347977161407 6.3726626939216995e-18 186.60642050243575 285.4126708782808)">
				<path class="st0" d="M-2064.2-302.3c-0.1-0.1-0.1-0.2-0.2-0.2c-12.6-12.2-28.9-20-46.3-22.2c-2.3,0-4.6,0.6-6.5,1.8l-47.3,30.2
					c-37.9-16.9-75.9-15.9-101.8,2.6c-1.5,0.5-2.9,1.2-4.1,2.3l-468,409.6c-2.4,2.1-3.9,5.2-4,8.4c-0.1,3.2,1.1,6.4,3.4,8.6
					l233.5,233.5c2.2,2.2,5.2,3.4,8.3,3.4h0.4c3.2-0.1,6.3-1.6,8.4-4l409.6-468c1-1.2,1.8-2.6,2.3-4.1c18.6-25.9,19.5-64,2.6-101.8
					l30.2-47.3c1.2-1.9,1.9-4.2,1.8-6.5c-2.2-17.4-9.9-33.7-22.2-46.3C-2064-302.2-2064.2-302.2-2064.2-302.3z M-2108-301
					c6.5,1.4,12.6,4.2,18,8l-29.4,29.4c-6.8-6-14-11.4-21.6-16.3L-2108-301z M-2168.6-268.9c30.7,15.5,55.7,40.5,71.1,71.2
					c13.2,22.7,15.8,50,7.3,74.8l-153.3-153.4C-2218.7-284.8-2191.4-282.1-2168.6-268.9z M-2462.9,307.4l-211-210.9l178.3-156
					c-5.3,19.7-4.5,40.5,2.3,59.8c12.8,39.1,46.5,76.2,77.6,107.4c36.8,36.8,43.8,72.4,42.7,96.9L-2462.9,307.4z M-2544.9,300
					l20.9-20.8l18.5,18.5l-20.8,20.9L-2544.9,300z M-2603.3,241.7l20.9-20.8l41.8,41.9l-20.8,20.9L-2603.3,241.7z M-2661.7,183.3
					l20.9-20.8l41.9,41.9l-20.8,20.9L-2661.7,183.3z M-2351.1,178.8c-6.2-33.7-23-64.4-48-87.8c-29.2-29.2-60.6-63.7-72-98.2
					c-10.1-30.8-3.3-58.6,21.3-86.8c-3.8,51.5,42.2,97.5,90.2,145.5C-2312.7,98.5-2336.5,154.1-2351.1,178.8z M-2691.5,111.8
					l34.1,34.1l-20.8,20.9l-33.9-33.9c-0.4-0.4-0.7-0.8-1.2-1.2l-0.4-0.4L-2691.5,111.8z M-2497.8,347.2l-12.1-12.1l20.9-20.8
					l10.7,10.7L-2497.8,347.2z M-2310.1,132.7c5.9-36-6.4-72.7-33-97.7c-72.4-72.4-110.9-116.2-60.9-174.7l140.7-123.2l159.7,159.7
					L-2310.1,132.7z M-2086.5-225.5c-4.9-7.6-10.4-14.8-16.3-21.6l29.4-29.4c3.8,5.4,6.6,11.5,8,18L-2086.5-225.5z"/>
				<path class="st0" d="M-2275.4,27.2c4.8,4.2,12.2,3.8,16.5-1.1l85-97.1c3-3.1,4.1-7.6,2.8-11.7c-1.3-4.1-4.8-7.2-9.1-8
					c-4.3-0.8-8.6,0.9-11.3,4.3l-85,97.1C-2280.7,15.6-2280.2,22.9-2275.4,27.2z"/>
				<path class="st0" d="M-2446.4,204.9l-21.3,24.3c-4.2,4.9-3.8,12.2,1.1,16.5c4.9,4.2,12.2,3.8,16.5-1.1l21.2-24.3
					c4.2-4.9,3.6-12.2-1.2-16.4C-2434.8,199.7-2442.2,200.2-2446.4,204.9z"/>
			</g>
		</g>
		<g>
			
				<g id="L1_5_1_" transform="matrix(0.08158990820118539 -0.08158990820118539 0.08158990820118539 0.08158990820118539 233.26678721806718 75.9821768935272)">
				<path class="st0" d="M263.5,220.9c2.5,0.7,5.3,0.4,7.5-0.9l92.3-51.2c3.7-2.1,5.8-6.5,4.9-10.7l-17-91.2l12.8-7.1l5.4,9.8
					c2.8,5,9.6,6.6,14.3,3.3l87.2-60.4c4.2-2.9,5.5-8.5,3-12.9l-61.4-110.8c-2.5-4.4-7.9-6.3-12.6-4.3l-97.4,42
					c-5.3,2.3-7.5,8.8-4.7,13.9l5.4,9.8l-12.8,7.1L222-105.4c-3.1-3-7.9-3.6-11.6-1.5l-92.3,51.2c-2.3,1.3-4,3.4-4.7,5.9l-11.2,39.1
					l-140.5,78l-39.1-11.2c-2.5-0.7-5.3-0.4-7.5,0.9l-92.3,51.2c-1.9,1-3.4,2.7-4.2,4.6l-21.6,48.2c-1.3,2.8-1.1,6.1,0.4,8.8
					l112.7,203.1c1.5,2.7,4.2,4.6,7.3,5l52.3,7.2c2.1,0.3,4.3-0.1,6.2-1.1L68,332.7c2.3-1.3,4-3.4,4.7-5.9l11.2-39.1l140.5-78
					L263.5,220.9z M452.2,1.4l-70.8,49.1L371,31.8c0.5-0.2,70.5-49.8,70.5-49.8S452.2,1.4,452.2,1.4z M420-56.8l11.8,21.3
					l-70.4,49.9l-20.6-37.2L420-56.8z M320.3-59.6l79.2-34.1l10.8,19.5L331.2-40L320.3-59.6z M282.2-23.2c3.1,2.9,7.8,3.4,11.5,1.4
					l19-10.6l41.6,75l-19,10.6c-3.7,2.1-5.7,6.3-4.9,10.5l7.2,38.5L253.4-49.7L282.2-23.2z M-75.2,359L-183,164.5l11.5-25.6
					l124.2,223.8L-75.2,359z M49.7,320.2l-75,41.6l-133.8-241.1l75-41.6L6.1,241.6c2.7,4.8,8.7,6.5,13.5,3.9
					c4.8-2.7,6.5-8.7,3.9-13.5L-60,81.7l20.1,5.8c2.5,0.7,5.2,0.4,7.5-0.9L115.3,4.7c2.3-1.3,4-3.4,4.7-5.9l5.8-20.1L246,195.3
					l-20.1-5.8c-2.5-0.7-5.2-0.4-7.5,0.9L70.7,272.4c-2.3,1.3-4,3.4-4.7,5.9l-5.8,20.1l-14-25.3c-2.7-4.8-8.7-6.5-13.5-3.9
					c-4.8,2.7-6.5,8.7-3.9,13.5L49.7,320.2z M136.3-43.2l75-41.6l133.8,241.1l-75,41.6L136.3-43.2z"/>
				<path class="st0" d="M119.1,187.5c9.1,2,22.8,5,44.5-7c20.8-11.5,26.7-37.7,13.8-60.9c-4.2-7.6-11-13.5-19.2-17.2
					c1.3-9-0.2-17.9-4.5-25.5c-12.9-23.2-38.2-32-59-20.5c-21.6,12-26.4,25.3-29.5,34c-2,5.5-2,5.5-5.2,5.8
					c-26.8,2.1-51.8,23.2-59.5,37.5c-4.5,8.4-3.2,14.2-1.3,17.6c5.5,9.9,17.4,6.8,30,3.5c15.4-4,29.5-7,33.5,0.3
					c4.1,7.3-6,17.7-17.5,28.6c-9.5,8.9-18.4,17.4-12.9,27.3c1.9,3.4,6.1,7.6,15.7,8.2c16.3,1.1,47.3-9,63.3-30.6
					C113.4,186.3,113.4,186.3,119.1,187.5z M123.3,168.2c-7.7-1.7-18.2-4-27.8,8.9c-9.3,12.6-26,19.5-37.3,21.8
					c0.2-0.2,0.4-0.4,0.7-0.6C71.3,186.6,92,167,80.1,145.7s-39.4-14.2-55.9-9.9c-0.3,0.1-0.6,0.2-0.9,0.2
					c8-8.3,22.7-18.8,38.2-20.1c16-1.3,19.6-11.4,22.2-18.8c2.5-7,5.3-15,20.4-23.4c11.1-6.1,24.6-0.8,32.1,12.8
					c2.9,5.3,3.2,12.4,0.6,19c-2.2,5.7,1.4,12.2,7.4,13.3c7,1.3,12.7,5.1,15.7,10.4c7.5,13.5,4.9,27.8-6.1,34
					C138.8,171.6,130.6,169.8,123.3,168.2z"/>
			</g>
		</g>
		<path class="st0" d="M175.3,99.7L175.3,99.7c-0.5,0-1-0.3-1.2-0.8l-3.2-7.2l-7.2-3.1c-0.5-0.2-0.8-0.7-0.8-1.2
			c0-0.5,0.3-1,0.8-1.2l7.2-3.1l3.2-7.2c0.4-1,2-1,2.5,0l3.2,7.2l7.2,3.2c0.5,0.2,0.8,0.7,0.8,1.2c0,0.5-0.3,1-0.8,1.2l-7.2,3.2
			l-3.2,7.2C176.3,99.4,175.8,99.7,175.3,99.7z M167.6,87.3l4.9,2.1c0.3,0.1,0.6,0.4,0.7,0.7l2.1,4.9l2.1-4.9
			c0.1-0.3,0.4-0.6,0.7-0.7l4.9-2.1l-4.9-2.1c-0.3-0.1-0.6-0.4-0.7-0.7l-2.1-4.9l-2.1,4.9c-0.1,0.3-0.4,0.6-0.7,0.7L167.6,87.3z"/>
		<path class="st0" d="M246.7,147.6L246.7,147.6c-0.6,0-1.1-0.3-1.3-0.9l-3.4-7.9l-7.9-3.4c-0.5-0.2-0.9-0.8-0.9-1.3
			c0-0.6,0.3-1.1,0.9-1.3l7.9-3.4l3.4-7.9c0.5-1.1,2.2-1.1,2.7,0l3.4,7.9l7.9,3.4c0.5,0.2,0.9,0.8,0.9,1.3c0,0.6-0.3,1.1-0.9,1.3
			l-7.9,3.4l-3.4,7.9C247.8,147.3,247.2,147.6,246.7,147.6z M238.2,134.1l5.4,2.3c0.3,0.1,0.6,0.4,0.8,0.8l2.3,5.3l2.3-5.3
			c0.2-0.3,0.4-0.6,0.8-0.8l5.3-2.3l-5.3-2.3c-0.3-0.1-0.6-0.4-0.8-0.8l-2.3-5.3l-2.3,5.3c-0.1,0.3-0.4,0.6-0.8,0.8L238.2,134.1z"/>
		<path class="st0" d="M233.2,34.6L233.2,34.6c-0.4,0-0.8-0.3-1-0.6l-2.5-5.7l-5.7-2.5c-0.4-0.2-0.6-0.6-0.6-1c0-0.4,0.3-0.8,0.6-1
			l5.7-2.5l2.5-5.7c0.3-0.8,1.6-0.8,1.9,0l2.5,5.7l5.7,2.5c0.4,0.2,0.6,0.6,0.6,1c0,0.4-0.3,0.8-0.6,1l-5.7,2.5l-2.5,5.7
			C234,34.3,233.6,34.6,233.2,34.6z M227,24.7l3.9,1.7c0.2,0.1,0.4,0.3,0.5,0.6l1.7,3.9l1.7-3.9c0.1-0.2,0.3-0.4,0.6-0.6l3.9-1.7
			l-3.9-1.7c-0.2-0.1-0.4-0.3-0.6-0.6l-1.7-3.9l-1.7,3.9c-0.1,0.2-0.3,0.4-0.5,0.6L227,24.7z"/>
		<g>
			<g>
				<path class="st0" d="M341.9,138.2c0.1-0.4-0.1-0.7-0.4-0.9c0,0,0,0-0.1,0c0,0,0,0,0,0l-0.4-0.3c-4-2.7-7.3-7.6-8.6-9.7
					c-0.1-0.2-0.3-0.4-0.3-0.6c-4.8-7.9-8.1-11.4-11.6-12.2c-0.4-0.1-0.7-0.1-1.1-0.2c-1.6-0.1-3.2,0.4-4.8,1.5
					c-0.1,0.1-0.3,0.2-0.4,0.3c-0.2,0.1-0.4,0.1-0.5,0.1c-0.1,0-0.3-0.1-0.3-0.3c0-0.2-0.1-0.3-0.1-0.5c0,0,0,0,0,0
					c-0.7-2.3-1.9-3.9-3.7-4.8c-3-1.6-7.8-1-16,1.7c-0.5,0.2-0.8,0.7-0.6,1.3c0.2,0.5,0.7,0.8,1.3,0.6c7.5-2.5,11.9-3.1,14.4-1.8
					c1.3,0.6,2.1,1.8,2.7,3.6c0,0.1,0.1,0.2,0.1,0.4c0.2,0.8,0.7,1.4,1.4,1.7c0,0,0.1,0,0.1,0.1c0,0,0,0,0,0
					c0.1,0.1,0.3,0.1,0.4,0.1c0.1,0,0.2,0,0.3,0c0.1,0,0.1,0,0.2,0c0.5,0,1-0.2,1.4-0.5c0.1-0.1,0.2-0.1,0.3-0.2
					c1.6-1.1,3-1.4,4.4-1.1c2.8,0.6,5.9,4,10.3,11.3c0.1,0.2,0.3,0.4,0.4,0.6c0,0.1,0.1,0.1,0.1,0.2c0.1,0.2,0.2,0.4,0.3,0.5
					c0,0,0,0,0,0.1c0.1,0.2,0.3,0.4,0.4,0.6c0,0,0.1,0.1,0.1,0.1c0.1,0.2,0.2,0.3,0.3,0.5c0,0,0,0.1,0.1,0.1
					c0.1,0.2,0.3,0.4,0.4,0.5c0,0,0.1,0.1,0.1,0.1c0.1,0.1,0.2,0.3,0.3,0.4c0,0,0.1,0.1,0.1,0.1c0.1,0.2,0.2,0.3,0.4,0.5
					c0,0,0.1,0.1,0.1,0.1c0.1,0.1,0.2,0.3,0.3,0.4c0,0,0.1,0.1,0.1,0.1c0.1,0.1,0.2,0.3,0.4,0.4c0,0,0,0.1,0.1,0.1
					c0.1,0.1,0.2,0.2,0.3,0.4c0,0,0.1,0.1,0.1,0.1c0.1,0.1,0.2,0.3,0.3,0.4c0,0,0,0,0,0.1c0.1,0.1,0.2,0.2,0.3,0.3
					c0,0,0.1,0.1,0.1,0.1c0.1,0.1,0.2,0.2,0.3,0.4c0,0,0,0,0,0c0.1,0.1,0.2,0.2,0.3,0.3c0,0,0.1,0.1,0.1,0.1
					c0.1,0.1,0.2,0.2,0.3,0.3c0,0,0,0,0,0c0.1,0.1,0.2,0.2,0.3,0.3c0,0,0,0,0,0c-4-1.1-10.3-3.3-17-7c-2.4-1.3-5.8-1.4-8.3-1.2
					c0,0,0,0,0,0c-1.3,0.1-2.7-0.4-3.6-1.3l0,0c-1.8-1.7-4.4-3.9-7.1-4.4c-7.6-1.4-13.8-3.8-17.5-5.4c1.7-0.1,3.9-0.4,6.5-1.1
					c0.5-0.1,0.9-0.7,0.7-1.2c-0.1-0.5-0.7-0.9-1.2-0.7c-5.1,1.3-8.5,1.2-9.8,1.1l-0.5-0.1c0,0,0,0,0,0c0,0,0,0-0.1,0
					c-0.4,0-0.7,0.2-0.9,0.5c-0.2,0.3-0.2,0.7,0,1c0,0.1,0.1,0.1,0.1,0.2c0,0,0,0,0,0c1.1,1.5,4.7,6.6,6.4,11.8
					c1.5,4.5,3.5,7.4,6.5,9.4c1.4,0.9,2.9,1.7,4.6,2.3c1.6,0.6,3.4,1.1,5.3,1.6c1.1,0.3,2.2,0.6,3.3,1c1.1,0.5,2.2,0.9,3.2,1.4
					c7.1,3.1,12.2,5.4,20.3,0.8c0.5-0.3,0.6-0.9,0.4-1.4c-0.3-0.5-0.9-0.6-1.4-0.4c-7.2,4.1-11.4,2.2-18.5-0.9
					c-1-0.5-2.1-0.9-3.3-1.4c0,0-0.1,0-0.1,0c-1.2-0.4-2.3-0.7-3.4-1c-7.6-2.2-12.2-3.5-15.1-12c-1.2-3.4-3.1-6.8-4.6-9.2
					c3.8,1.7,10.4,4.3,18.6,5.8c1.7,0.3,3.9,1.7,6.1,3.9l0,0c0,0,0,0,0,0c0.7,0.7,1.5,1.2,2.4,1.5c0.9,0.3,1.8,0.4,2.8,0.4
					c0,0,0,0,0,0c0,0,0,0,0,0c3.1-0.3,5.6,0,7.2,0.9c7.3,4.1,14.1,6.3,18.1,7.4c-1.8,0.6-3.9,1.3-6,2.3c-0.5,0.2-0.7,0.8-0.5,1.3
					c0.1,0.3,0.3,0.4,0.6,0.5c0.2,0.1,0.5,0.1,0.8,0c3.9-1.8,7.8-2.9,9.3-3.2c0,0,0,0,0,0c0.2,0,0.4-0.1,0.5-0.3
					C341.8,138.6,341.9,138.4,341.9,138.2z"/>
			</g>
		</g>
	</g>
	<g>
		<path class="st0" d="M56.8,173.1l-0.7-4.1c-0.1-0.8-0.5-1.4-1.1-1.9l-1.3-7.4c-0.1-0.7-0.8-1.2-1.6-1.1L30,162.6
			c-0.7,0.1-1.2,0.8-1.1,1.6l1.1,6.3c-0.9,0.4-1.5,1.1-1.8,1.9l-12.3,0.5c-0.1,0-0.1,0-0.2,0L0,175.6v2.7l16.1-2.8l13.3-0.5
			c0,0,0,0,0,0c0,0,0,0,0.1,0c0,0,0.1,0,0.1,0c0,0,0,0,0,0c0,0,0,0,0,0c0,0,0.1,0,0.1,0c0,0,0,0,0,0c0,0,0.1,0,0.1,0c0,0,0,0,0,0
			c0,0,0,0,0.1,0c0,0,0,0,0.1,0c0,0,0,0,0.1,0c0,0,0,0,0.1,0c0,0,0,0,0.1,0c0,0,0,0,0.1,0c0,0,0,0,0,0c0,0,0,0,0,0c0,0,0,0,0,0
			c0,0,0,0,0,0c0,0,0,0,0-0.1c0,0,0,0,0,0c0,0,0,0,0-0.1c0,0,0,0,0,0c0,0,0,0,0-0.1c0,0,0,0,0-0.1c0,0,0,0,0-0.1c0,0,0,0,0-0.1
			c0,0,0,0,0-0.1c0,0,0,0,0-0.1c0,0,0,0,0-0.1c0,0,0,0,0-0.1c0,0,0,0,0-0.1c0,0,0-0.1,0-0.1c0,0,0,0,0,0c0,0,0,0,0,0c0,0,0,0,0-0.1
			c0,0,0,0,0-0.1c0,0,0,0,0,0c0-0.3,0.1-0.5,0.4-0.5l21.8-3.8c0.3,0,0.5,0.1,0.5,0.4l0.7,4.1c0,0.3-0.1,0.5-0.4,0.5L32,177.9
			c-0.3,0-0.5-0.1-0.5-0.4c-0.1-0.7-0.8-1.2-1.6-1.1c-0.6,0.1-1,0.5-1.1,1.1L17.2,178c-0.1,0-0.1,0-0.2,0l-17,2.9v2.7l17.4-3
			l12.9-0.5c0.6,0.4,1.4,0.6,2.2,0.4l21.8-3.8C55.9,176.5,57.1,174.9,56.8,173.1z M32.6,169.9l-0.9-4.9l2.3-0.4l0.4,2.5
			c0.1,0.7,0.8,1.2,1.6,1.1c0.7-0.1,1.2-0.8,1.1-1.6l-0.4-2.5l1.6-0.3l0.4,2.5c0.1,0.7,0.8,1.2,1.6,1.1c0.7-0.1,1.2-0.8,1.1-1.6
			l-0.4-2.5l1.6-0.3l0.4,2.5c0.1,0.7,0.8,1.2,1.6,1.1s1.2-0.8,1.1-1.6l-0.4-2.5l1.6-0.3l0.4,2.5c0.1,0.7,0.8,1.2,1.6,1.1
			c0.7-0.1,1.2-0.8,1.1-1.6l-0.4-2.5l1.7-0.3l0.9,4.9L32.6,169.9z"/>
		<g>
			<path class="st0" d="M59.2,114.2l-3.1-4.9c1.8-3.9,1.7-7.9-0.3-10.6c0-0.2-0.1-0.3-0.2-0.4L12.9,49.6c-0.2-0.3-0.5-0.4-0.9-0.4
				c-0.3,0-0.7,0.1-0.9,0.4L0,60.7v3.4l0.5-0.5l2.2,2.2L0,68.5v3.4l15.6-15.6l16.2,18.6c-2.1-0.5-4.2-0.5-6.2,0.2
				c-4.1,1.3-7.9,4.8-11.2,8.1c-3.8,3.8-7.5,4.6-10.1,4.4L0,83.8V87l35.6,31.2c0.1,0.1,0.3,0.2,0.4,0.2c2.7,1.9,6.7,2,10.6,0.3
				l4.9,3.1c0.2,0.1,0.4,0.2,0.7,0.2c1.8-0.2,3.5-1,4.8-2.3c0,0,0,0,0,0c0,0,0,0,0,0c1.3-1.3,2.1-3,2.3-4.8
				C59.4,114.7,59.4,114.4,59.2,114.2z M4.4,64.1l-2.2-2.2l4.4-4.4l2.2,2.2L4.4,64.1z M10.4,58l-2.2-2.2l3.5-3.5
				c0,0,0.1-0.1,0.1-0.1l0,0l2,2.3L10.4,58z M16.2,84.9c3-3,6.6-6.3,10.2-7.5c3.2-1.1,6.1-0.3,9,2.2C30.1,79.2,25.3,84,20.3,89
				C15.4,93.9,9.6,91.4,7,89.9C10.5,89.2,13.7,87.5,16.2,84.9z M11.8,94.1c3.8,0.6,7.6-0.7,10.2-3.4c7.5-7.5,12.1-11.5,18.2-6.3
				L53,99l-16.6,16.6L11.8,94.1z M46.2,116.3c-2.4,1.4-5.2,1.6-7.8,0.8l16-16c0.9,2.6,0.6,5.4-0.8,7.8
				C52,112.1,49.4,114.7,46.2,116.3z M52.5,119.6l-3.4-2.2c0.8-0.5,1.5-1.1,2.2-1.7l3.1,3.1C53.8,119.2,53.2,119.5,52.5,119.6z
				 M56.1,117l-3.1-3.1c0.6-0.7,1.2-1.5,1.7-2.2l2.2,3.4C56.8,115.8,56.5,116.5,56.1,117z"/>
			<path class="st0" d="M22.8,97.8c-0.4,0.5-0.4,1.3,0.1,1.7l10.1,8.8c0.3,0.3,0.8,0.4,1.2,0.3c0.4-0.1,0.7-0.5,0.8-0.9
				c0.1-0.4-0.1-0.9-0.4-1.2l-10.1-8.8C24,97.2,23.2,97.3,22.8,97.8z"/>
			<path class="st0" d="M4.3,80l-2.5-2.2c-0.5-0.4-1.3-0.4-1.7,0.1c0,0,0,0.1-0.1,0.1v1.4c0.1,0.1,0.1,0.2,0.2,0.2l2.5,2.2
				c0.5,0.4,1.3,0.4,1.7-0.1S4.8,80.4,4.3,80z"/>
		</g>
		<g>
			
				<g id="L1_5_4_" transform="matrix(0.08158990820118539 -0.08158990820118539 0.08158990820118539 0.08158990820118539 233.26678721806718 75.9821768935272)">
				<path class="st0" d="M-1024.2-464.3c2.5,0.7,5.3,0.4,7.5-0.9l92.3-51.2c3.7-2.1,5.8-6.5,4.9-10.7l-17-91.2l12.8-7.1l5.4,9.8
					c2.8,5,9.6,6.6,14.3,3.3l87.2-60.4c4.2-2.9,5.5-8.5,3-12.9l-61.4-110.8c-2.5-4.4-7.9-6.3-12.6-4.3l-97.4,42
					c-5.3,2.3-7.5,8.8-4.7,13.9l5.4,9.8l-12.8,7.1l-68.4-62.7c-3.1-3-7.9-3.6-11.6-1.5l-92.3,51.2c-2.3,1.3-4,3.4-4.7,5.9
					l-11.2,39.1l-140.5,78l-39.1-11.2c-2.5-0.7-5.3-0.4-7.5,0.9l-92.3,51.2c-1.9,1-3.4,2.7-4.2,4.6l-21.6,48.2
					c-1.3,2.8-1.1,6.1,0.4,8.8l112.7,203.1c1.5,2.7,4.2,4.6,7.3,5l52.3,7.2c2.1,0.3,4.3-0.1,6.2-1.1l92.3-51.2
					c2.3-1.3,4-3.4,4.7-5.9l11.2-39.1l140.5-78L-1024.2-464.3z M-835.4-683.8l-70.8,49.1l-10.4-18.7c0.5-0.2,70.5-49.8,70.5-49.8
					S-835.4-683.8-835.4-683.8z M-867.7-742l11.8,21.3l-70.4,49.9l-20.6-37.2L-867.7-742z M-967.3-744.8l79.2-34.1l10.8,19.5
					l-79.2,34.1L-967.3-744.8z M-1005.4-708.5c3.1,2.9,7.8,3.4,11.5,1.4l19-10.6l41.6,75l-19,10.6c-3.7,2.1-5.7,6.3-4.9,10.5
					l7.2,38.5l-84.2-151.8L-1005.4-708.5z M-1362.8-326.3l-107.9-194.4l11.5-25.6l124.2,223.8L-1362.8-326.3z M-1238-365l-75,41.6
					l-133.8-241.1l75-41.6l90.1,162.5c2.7,4.8,8.7,6.5,13.5,3.9c4.8-2.7,6.5-8.7,3.9-13.5l-83.4-150.3l20.1,5.8
					c2.5,0.7,5.2,0.4,7.5-0.9l147.7-81.9c2.3-1.3,4-3.4,4.7-5.9l5.8-20.1l120.2,216.7l-20.1-5.8c-2.5-0.7-5.2-0.4-7.5,0.9
					l-147.7,81.9c-2.3,1.3-4,3.4-4.7,5.9l-5.8,20.1l-14-25.3c-2.7-4.8-8.7-6.5-13.5-3.9c-4.8,2.7-6.5,8.7-3.9,13.5L-1238-365z
					 M-1151.4-728.4l75-41.6l133.8,241.1l-75,41.6L-1151.4-728.4z"/>
				<path class="st0" d="M-1168.6-497.7c9.1,2,22.8,5,44.5-7c20.8-11.5,26.7-37.7,13.8-60.9c-4.2-7.6-11-13.5-19.2-17.2
					c1.3-9-0.2-17.9-4.5-25.5c-12.9-23.2-38.2-32-59-20.5c-21.6,12-26.4,25.3-29.5,34c-2,5.5-2,5.5-5.2,5.8
					c-26.8,2.1-51.8,23.2-59.5,37.5c-4.5,8.4-3.2,14.2-1.3,17.6c5.5,9.9,17.4,6.8,30,3.5c15.4-4,29.5-7,33.5,0.3
					c4.1,7.3-6,17.7-17.5,28.6c-9.5,8.9-18.4,17.4-12.9,27.3c1.9,3.4,6.1,7.6,15.7,8.2c16.3,1.1,47.3-9,63.3-30.6
					C-1174.3-499-1174.3-499-1168.6-497.7z M-1164.4-517.1c-7.7-1.7-18.2-4-27.8,8.9c-9.3,12.6-26,19.5-37.3,21.8
					c0.2-0.2,0.4-0.4,0.7-0.6c12.4-11.7,33.1-31.2,21.2-52.6c-11.9-21.4-39.4-14.2-55.9-9.9c-0.3,0.1-0.6,0.2-0.9,0.2
					c8-8.3,22.7-18.8,38.2-20.1c16-1.3,19.6-11.4,22.2-18.8c2.5-7,5.3-15,20.4-23.4c11.1-6.1,24.6-0.8,32.1,12.8
					c2.9,5.3,3.2,12.4,0.6,19c-2.2,5.7,1.4,12.2,7.4,13.3c7,1.3,12.7,5.1,15.7,10.4c7.5,13.5,4.9,27.8-6.1,34
					C-1148.9-513.7-1157.1-515.5-1164.4-517.1z"/>
			</g>
		</g>
		<path class="st0" d="M14.3,148.9L14.3,148.9c-0.5,0-1-0.3-1.2-0.8l-3.2-7.2l-7.2-3.1c-0.5-0.2-0.8-0.7-0.8-1.2
			c0-0.5,0.3-1,0.8-1.2l7.2-3.1l3.2-7.2c0.4-1,2-1,2.5,0l3.2,7.2l7.2,3.2c0.5,0.2,0.8,0.7,0.8,1.2c0,0.5-0.3,1-0.8,1.2l-7.2,3.2
			l-3.2,7.2C15.3,148.5,14.9,148.9,14.3,148.9z M6.6,136.4l4.9,2.1c0.3,0.1,0.6,0.4,0.7,0.7l2.1,4.9l2.1-4.9
			c0.1-0.3,0.4-0.6,0.7-0.7l4.9-2.1l-4.9-2.1c-0.3-0.1-0.6-0.4-0.7-0.7l-2.1-4.9l-2.1,4.9c-0.1,0.3-0.4,0.6-0.7,0.7L6.6,136.4z"/>
		<path class="st0" d="M85.7,196.8L85.7,196.8c-0.6,0-1.1-0.3-1.3-0.9l-3.4-7.9l-7.9-3.4c-0.5-0.2-0.9-0.8-0.9-1.3
			c0-0.6,0.3-1.1,0.9-1.3l7.9-3.4l3.4-7.9c0.5-1.1,2.2-1.1,2.7,0l3.4,7.9l7.9,3.4c0.5,0.2,0.9,0.8,0.9,1.3c0,0.6-0.3,1.1-0.9,1.3
			l-7.9,3.4l-3.4,7.9C86.8,196.4,86.3,196.8,85.7,196.8z M77.3,183.2l5.4,2.3c0.3,0.1,0.6,0.4,0.8,0.8l2.3,5.3l2.3-5.3
			c0.2-0.3,0.4-0.6,0.8-0.8l5.3-2.3l-5.3-2.3c-0.3-0.1-0.6-0.4-0.8-0.8l-2.3-5.3l-2.3,5.3c-0.1,0.3-0.4,0.6-0.8,0.8L77.3,183.2z"/>
		<path class="st0" d="M72.2,83.7L72.2,83.7c-0.4,0-0.8-0.3-1-0.6l-2.5-5.7L63,74.8c-0.4-0.2-0.6-0.6-0.6-1c0-0.4,0.3-0.8,0.6-1
			l5.7-2.5l2.5-5.7c0.3-0.8,1.6-0.8,1.9,0l2.5,5.7l5.7,2.5c0.4,0.2,0.6,0.6,0.6,1c0,0.4-0.3,0.8-0.6,1l-5.7,2.5l-2.5,5.7
			C73,83.5,72.6,83.7,72.2,83.7z M66,73.9l3.9,1.7c0.2,0.1,0.4,0.3,0.5,0.6l1.7,3.9l1.7-3.9c0.1-0.2,0.3-0.4,0.6-0.6l3.9-1.7
			l-3.9-1.7c-0.2-0.1-0.4-0.3-0.6-0.6l-1.7-3.9l-1.7,3.9c-0.1,0.2-0.3,0.4-0.5,0.6L66,73.9z"/>
		<g>
			<g>
				<path class="st0" d="M180.9,187.3c0.1-0.4-0.1-0.7-0.4-0.9c0,0,0,0-0.1,0c0,0,0,0,0,0l-0.4-0.3c-4-2.7-7.3-7.6-8.6-9.7
					c-0.1-0.2-0.3-0.4-0.3-0.6c-4.8-7.9-8.1-11.4-11.6-12.2c-0.4-0.1-0.7-0.1-1.1-0.2c-1.6-0.1-3.2,0.4-4.8,1.5
					c-0.1,0.1-0.3,0.2-0.4,0.3c-0.2,0.1-0.4,0.1-0.5,0.1c-0.1,0-0.3-0.1-0.3-0.3c0-0.2-0.1-0.3-0.1-0.5c0,0,0,0,0,0
					c-0.7-2.3-1.9-3.9-3.7-4.8c-3-1.6-7.8-1-16,1.7c-0.5,0.2-0.8,0.7-0.6,1.3c0.2,0.5,0.7,0.8,1.3,0.6c7.5-2.5,11.9-3.1,14.4-1.8
					c1.3,0.6,2.1,1.8,2.7,3.6c0,0.1,0.1,0.2,0.1,0.4c0.2,0.8,0.7,1.4,1.4,1.7c0,0,0.1,0,0.1,0.1c0,0,0,0,0,0
					c0.1,0.1,0.3,0.1,0.4,0.1c0.1,0,0.2,0,0.3,0c0.1,0,0.1,0,0.2,0c0.5,0,1-0.2,1.4-0.5c0.1-0.1,0.2-0.1,0.3-0.2
					c1.6-1.1,3-1.4,4.4-1.1c2.8,0.6,5.9,4,10.3,11.3c0.1,0.2,0.3,0.4,0.4,0.6c0,0.1,0.1,0.1,0.1,0.2c0.1,0.2,0.2,0.4,0.3,0.5
					c0,0,0,0,0,0.1c0.1,0.2,0.3,0.4,0.4,0.6c0,0,0.1,0.1,0.1,0.1c0.1,0.2,0.2,0.3,0.3,0.5c0,0,0,0.1,0.1,0.1
					c0.1,0.2,0.3,0.4,0.4,0.5c0,0,0.1,0.1,0.1,0.1c0.1,0.1,0.2,0.3,0.3,0.4c0,0,0.1,0.1,0.1,0.1c0.1,0.2,0.2,0.3,0.4,0.5
					c0,0,0.1,0.1,0.1,0.1c0.1,0.1,0.2,0.3,0.3,0.4c0,0,0.1,0.1,0.1,0.1c0.1,0.1,0.2,0.3,0.4,0.4c0,0,0,0.1,0.1,0.1
					c0.1,0.1,0.2,0.2,0.3,0.4c0,0,0.1,0.1,0.1,0.1c0.1,0.1,0.2,0.3,0.3,0.4c0,0,0,0,0,0.1c0.1,0.1,0.2,0.2,0.3,0.3
					c0,0,0.1,0.1,0.1,0.1c0.1,0.1,0.2,0.2,0.3,0.4c0,0,0,0,0,0c0.1,0.1,0.2,0.2,0.3,0.3c0,0,0.1,0.1,0.1,0.1
					c0.1,0.1,0.2,0.2,0.3,0.3c0,0,0,0,0,0c0.1,0.1,0.2,0.2,0.3,0.3c0,0,0,0,0,0c-4-1.1-10.3-3.3-17-7c-2.4-1.3-5.8-1.4-8.3-1.2
					c0,0,0,0,0,0c-1.3,0.1-2.7-0.4-3.6-1.3l0,0c-1.8-1.7-4.4-3.9-7.1-4.4c-7.6-1.4-13.8-3.8-17.5-5.4c1.7-0.1,3.9-0.4,6.5-1.1
					c0.5-0.1,0.9-0.7,0.7-1.2c-0.1-0.5-0.7-0.9-1.2-0.7c-5.1,1.3-8.5,1.2-9.8,1.1l-0.5-0.1c0,0,0,0,0,0c0,0,0,0-0.1,0
					c-0.4,0-0.7,0.2-0.9,0.5c-0.2,0.3-0.2,0.7,0,1c0,0.1,0.1,0.1,0.1,0.2c0,0,0,0,0,0c1.1,1.5,4.7,6.6,6.4,11.8
					c1.5,4.5,3.5,7.4,6.5,9.4c1.4,0.9,2.9,1.7,4.6,2.3c1.6,0.6,3.4,1.1,5.3,1.6c1.1,0.3,2.2,0.6,3.3,1c1.1,0.5,2.2,0.9,3.2,1.4
					c7.1,3.1,12.2,5.4,20.3,0.8c0.5-0.3,0.6-0.9,0.4-1.4c-0.3-0.5-0.9-0.6-1.4-0.4c-7.2,4.1-11.4,2.2-18.5-0.9
					c-1-0.5-2.1-0.9-3.3-1.4c0,0-0.1,0-0.1,0c-1.2-0.4-2.3-0.7-3.4-1c-7.6-2.2-12.2-3.5-15.1-12c-1.2-3.4-3.1-6.8-4.6-9.2
					c3.8,1.7,10.4,4.3,18.6,5.8c1.7,0.3,3.9,1.7,6.1,3.9l0,0c0,0,0,0,0,0c0.7,0.7,1.5,1.2,2.4,1.5c0.9,0.3,1.8,0.4,2.8,0.4
					c0,0,0,0,0,0c0,0,0,0,0,0c3.1-0.3,5.6,0,7.2,0.9c7.3,4.1,14.1,6.3,18.1,7.4c-1.8,0.6-3.9,1.3-6,2.3c-0.5,0.2-0.7,0.8-0.5,1.3
					c0.1,0.3,0.3,0.4,0.6,0.5c0.2,0.1,0.5,0.1,0.8,0c3.9-1.8,7.8-2.9,9.3-3.2c0,0,0,0,0,0c0.2,0,0.4-0.1,0.5-0.3
					C180.8,187.7,180.9,187.5,180.9,187.3z"/>
			</g>
		</g>
	</g>
</g>
</svg>
