<?xml version="1.0" encoding="utf-8"?>
<!-- Generator: Adobe Illustrator 22.1.0, SVG Export Plug-In . SVG Version: 6.00 Build 0)  -->
<svg version="1.1" fill="#fff" xmlns="http://www.w3.org/2000/svg" xmlns:xlink="http://www.w3.org/1999/xlink" x="0px" y="0px"
	 viewBox="0 0 322.6 322.2" style="enable-background:new 0 0 322.6 322.2;" xml:space="preserve">
<path d="M314.7,7.5c-10-10-25.9-10-35.9,0L161.1,125.2L43.3,7.5c-10-10-25.9-10-35.9,0s-10,25.9,0,35.9l117.8,117.8L7.5,278.9
	c-10,10-10,25.9,0,35.9c5,5,11.4,7.5,18,7.5s13.1-2.5,18-7.5L161.3,197l117.8,117.8c5,5,11.4,7.5,18,7.5c6.6,0,13.1-2.5,18-7.5
	c10-10,10-25.9,0-35.9L197,161.1L314.7,43.3C324.7,33.4,324.7,17.4,314.7,7.5z"/>
</svg>
