<?xml version="1.0" encoding="utf-8"?>
<!-- Generator: Adobe Illustrator 22.1.0, SVG Export Plug-In . SVG Version: 6.00 Build 0)  -->
<svg version="1.1" id="Layer_1" xmlns="http://www.w3.org/2000/svg" xmlns:xlink="http://www.w3.org/1999/xlink" x="0px" y="0px"
	 viewBox="0 0 238 182.1" style="enable-background:new 0 0 238 182.1;" xml:space="preserve">
<style type="text/css">
	.st0{fill-rule:evenodd;clip-rule:evenodd;}
</style>
<g>
	<g>
		<path class="st0" d="M4.6,0C2,0,0,2,0,4.5c2.3,65.2,53.9,117.9,118.8,122.2c2.8,0.2,5.7,0.1,8.6,0.1c9.2,0,18.8-1.6,27.5-3.5
			c28-6.1,48.8-30.9,48.8-60.9c0-2.1-0.1-4.1-0.3-6.1c-0.4-3.7-1.1-7.4-2.1-10.9C193.9,19.2,169.8,0,141.1,0
			c-28.7,0-52.8,19.2-60.3,45.4c5.1,18.1,18.2,32.8,35.3,40.2c-5.7-6.1-9.2-14.2-9.2-23.2c0-18.8,15.3-34,34.2-34
			c18.9,0,34.2,15.2,34.2,34c0,9-3.5,17.1-9.2,23.2c-6.2,6.7-15.1,10.8-25,10.8c-27.7,0-51.6-16.5-62.3-40.1
			c-1.6-3.5-2.9-7.1-3.8-10.9c-1.4-5.4-2.2-11.1-2.2-17c0-8.2,1.5-16,4.1-23.3c0.1-0.3,0.3-0.7,0.4-1c0-0.2,0.1-0.4,0.1-0.7
			c0-1.9-1.5-3.4-3.4-3.4H4.6"/>
		<path class="st0" d="M234.6,3.4c2.1,7.9,3.3,16.3,3.3,24.9c0,29.1-13,55.3-33.5,72.9c-5.1,3.9-9.5,7.7-18.1,12.2
			c15.5-14.6,23.1-31.7,23.1-51.2c0-5.9-0.7-11.6-2.2-17c1.4-5.4,2.2-11.1,2.2-17c0-8.4-1.5-16.4-4.3-23.8c-0.1-0.4-0.2-0.7-0.2-1.1
			c0-1.9,1.5-3.4,3.4-3.4h21.9C232.3,0,234.1,1.5,234.6,3.4"/>
	</g>
	<polygon points="21.3,138.6 17.2,142.9 12,142.9 8.1,138.6 8.1,136.9 12.3,136.9 14.8,138.6 17.2,136.9 21.3,136.9 	"/>
	<path d="M0.1,159.9c0-10,6.3-15.8,15.7-15.8c4.3,0,6.9,0.9,9.2,2.2v5.8h-3.2c-1.1-1-3-2-5.7-2c-4.6,0-7.4,3.1-7.4,9.6
		c0,7,2.4,9.9,7,9.9c3.3,0,5.1-1.2,6.6-2.7h3v5.5c-2.3,1.7-5.6,3-10.1,3C5.9,175.4,0.1,169.8,0.1,159.9"/>
	<path d="M34.5,161.1h7.2c-0.1-3.5-1.3-4.7-3.4-4.7C36.5,156.5,34.9,157.4,34.5,161.1 M34.5,165.2c0.4,3.9,2.2,4.9,5.4,4.9
		c2.6,0,4.5-0.7,5.8-1.7h2.4v4.7c-2,1.1-4.7,2.3-9.5,2.3c-8,0-12.1-4.4-12.1-11.7c0-7.4,4.8-12,11.7-12c7.2,0,10.8,3.8,10.8,11.6
		c0,0.9-0.1,1.7-0.1,2H34.5z"/>
	<path d="M51.1,173.5v-5.1h2.7c0.9,0.8,2.8,1.7,5.3,1.7c2.1,0,3.4-0.5,3.4-1.7c0-1.2-0.8-1.6-4-2c-4.9-0.6-7.6-2.3-7.6-7.1
		c0-5,3.9-7.5,9.7-7.5c3.7,0,5.8,0.6,7.8,1.5v5.1h-2.5c-1-0.7-2.8-1.4-5.1-1.4c-2.2,0-3,0.6-3,1.7c0,1,1,1.4,3.9,1.8
		c5.4,0.7,7.9,2.3,7.9,7.2c0,4.9-3.2,7.8-10.3,7.8C55.4,175.3,53,174.4,51.1,173.5"/>
	<path d="M79.6,160.6l7.2-8.6h6.5v1.9l-6.3,7.2l7.2,12v1.9h-7.4l-5.3-8.9l-1.9,2.1v6.9h-7.9v-30.7h5c2.4,0,2.9,0.6,2.9,4.1V160.6z"
		/>
	<path d="M103.5,150.5v-1.4l1.4-4.8h7.5v1.9l-4.4,4.3H103.5z M108.2,165.4c-0.8-0.1-1.7-0.2-2.6-0.2c-2.1,0-3.4,0.8-3.4,2.8
		c0,2,1.2,2.8,2.9,2.8c1.2,0,2.2-0.6,3.1-1.3V165.4z M108.6,172.8c-1.6,1.8-3.8,2.5-6.6,2.5c-4.1,0-7.3-2.3-7.3-6.9
		c0-4.8,3.7-7.2,9-7.2c1.7,0,3.1,0.2,4.4,0.4v-1.6c0-2-1-2.9-3.9-2.9c-2.3,0-4.1,0.7-5.5,1.5h-2.4v-5.3c2.1-0.9,5.2-1.8,9.3-1.8
		c6.9,0,10.2,2.3,10.2,7.9V175h-4.3C109.9,175,109,174.4,108.6,172.8"/>
	<path d="M137.4,158.3v10.6c0.9,0.6,1.9,0.9,3.2,0.9c2.4,0,4.4-1.1,4.4-6.2c0-4.9-1.9-6.1-4.3-6.1
		C139.8,157.5,138.5,157.8,137.4,158.3 M137.4,173.2v8.9h-7.9V152h5.5c1.2,0,1.9,0.4,2.2,2.5c1.7-1.6,3.9-2.8,7.1-2.8
		c4.4,0,8.7,2.8,8.7,11.2c0,8.8-4.8,11.9-9.9,11.9C140.6,174.8,138.8,174.2,137.4,173.2"/>
	<path d="M171.2,163.7c0-4.6-1.7-6.7-4.3-6.7c-2.6,0-4.3,2.1-4.3,6.7c0,4.5,1.7,6.5,4.3,6.5C169.5,170.2,171.2,168.2,171.2,163.7
		 M154.7,163.6c0-7.4,5.3-12,12.3-12c6.9,0,12.2,4.6,12.2,12c0,7.3-5.3,11.7-12.2,11.7C160,175.4,154.7,171,154.7,163.6"/>
	<path d="M196.7,146l-4,4.5h-5.3l-3.8-4.5v-1.7h4.2l2.4,1.8l2.4-1.8h4.1V146z M180.8,173.5v-5.1h2.7c0.9,0.8,2.8,1.7,5.3,1.7
		c2.1,0,3.4-0.5,3.4-1.7c0-1.2-0.8-1.6-4-2c-4.9-0.6-7.6-2.3-7.6-7.1c0-5,3.9-7.5,9.7-7.5c3.7,0,5.8,0.6,7.8,1.5v5.1h-2.5
		c-1-0.7-2.7-1.4-5.1-1.4c-2.2,0-3,0.6-3,1.7c0,1,1,1.4,3.9,1.8c5.4,0.7,7.9,2.3,7.9,7.2c0,4.9-3.2,7.8-10.3,7.8
		C185.1,175.3,182.7,174.4,180.8,173.5"/>
	<path d="M200.4,152h2.5v-5.8h7.9v5.8h4.3v5.1h-4.3v10.5c0,2.1,0.8,2.7,2.8,2.7h1.5v4.5c-1,0.3-2.5,0.6-4.5,0.6
		c-4.7,0-7.7-1.7-7.7-6.7v-11.7h-2.5V152z"/>
	<path d="M230.1,169.5v-4.1c-0.8-0.1-1.7-0.2-2.6-0.2c-2.1,0-3.4,0.8-3.4,2.8c0,2,1.2,2.8,2.9,2.8
		C228.3,170.7,229.3,170.2,230.1,169.5 M230.6,172.8c-1.6,1.8-3.8,2.5-6.6,2.5c-4.1,0-7.3-2.3-7.3-6.9c0-4.8,3.7-7.2,9-7.2
		c1.7,0,3.1,0.2,4.4,0.4v-1.6c0-2-1-2.9-3.9-2.9c-2.3,0-4.1,0.7-5.5,1.5h-2.4v-5.3c2.1-0.9,5.2-1.8,9.3-1.8c6.9,0,10.2,2.3,10.2,7.9
		V175h-4.3C231.9,175,231,174.4,230.6,172.8"/>
</g>
</svg>
