<?xml version="1.0" encoding="utf-8"?>
<!-- Generator: Adobe Illustrator 22.1.0, SVG Export Plug-In . SVG Version: 6.00 Build 0)  -->
<svg version="1.1" id="Layer_1" xmlns="http://www.w3.org/2000/svg" xmlns:xlink="http://www.w3.org/1999/xlink" x="0px" y="0px"
	 viewBox="0 0 175.2 107.5" style="enable-background:new 0 0 175.2 107.5;" xml:space="preserve">
<g>
	<g>
		<g>
			<g>
				<path d="M40.8,43.9c-1.3,2.7-4,3.4-6.7,4.2c0,0,0,0,0,0.1c-0.1,1.7-0.1,3.3-0.3,4.8c-0.1,0.9-0.3,1.9-0.6,2.8
					c-0.6,1.9-1.6,2.5-3.6,2.3c-1.7-0.1-3.2-0.7-4.7-1.5c-4.6-2.3-8.7-5.2-12.4-8.8c-2.8-2.7-5.2-5.6-6.8-9.1c-1.3-2.9-2-5.9-2-9.1
					c0-0.8,0.2-1.6,0.6-2.3c1.6-3.1,4.1-4.8,7.6-5c1.8-0.1,3.7,0,5.6,0.3c2.6,0.3,4.5-0.7,6.1-2.7c0.5-0.7,1.1-1.3,1.5-2
					c1.7-2.7,4-4.8,6.4-6.8c2-1.6,4.1-2.2,6.7-1.9c4.7,0.5,7.7,3.1,10.1,7.2c0.5,0.8,1.3,2.3,1.9,3.6c1.3,2.8,3.6,8.8,4.1,13.6
					c0.3,2.8,0.3,5.5-0.1,8.2c-0.4,2.6-1.9,4.1-4.4,4.4c-0.2,0-0.4,0-0.5,0c-2.6-0.1-4.9-0.7-7.2-2c-0.3-0.2-0.3-0.2-0.6-0.3
					C41.4,43.9,41,43.8,40.8,43.9C40.8,43.9,40.8,43.9,40.8,43.9z M28.2,53.7c0.7,0.2,1.5-0.3,1.5-1.1c0,0,0,0,0,0
					c0-1.9,0.1-3.8,0-5.7c-0.2-2.5-0.4-5,0-7.4c0.4-2.5,1.9-3.7,4.4-3.6c1.8,0,3.4,0.6,4.9,1.6c1.5,1,3,2,4.5,3
					c1.3,0.8,2.7,1.4,4.3,1.6c1,0.1,2-0.5,2.2-1.5c0-0.1,0-0.1,0-0.2c0.5-2.2,0-4.4-0.2-6.6c-0.3-3.6-1.3-7.4-2.8-10.2c0,0,0,0,0,0
					c-0.8-2-1.9-3.6-3.1-5.7c-1.5-2.5-3.5-3.9-6.5-3.8c-1,0-1.9,0.4-2.7,1c-2,1.6-3.9,3.4-5.4,5.6c-0.8,1.1-1.6,2.3-2.5,3.3
					c-2.3,2.5-5.1,4-8.5,3.8c-1.3-0.1-2.6-0.2-4-0.3c-0.8,0-1.6-0.1-2.4,0c-2.3,0.3-3.7,2.1-3.5,4.3c0.3,3.7,1.5,7.2,3.9,10.1
					c4.2,5.1,9.3,8.9,15.3,11.7C27.7,53.6,27.9,53.6,28.2,53.7z M34.3,44.5c1.4-0.4,2.6-0.9,3.5-2c0.3-0.3,0.2-0.8-0.1-1.1
					c-0.9-0.7-1.8-1.3-3-1.4c-0.5-0.1-1,0.3-1.1,0.8c-0.2,1-0.3,2.1-0.1,3.2C33.6,44.4,33.9,44.6,34.3,44.5z"/>
				<path d="M26.5,21.8c-0.9,0.1-1.4-0.4-1.8-1c-0.7-1.1-1.3-2.2-1.9-3.3c-1.2-2.3-2.4-4.6-3.5-6.9c-0.3-0.5-0.5-1.1-0.6-1.6
					c-0.1-0.7,0.2-1.2,0.9-1.5c0.6-0.2,1.1,0,1.6,0.5c0.1,0.1,0.2,0.2,0.3,0.4c2.2,3.6,4.2,7.2,5.2,11.4
					C26.9,20.8,26.8,20.8,26.5,21.8z"/>
				<path d="M20.6,24.1c-1.1,0.4-1.9,0-2.5-0.7c-0.7-0.8-1.4-1.7-1.9-2.7c-1.1-2-2.1-4-3.1-6.1c-0.3-0.7-0.6-1.4-0.7-2.1
					c-0.2-0.9,0.2-1.5,1-1.8c0.8-0.2,1.4,0.1,1.7,0.8c0.6,1.1,1.1,2.3,1.7,3.4c1.2,2.2,2.4,4.5,3.6,6.7
					C20.7,22.4,21.2,23.1,20.6,24.1z"/>
				<path d="M32.4,15c-1.3,0.3-1.9,0.1-2.6-1.1c-0.8-1.3-1.5-2.7-2.2-4c-0.6-1.1-1.2-2.1-1.9-3.1c-0.2-0.3-0.3-0.5-0.4-0.8
					c-0.2-0.7,0-1.4,0.6-1.8c0.6-0.5,1.4-0.5,1.9,0c0.7,0.7,1.3,1.4,1.8,2.2c1,2,2,4,2.9,6C32.8,13.1,33.1,14.1,32.4,15z"/>
				<path d="M6.8,28.3c-0.9,0.6-1.6,0.1-2.2-0.5c-0.6-0.7-1-1.5-1.5-2.2c-0.8-1.5-1.6-3.1-2.4-4.6c-0.2-0.5-0.5-0.9-0.6-1.5
					c-0.2-0.9,0.1-1.7,0.9-2c0.7-0.3,1.6-0.1,2.1,0.6c1.6,2.6,3.1,5.3,4,8.3C7.3,27.2,7.2,27.2,6.8,28.3z"/>
				<path d="M13.5,24.6c-0.8,1.1-1.3,1.3-2.2,0.7c-0.6-0.4-1.2-1.1-1.6-1.7c-1.1-2.1-2.1-4.3-3-6.5c-0.2-0.6-0.3-1.2-0.3-1.8
					c0-0.6,0.4-1.1,1-1.2C8.2,14,8.7,14.2,9,14.8c0.3,0.7,0.7,1.3,1,2c1,2.1,2,4.2,3,6.3C13.2,23.6,13.3,24.2,13.5,24.6z"/>
				<path d="M43.8,24.6c1.1,1.2,0,2.5-1.2,2.7c-0.4,0.1-0.8,0-1.3-0.1c-1.7-0.3-2.9,0.4-3.7,1.8c-0.2,0.3-0.3,0.6-0.5,0.8
					c-0.6,1-1.4,1.3-2.2,1c-0.9-0.4-1.3-1.2-0.9-2.4c0.9-2.6,2.6-4.4,5.3-4.8c1.1-0.2,2.3-0.2,3.3,0.2C43,23.9,43.6,24.3,43.8,24.6z
					"/>
				<path d="M18.8,34.9c0.4-0.3,2.4-1.2,2.9-1.3c0.8-0.1,0.9-0.2,1.8-0.2c1.2-0.1,2,0.7,2,1.8c0,1-0.6,1.8-1.8,1.8
					c-2.3,0-3.7,1.3-4.7,3.2c-0.1,0.3-0.3,0.6-0.5,0.8c-0.5,0.6-1.2,0.7-1.9,0.4c-0.6-0.2-1.1-0.7-1.1-1.4c0-0.6,0.1-1.2,0.4-1.7
					C16.7,36.8,17.2,36.1,18.8,34.9z"/>
				<path d="M38.8,11c-0.9,0.6-1.6,0.1-2.2-0.5c-0.6-0.7-1-1.5-1.5-2.2c-0.8-1.5-1.6-3.1-2.4-4.6c-0.2-0.5-0.5-0.9-0.6-1.5
					c-0.2-0.9,0.1-1.7,0.9-2C33.7-0.2,34.6,0,35,0.8c1.6,2.6,3.1,5.3,4,8.3C39.3,9.9,39.3,9.9,38.8,11z"/>
			</g>
			<g>
				<path d="M43.2,75.7V58.1c0-0.2,0.1-0.4,0.3-0.5c0.2-0.1,0.5-0.2,0.8-0.2h5.5c2,0,3.6,0.5,4.8,1.4c1.2,0.9,1.8,2.4,1.8,4.3v7.7
					c0,2-0.6,3.4-1.8,4.3s-2.8,1.4-4.8,1.4h-5.5c-0.3,0-0.6-0.1-0.8-0.2C43.3,76.1,43.2,75.9,43.2,75.7z M45.8,74.5h4
					c1.3,0,2.3-0.3,3-0.9c0.7-0.6,1.1-1.6,1.1-2.8V63c0-1.2-0.4-2.2-1.1-2.8c-0.7-0.6-1.7-0.9-3-0.9h-4V74.5z"/>
				<path d="M61.2,70.9V63c0-2,0.6-3.4,1.8-4.3c1.2-0.9,2.8-1.4,4.8-1.4s3.6,0.5,4.8,1.4c1.2,0.9,1.8,2.4,1.8,4.3v7.9
					c0,2-0.6,3.4-1.8,4.3s-2.8,1.4-4.8,1.4s-3.6-0.5-4.8-1.4S61.2,72.9,61.2,70.9z M63.8,70.9c0,2.5,1.3,3.7,4,3.7
					c1.3,0,2.3-0.3,3-0.9s1.1-1.6,1.1-2.8V63c0-1.2-0.4-2.2-1.1-2.8c-0.7-0.6-1.7-0.9-3-0.9c-2.7,0-4,1.2-4,3.7V70.9z"/>
				<path d="M79.4,75.7V58.1c0-0.2,0.1-0.4,0.4-0.6c0.2-0.1,0.5-0.2,0.8-0.2h5.3c1.9,0,3.5,0.3,4.6,1c1.1,0.6,1.7,1.8,1.7,3.5
					c0,1.1-0.2,2-0.7,2.7c-0.5,0.7-1.1,1.3-1.9,1.6c1,0.4,1.8,0.9,2.4,1.5c0.5,0.7,0.8,1.7,0.8,2.9V71c0,1.9-0.6,3.3-1.7,4.1
					c-1.1,0.9-2.6,1.3-4.4,1.3h-6c-0.3,0-0.6-0.1-0.8-0.2C79.5,76.1,79.4,75.9,79.4,75.7z M82,65.2h3.9c1.3,0,2.2-0.2,2.8-0.7
					c0.6-0.5,0.9-1.3,0.9-2.3c0-1.9-1.3-2.8-3.8-2.8H82V65.2z M82,74.5h4.2c2.6,0,4-1.2,4-3.6v-0.4c0-1.2-0.3-2.1-1-2.6
					c-0.7-0.5-1.7-0.8-2.9-0.8H82V74.5z"/>
				<path d="M97,75.7V58.1c0-0.2,0.1-0.4,0.3-0.5c0.2-0.1,0.4-0.2,0.7-0.2h5.6c2.1,0,3.7,0.4,5,1.2c1.3,0.8,1.9,2.2,1.9,4
					c0,2.9-1.5,4.6-4.6,5.1l4.6,7.4c0.1,0.1,0.1,0.2,0.1,0.4c0,0.3-0.2,0.5-0.5,0.8c-0.3,0.2-0.7,0.4-1,0.4c-0.4,0-0.8-0.3-1.2-0.9
					l-4.7-7.7h-3.5v7.7c0,0.2-0.1,0.4-0.4,0.6c-0.3,0.1-0.6,0.2-0.9,0.2c-0.4,0-0.7-0.1-0.9-0.2C97.2,76.1,97,75.9,97,75.7z
					 M99.6,66.1h4c2.8,0,4.3-1.1,4.3-3.4c0-2.3-1.4-3.4-4.3-3.4h-4V66.1z"/>
				<path d="M112.9,58.2c0-0.3,0.2-0.5,0.5-0.7c0.3-0.2,0.7-0.3,1-0.3c0.4,0,0.7,0.2,0.9,0.6l5.4,9l5.4-9c0.2-0.4,0.6-0.6,0.9-0.6
					s0.7,0.1,1,0.3s0.5,0.4,0.5,0.7c0,0.1,0,0.3-0.1,0.4l-6.4,10.1c0,0.1-0.1,0.1-0.1,0.3v6.6c0,0.2-0.1,0.4-0.4,0.6
					c-0.3,0.1-0.6,0.2-0.9,0.2s-0.7-0.1-0.9-0.2c-0.3-0.1-0.4-0.3-0.4-0.6v-6.6c0-0.1,0-0.2-0.1-0.3L113,58.7
					C112.9,58.5,112.9,58.4,112.9,58.2z M118.4,53.7c0-0.3,0.1-0.5,0.4-0.6l3.6-1.6c0.1,0,0.2-0.1,0.3-0.1c0.2,0,0.5,0.1,0.6,0.3
					c0.2,0.2,0.2,0.4,0.2,0.6c0,0.3-0.1,0.5-0.4,0.6l-3.5,1.5c-0.2,0.1-0.3,0.1-0.3,0.1c-0.2,0-0.5-0.1-0.6-0.3
					C118.5,54.1,118.4,53.9,118.4,53.7z"/>
				<path d="M43.2,106.6V88.9c0-0.2,0.1-0.4,0.4-0.6c0.3-0.1,0.6-0.2,0.9-0.2s0.7,0.1,0.9,0.2c0.3,0.1,0.4,0.3,0.4,0.6v8.7l8.3-9.1
					c0.2-0.2,0.4-0.3,0.8-0.3s0.7,0.1,1,0.4c0.3,0.2,0.5,0.5,0.5,0.8c0,0.2-0.1,0.3-0.2,0.5l-6.3,6.7l7.3,9.4
					c0.1,0.1,0.2,0.3,0.2,0.4c0,0.3-0.2,0.5-0.5,0.8c-0.3,0.2-0.7,0.3-1,0.3c-0.4,0-0.7-0.1-1-0.4l-6.8-8.6l-2.3,2.4v5.8
					c0,0.2-0.1,0.4-0.4,0.6c-0.3,0.1-0.6,0.2-0.9,0.2s-0.7-0.1-0.9-0.2C43.3,107,43.2,106.8,43.2,106.6z"/>
				<path d="M58.6,106.4c0,0,0-0.1,0.1-0.2L65,88.8c0.2-0.5,0.7-0.8,1.6-0.8c0.9,0,1.4,0.3,1.6,0.8l6.3,17.5c0,0,0,0.1,0,0.1
					c0,0,0,0.1,0,0.1c0,0.2-0.2,0.4-0.5,0.6c-0.3,0.2-0.7,0.3-1.1,0.3c-0.5,0-0.8-0.2-0.9-0.5l-1.4-3.9h-8.2l-1.4,3.9
					c-0.1,0.3-0.4,0.5-0.9,0.5c-0.4,0-0.7-0.1-1-0.3C58.8,106.9,58.6,106.7,58.6,106.4z M63.1,101.1H70l-3.4-9.9L63.1,101.1z"/>
				<path d="M78,106.6V88.9c0-0.2,0.1-0.4,0.3-0.5c0.2-0.1,0.4-0.2,0.7-0.2h5.6c2.1,0,3.7,0.4,5,1.2c1.3,0.8,1.9,2.2,1.9,4
					c0,2.9-1.5,4.6-4.6,5.1l4.6,7.4c0.1,0.1,0.1,0.2,0.1,0.4c0,0.3-0.2,0.5-0.5,0.8c-0.3,0.2-0.7,0.4-1,0.4c-0.4,0-0.8-0.3-1.2-0.9
					l-4.7-7.7h-3.5v7.7c0,0.2-0.1,0.4-0.4,0.6c-0.3,0.1-0.6,0.2-0.9,0.2s-0.7-0.1-0.9-0.2C78.1,107,78,106.8,78,106.6z M80.6,97h4
					c2.8,0,4.3-1.1,4.3-3.4c0-2.3-1.4-3.4-4.3-3.4h-4V97z"/>
				<path d="M93.5,89.1c0-0.3,0.1-0.5,0.2-0.7c0.2-0.2,0.4-0.3,0.7-0.3H107c0.3,0,0.5,0.1,0.7,0.3c0.2,0.2,0.2,0.4,0.2,0.7
					c0,0.3-0.1,0.5-0.2,0.7c-0.2,0.2-0.4,0.3-0.7,0.3h-5v16.4c0,0.2-0.1,0.4-0.4,0.6c-0.3,0.1-0.6,0.2-0.9,0.2
					c-0.4,0-0.7-0.1-0.9-0.2c-0.3-0.1-0.4-0.3-0.4-0.6V90.2h-5c-0.3,0-0.5-0.1-0.7-0.3C93.6,89.7,93.5,89.4,93.5,89.1z"/>
				<path d="M107.9,106.4c0,0,0-0.1,0.1-0.2l6.3-17.4c0.2-0.5,0.7-0.8,1.6-0.8s1.4,0.3,1.6,0.8l6.3,17.5c0,0,0,0.1,0,0.1
					c0,0,0,0.1,0,0.1c0,0.2-0.2,0.4-0.5,0.6c-0.3,0.2-0.7,0.3-1.1,0.3c-0.5,0-0.8-0.2-0.9-0.5l-1.4-3.9h-8.2l-1.4,3.9
					c-0.1,0.3-0.4,0.5-0.9,0.5c-0.4,0-0.7-0.1-1-0.3C108.1,106.9,107.9,106.7,107.9,106.4z M112.4,101.1h6.9l-3.4-9.9L112.4,101.1z
					 M113.7,84.5c0-0.3,0.1-0.5,0.4-0.6l3.6-1.6c0.1,0,0.2-0.1,0.3-0.1c0.2,0,0.5,0.1,0.6,0.3c0.2,0.2,0.2,0.4,0.2,0.6
					c0,0.3-0.1,0.5-0.4,0.6l-3.5,1.5c-0.2,0.1-0.3,0.1-0.3,0.1c-0.2,0-0.5-0.1-0.6-0.3C113.8,85,113.7,84.8,113.7,84.5z"/>
				<path d="M127.1,101.8v-7.9c0-2,0.6-3.4,1.8-4.3c1.2-0.9,2.8-1.4,4.8-1.4c2,0,3.6,0.4,4.8,1.3c1.2,0.9,1.8,2,1.8,3.3
					c0,0.5-0.1,0.8-0.3,1c-0.2,0.2-0.5,0.2-1,0.2c-0.8,0-1.3-0.3-1.3-0.8c-0.1-2-1.5-3-4-3c-2.7,0-4.1,1.2-4.1,3.7v7.9
					c0,2.5,1.4,3.7,4.2,3.7c0.8,0,1.5-0.1,2-0.3c0.5-0.2,0.9-0.5,1.2-0.8c0.3-0.4,0.4-0.7,0.5-0.9c0.1-0.3,0.2-0.6,0.2-1
					c0.1-0.5,0.5-0.8,1.3-0.8c0.5,0,0.8,0.1,1,0.3s0.3,0.5,0.3,1c0,1.3-0.6,2.4-1.8,3.3s-2.8,1.3-4.9,1.3c-2,0-3.5-0.5-4.8-1.4
					C127.7,105.2,127.1,103.7,127.1,101.8z M129.5,82.3c0-0.2,0.1-0.3,0.2-0.5c0.1-0.1,0.3-0.2,0.5-0.2c0.2,0,0.3,0.1,0.4,0.2
					l3.1,2.2l3.1-2.2c0.1-0.1,0.2-0.2,0.4-0.2c0.2,0,0.3,0.1,0.5,0.2c0.1,0.1,0.2,0.3,0.2,0.5c0,0.3-0.2,0.5-0.5,0.7l-3.1,2.2
					c-0.2,0.2-0.4,0.2-0.6,0.2c-0.2,0-0.4-0.1-0.6-0.2l-3.1-2.2C129.7,82.8,129.5,82.6,129.5,82.3z"/>
				<path d="M144.5,106.6V89c0-0.2,0.1-0.4,0.4-0.6c0.2-0.1,0.5-0.2,0.8-0.2h11c0.3,0,0.5,0.1,0.7,0.3c0.2,0.2,0.2,0.4,0.2,0.7
					c0,0.3-0.1,0.5-0.2,0.7c-0.2,0.2-0.4,0.3-0.6,0.3H147v6.7h4.8c0.3,0,0.5,0.1,0.6,0.3c0.2,0.2,0.2,0.4,0.2,0.7
					c0,0.2-0.1,0.4-0.2,0.6s-0.4,0.3-0.7,0.3H147v6.7h9.6c0.3,0,0.5,0.1,0.6,0.3c0.2,0.2,0.2,0.4,0.2,0.7c0,0.3-0.1,0.5-0.2,0.7
					c-0.2,0.2-0.4,0.3-0.7,0.3h-11c-0.3,0-0.6-0.1-0.8-0.2C144.6,107,144.5,106.8,144.5,106.6z"/>
				<path d="M161.1,106.6V88.9c0-0.2,0.1-0.4,0.4-0.6c0.3-0.1,0.6-0.2,0.9-0.2c0.3,0,0.7,0.1,0.9,0.2c0.3,0.1,0.4,0.3,0.4,0.6v8.7
					l8.3-9.1c0.2-0.2,0.4-0.3,0.8-0.3s0.7,0.1,1,0.4c0.3,0.2,0.5,0.5,0.5,0.8c0,0.2-0.1,0.3-0.2,0.5l-6.3,6.7l7.3,9.4
					c0.1,0.1,0.2,0.3,0.2,0.4c0,0.3-0.2,0.5-0.5,0.8c-0.3,0.2-0.7,0.3-1,0.3c-0.4,0-0.7-0.1-1-0.4l-6.8-8.6l-2.3,2.4v5.8
					c0,0.2-0.1,0.4-0.4,0.6c-0.3,0.1-0.6,0.2-0.9,0.2c-0.4,0-0.7-0.1-0.9-0.2C161.2,107,161.1,106.8,161.1,106.6z"/>
			</g>
		</g>
	</g>
</g>
</svg>
