<?xml version="1.0" encoding="utf-8"?>
<!-- Generator: Adobe Illustrator 22.1.0, SVG Export Plug-In . SVG Version: 6.00 Build 0)  -->
<svg version="1.1" id="Layer_1" xmlns="http://www.w3.org/2000/svg" xmlns:xlink="http://www.w3.org/1999/xlink" x="0px" y="0px"
	 viewBox="0 0 54.9 58.1" style="enable-background:new 0 0 54.9 58.1;" xml:space="preserve">
<style type="text/css">
	.st0{fill:#05090F;}
</style>
<g>
	<path class="st0" d="M44.4,24.7c1.1,1.2,0,2.5-1.2,2.7c-0.4,0.1-0.8,0-1.3-0.1c-1.7-0.3-2.9,0.4-3.7,1.8c-0.2,0.3-0.3,0.6-0.5,0.8
		c-0.6,1-1.4,1.3-2.2,1c-0.9-0.4-1.3-1.2-0.9-2.4c0.9-2.6,2.6-4.4,5.3-4.8c1.1-0.2,2.3-0.2,3.3,0.2C43.6,24,44.2,24.4,44.4,24.7z"/>
	<path class="st0" d="M19.4,35c0.4-0.3,2.4-1.2,2.9-1.3c0.8-0.1,0.9-0.2,1.8-0.2c1.2-0.1,2,0.7,2,1.8c0,1-0.6,1.8-1.8,1.8
		c-2.3,0-3.7,1.3-4.7,3.2c-0.1,0.3-0.3,0.6-0.5,0.8c-0.5,0.6-1.2,0.7-1.9,0.4c-0.6-0.2-1.1-0.7-1.1-1.4c0-0.6,0.1-1.2,0.4-1.7
		C17.3,36.9,17.8,36.2,19.4,35z"/>
	<path class="st0" d="M54.7,33.7c-0.5-4.8-2.8-10.8-4.1-13.6c-0.6-1.2-1.4-2.7-1.9-3.6c-2.2-3.8-4.9-6.2-9-7c0-0.1-0.1-0.2-0.1-0.4
		c-0.9-3-2.4-5.6-4-8.3c-0.5-0.8-1.3-1-2.1-0.6c-0.7,0.3-1.1,1.1-0.9,2c0.1,0.5,0.4,1,0.6,1.5c0.8,1.6,1.6,3.1,2.4,4.6
		c0.2,0.3,0.4,0.7,0.6,1c-1.4,0.2-2.7,0.7-4,1.6c-0.7-1.6-1.5-3.1-2.3-4.6c-0.4-0.8-1.1-1.5-1.8-2.2c-0.5-0.5-1.3-0.5-1.9,0
		s-0.8,1.1-0.6,1.8c0.1,0.3,0.3,0.6,0.4,0.8c0.6,1,1.3,2.1,1.9,3.1s1.1,2.1,1.7,3.2c-1.3,1.2-2.5,2.4-3.5,3.9
		c-1.1-3-2.7-5.8-4.4-8.6c-0.1-0.1-0.2-0.3-0.3-0.4c-0.4-0.5-0.9-0.7-1.6-0.5c-0.7,0.3-1,0.8-0.9,1.5c0.1,0.6,0.3,1.1,0.6,1.6
		c1.2,2.3,2.3,4.6,3.5,6.9c0.4,0.7,0.7,1.3,1.1,2c-0.1,0.2-0.3,0.3-0.4,0.5c-0.8,1.1-1.8,1.8-2.9,2.3c-0.1-0.2-0.2-0.4-0.3-0.5
		c-1.2-2.2-2.4-4.4-3.6-6.7c-0.6-1.1-1.1-2.3-1.7-3.4c-0.4-0.7-0.9-1-1.7-0.8c-0.7,0.2-1.1,0.9-1,1.8c0.2,0.7,0.4,1.4,0.7,2.1
		c1,2,2,4.1,3.1,6.1c0.4,0.7,0.8,1.3,1.3,1.9c0,0,0,0-0.1,0c-1.6-0.2-3.2-0.3-4.8-0.3c-0.9-1.9-1.7-3.7-2.6-5.6
		c-0.3-0.7-0.6-1.3-1-2c-0.3-0.6-0.8-0.8-1.5-0.7s-1,0.6-1,1.2c0,0.6,0,1.3,0.3,1.8c0.8,1.9,1.7,3.8,2.6,5.6c-1.1,0.4-2.1,0.9-3,1.7
		C5.6,22.1,4.4,20,3.1,18c-0.5-0.8-1.3-1-2.1-0.6c-0.7,0.3-1.1,1.1-0.9,2c0.1,0.5,0.4,1,0.6,1.5c0.8,1.6,1.6,3.1,2.4,4.6
		c0.3,0.6,0.7,1.2,1.1,1.8l0,0c-0.4,0.7-0.6,1.5-0.6,2.3c0,3.2,0.7,6.2,2,9.1c1.6,3.5,4,6.4,6.8,9.1c3.7,3.6,7.8,6.5,12.4,8.8
		c1.5,0.7,3,1.3,4.7,1.5c2,0.1,3-0.5,3.6-2.3c0.3-0.9,0.5-1.9,0.6-2.8c0.2-1.6,0.2-3.1,0.3-4.8c0,0,0,0,0-0.1
		c2.7-0.7,5.4-1.5,6.7-4.2l0,0c0.2,0,0.5,0.1,0.6,0.1c0.3,0.1,0.3,0.1,0.6,0.3c2.2,1.3,4.6,1.9,7.2,2c0.2,0,0.4,0,0.5,0
		c2.5-0.3,3.9-1.8,4.4-4.4C55.1,39.2,55,36.5,54.7,33.7z M38.4,42.6c-0.9,1.1-2.1,1.7-3.5,2c-0.4,0.1-0.7-0.1-0.8-0.5
		c-0.1-1.1,0-2.2,0.1-3.2c0.1-0.5,0.5-0.9,1.1-0.8c1.1,0.2,2.1,0.8,3,1.4C38.6,41.8,38.7,42.3,38.4,42.6z M50.6,40.4
		c0,0.1,0,0.1,0,0.2c-0.2,1-1.2,1.6-2.2,1.5c-1.6-0.2-3-0.8-4.3-1.6c-1.5-1-3-2-4.5-3s-3.1-1.5-4.9-1.6c-2.5-0.1-4,1.1-4.4,3.6
		s-0.2,5,0,7.4c0.1,1.9,0,3.8,0,5.7l0,0c0,0.7-0.8,1.3-1.5,1.1c-0.2-0.1-0.5-0.1-0.7-0.2c-5.9-2.8-11.1-6.6-15.3-11.7
		c-2.4-2.9-3.6-6.3-3.9-10.1c-0.2-2.3,1.2-4,3.5-4.3c0.8-0.1,1.6-0.1,2.4,0c1.3,0.1,2.6,0.2,4,0.3c3.5,0.2,6.3-1.3,8.5-3.8
		c0.9-1,1.8-2.1,2.5-3.3c1.4-2.2,3.3-4,5.4-5.6c0.8-0.6,1.7-0.9,2.7-1c3-0.1,5.1,1.3,6.5,3.8c1.2,2.1,2.3,3.7,3.1,5.7l0,0
		c1.5,2.8,2.5,6.6,2.8,10.2C50.5,36,51,38.2,50.6,40.4z"/>
</g>
</svg>
