<?xml version="1.0" encoding="utf-8"?>
<!-- Generator: Adobe Illustrator 22.1.0, SVG Export Plug-In . SVG Version: 6.00 Build 0)  -->
<svg version="1.1" id="Layer_1" xmlns="http://www.w3.org/2000/svg" xmlns:xlink="http://www.w3.org/1999/xlink" x="0px" y="0px"
	 viewBox="0 0 156.3 245.2" style="enable-background:new 0 0 156.3 245.2;" xml:space="preserve">
<style type="text/css">
	.st0{fill:#565757;}
</style>
<path class="st0" d="M78.2,0C46,0,20,26,20,58.1c0,32.1,26,58.1,58.1,58.1c32.1,0,58.1-26,58.1-58.1C136.3,26,110.3,0,78.2,0z
	 M78.2,103.8c-25.2,0-45.6-20.4-45.6-45.6s20.4-45.6,45.6-45.6c25.2,0,45.6,20.4,45.6,45.6S103.4,103.8,78.2,103.8z"/>
<path class="st0" d="M145.6,162.6l-63.1,63.1c-2.4,2.4-6.4,2.4-8.8,0l-63.1-63.1c-2.4-2.4-6.4-2.4-8.8,0h0c-2.4,2.4-2.4,6.4,0,8.8
	L69.3,239l4.4,4.4c2.4,2.4,6.4,2.4,8.8,0L87,239l67.5-67.5c2.4-2.4,2.4-6.4,0-8.8h0C152,160.2,148.1,160.2,145.6,162.6z"/>
</svg>
