<?xml version="1.0" encoding="utf-8"?>
<!-- Generator: Adobe Illustrator 22.1.0, SVG Export Plug-In . SVG Version: 6.00 Build 0)  -->
<svg version="1.1" id="Layer_1" xmlns="http://www.w3.org/2000/svg" xmlns:xlink="http://www.w3.org/1999/xlink" x="0px" y="0px"
	 viewBox="0 0 421.6 298.7" style="enable-background:new 0 0 421.6 298.7;" xml:space="preserve">
<style type="text/css">
	.st0{fill:#FFFFFF;}
</style>
<g>
	<path class="st0" d="M418.4,80.3c-3.2-4-8.8-5.6-14.4-5.6H17.6c-5.6,0-10.4,1.6-14.4,5.6c-3.2,4.8-4,9.6-2.4,15.2L60,285.9
		c2.4,7.2,8.8,12.8,16.8,12.8h268c8,0,14.4-5.6,16.8-12.8l17.6-56c1.6-2.4,1.6-4.8,2.4-7.2l39.2-128
		C422.4,89.1,421.6,85.1,418.4,80.3z M228,266.7v-32h40.9l-6.9,32H228z M159.6,266.7l-6.9-32H196v32H159.6z M196,170.7v32h-50.2
		l-6.9-32H196z M132.1,138.7l-6.9-32H196v32H132.1z M228,202.7v-32h54.6l-6.9,32H228z M228,138.7v-32h68.4l-6.9,32H228z M50.4,138.7
		l-9.6-32h48.5l6.9,32H50.4z M71.2,202.7l-9.6-32H103l6.9,32H71.2z M82.4,234.7h34.4l6.9,32h-34L82.4,234.7z M332,266.7h-34l6.9-32
		H340L332,266.7z M350.4,202.7h-38.7l6.9-32H360L350.4,202.7z M371.2,138.7h-45.7l6.9-32h48.5L371.2,138.7z"/>
	<path class="st0" d="M249.5,0.1C249,0,248.5,0,248,0h-72c-4.1,0-7.3,1.2-9.8,3.4c-3.8,2.9-6.2,7.5-6.2,12.6c0,8.8,7.2,16,16,16h72
		c8.8,0,16-7.2,16-16C264,7.7,257.6,0.8,249.5,0.1z"/>
</g>
</svg>
