<?xml version="1.0" encoding="utf-8"?>
<!-- Generator: Adobe Illustrator 22.1.0, SVG Export Plug-In . SVG Version: 6.00 Build 0)  -->
<svg version="1.1" id="Layer_1" xmlns="http://www.w3.org/2000/svg" xmlns:xlink="http://www.w3.org/1999/xlink" x="0px" y="0px"
	 viewBox="0 0 443.5 364.9" style="enable-background:new 0 0 443.5 364.9;" xml:space="preserve">
<path d="M219.6,364.9L120.7,266L287.5,99.2l-49.5-49.5l205.6-7.6l-7.6,205.6l-49.5-49.5L219.6,364.9z M156,266l63.5,63.5
	l166.8-166.8l26.7,26.7l4.5-121.4l-121.4,4.5l26.7,26.7L156,266z"/>
<path d="M156,265.7l49.5,49.5L0,322.8l7.6-205.6l49.5,49.5L223.9,0l98.9,98.9L156,265.7z M57.1,202.1l-26.7-26.7L26,296.8l121.4-4.5
	l-26.7-26.7L287.5,98.9l-63.5-63.5L57.1,202.1z"/>
</svg>
